<svg width="60" height="58" viewBox="0 0 60 58" fill="none" xmlns="http://www.w3.org/2000/svg">
<path d="M29.0625 16.4657C33.7153 16.4657 37.5 12.8299 37.5 8.36214C37.5 3.89437 33.7153 0.258575 29.0625 0.258575C24.4097 0.258575 20.625 3.89437 20.625 8.36214C20.625 12.8299 24.4097 16.4657 29.0625 16.4657ZM29.0625 2.05937C32.6803 2.05937 35.625 4.88661 35.625 8.36214C35.625 11.8377 32.6803 14.6649 29.0625 14.6649C25.4447 14.6649 22.5 11.8377 22.5 8.36214C22.5 4.88661 25.4447 2.05937 29.0625 2.05937Z" fill="white"/>
<path d="M18.6217 46.6335C18.7905 46.357 18.7933 46.0158 18.6292 45.7376L10.1917 31.3312C9.85984 30.764 8.88952 30.764 8.55859 31.3312L0.121085 45.7376C-0.0429778 46.0167 -0.0401654 46.357 0.128585 46.6335C0.297335 46.9099 0.604835 47.0792 0.937647 47.0792H17.8126C18.1464 47.0792 18.4539 46.9099 18.6217 46.6335ZM2.54077 45.2784L9.37515 33.6092L16.2095 45.2784H2.54077Z" fill="white"/>
<path d="M59.0625 31.7724C59.0625 31.2754 58.6425 30.872 58.125 30.872H43.125C42.6075 30.872 42.1875 31.2754 42.1875 31.7724V46.1788C42.1875 46.6758 42.6075 47.0792 43.125 47.0792H58.125C58.6425 47.0792 59.0625 46.6758 59.0625 46.1788V31.7724ZM57.1875 45.2784H44.0625V32.6728H57.1875V45.2784Z" fill="white"/>
<path d="M29.0625 51.5811C24.7097 51.5811 20.4881 50.3854 16.8515 48.1245L15.8315 49.6363C19.7728 52.0872 24.3478 53.3819 29.0625 53.3819C33.9562 53.3819 38.6765 51.9944 42.7134 49.3689L41.6625 47.8778C37.9369 50.3008 33.5803 51.5811 29.0625 51.5811Z" fill="white"/>
<path d="M51.546 29.1064L53.4191 29.0361C53.0675 20.4391 47.8438 12.7408 39.7879 8.9438L38.9619 10.5609C46.3982 14.0652 51.2207 21.1721 51.546 29.1064Z" fill="white"/>
<path d="M6.63375 31.7013C6.58688 31.1332 6.5625 30.5515 6.5625 29.9716C6.5625 21.6619 11.3906 14.2237 19.1625 10.5609L18.3375 8.9438C9.91781 12.9127 4.6875 20.9695 4.6875 29.9716C4.6875 30.5992 4.71281 31.2286 4.76437 31.8445L6.63375 31.7013Z" fill="white"/>
<path d="M15.2747 6.82516L16.6003 8.09832L19.4128 5.39713C19.7794 5.04508 19.7794 4.47603 19.4128 4.12397L16.6003 1.42279L15.2747 2.69595L16.4869 3.86016H10.3125V5.66095H16.4869L15.2747 6.82516Z" fill="white"/>
<path d="M55.3127 20.9677C55.5527 20.9677 55.7927 20.8794 55.9755 20.7039L58.788 18.0027L57.4624 16.7295L56.2502 17.8937V11.9637H54.3752V17.8937L53.163 16.7295L51.8374 18.0027L54.6499 20.7039C54.8327 20.8794 55.0727 20.9677 55.3127 20.9677Z" fill="white"/>
<path d="M8.7124 49.1438L5.8999 51.845L7.22553 53.1181L8.43771 51.9539V57.8839H10.3127V51.9539L11.5249 53.1181L12.8505 51.845L10.038 49.1438C9.6724 48.7917 9.07896 48.7917 8.7124 49.1438Z" fill="white"/>
<path d="M37.5004 29.0712C37.5004 26.1873 35.8841 23.4978 33.2825 22.0527L32.3432 23.6112C34.3672 24.7358 35.6254 26.8275 35.6254 29.0712C35.6254 32.0074 33.5197 34.4745 30.6857 35.1714L31.7769 33.0762L30.0997 32.2704L28.2247 35.8719C28.0447 36.2186 28.115 36.6373 28.401 36.911L31.2135 39.6122L32.5391 38.339L31.0747 36.9326C34.7572 36.0628 37.5004 32.8727 37.5004 29.0712Z" fill="white"/>
<path d="M24.8456 36.0916L25.7831 34.533C23.7581 33.4085 22.5 31.3159 22.5 29.0712C22.5 26.1351 24.6056 23.668 27.4397 22.9711L26.3484 25.0663L28.0256 25.8721L29.9006 22.2706C30.0806 21.9239 30.0103 21.5052 29.7244 21.2315L26.9119 18.5303L25.5862 19.8035L27.0506 21.2099C23.3691 22.0797 20.625 25.2698 20.625 29.0712C20.625 31.957 22.2422 34.6465 24.8456 36.0916Z" fill="white"/>
</svg>
