<svg width="75" height="59" viewBox="0 0 75 59" fill="none" xmlns="http://www.w3.org/2000/svg">
<path d="M37.4039 32.4746L11.9119 56.9577C10.15 58.65 7.30085 58.65 5.55764 56.9577L1.32146 52.8892C-0.440487 51.197 -0.440487 48.4607 1.32146 46.7864L19.3908 29.4322L1.32146 12.078C-0.440487 10.3858 -0.440487 7.64946 1.32146 5.97525L5.5389 1.87072C7.30085 0.178509 10.15 0.178509 11.8932 1.87072L37.3852 26.3538C39.1659 28.0461 39.1659 30.7824 37.4039 32.4746ZM73.3927 26.3538L47.9007 1.87072C46.1387 0.178509 43.2896 0.178509 41.5464 1.87072L37.3102 5.93924C35.5483 7.63146 35.5483 10.3678 37.3102 12.042L55.3608 29.4142L37.2915 46.7684C35.5295 48.4607 35.5295 51.197 37.2915 52.8712L41.5277 56.9577C43.2896 58.65 46.1387 58.65 47.8819 56.9577L73.374 32.4746C75.1547 30.7824 75.1546 28.0461 73.3927 26.3538Z" fill="white"/>
</svg>
