<svg width="60" height="59" viewBox="0 0 60 59" fill="none" xmlns="http://www.w3.org/2000/svg">
<path fill-rule="evenodd" clip-rule="evenodd" d="M30 52.5435C16.74 52.5435 6 42.2286 6 29.4934C6 22.2326 9.54 15.7786 15 11.5719V15.0871C15 16.6718 16.35 17.9683 18 17.9683C19.65 17.9683 21 16.6718 21 15.0871V3.56201C21 1.97731 19.65 0.68074 18 0.68074H6C4.35 0.68074 3 1.97731 3 3.56201C3 5.1467 4.35 6.44327 6 6.44327H12.18C4.83 11.6872 0 20.014 0 29.4934C0 45.398 13.44 58.3061 30 58.3061C31.65 58.3061 33 57.0095 33 55.4248C33 53.8401 31.65 52.5435 30 52.5435ZM30 6.44327C34.92 6.44327 39.45 7.85509 43.26 10.3042L47.55 6.18396C42.63 2.72644 36.57 0.68074 30 0.68074C28.35 0.68074 27 1.97731 27 3.56201C27 5.1467 28.35 6.44327 30 6.44327ZM60 29.4934C60 26.2376 59.4 23.1258 58.38 20.2157L53.52 24.8834C53.82 26.3816 54 27.9087 54 29.4934C54 36.7542 50.46 43.2082 45 47.4149V43.8997C45 42.315 43.65 41.0185 42 41.0185C40.35 41.0185 39 42.315 39 43.8997V55.4248C39 57.0095 40.35 58.3061 42 58.3061H54C55.65 58.3061 57 57.0095 57 55.4248C57 53.8401 55.65 52.5435 54 52.5435H47.82C55.17 47.2996 60 38.9728 60 29.4934ZM60 9.32454C60 7.73984 58.65 6.44327 57 6.44327C56.16 6.44327 55.41 6.76021 54.87 7.27884L36 25.4308L29.13 18.8039C28.59 18.2853 27.84 17.9683 27 17.9683C25.35 17.9683 24 19.2649 24 20.8496C24 21.6564 24.33 22.3767 24.87 22.8953L33.87 31.5391C34.41 32.0577 35.16 32.3747 36 32.3747C36.84 32.3747 37.59 32.0577 38.13 31.5391L59.13 11.3702C59.67 10.8516 60 10.1313 60 9.32454Z" fill="white"/>
</svg>
