<svg width="60" height="42" viewBox="0 0 60 42" fill="none" xmlns="http://www.w3.org/2000/svg">
<path d="M54 0.823219H6C4.41013 0.827681 2.8867 1.43624 1.76249 2.51596C0.638279 3.59567 0.00464585 5.05881 0 6.58575V35.3984C0.00467734 36.9254 0.63832 38.3885 1.76253 39.4682C2.88673 40.5479 4.41014 41.1565 6 41.1609H54C55.5899 41.1565 57.1133 40.5479 58.2375 39.4682C59.3617 38.3885 59.9953 36.9254 60 35.3984V6.58575C59.9954 5.05881 59.3617 3.59567 58.2375 2.51596C57.1133 1.43624 55.5899 0.827681 54 0.823219ZM12 35.3984L7.77687 31.3292L18.51 20.9921L7.78161 10.6595L12 6.58575L27 20.9921L12 35.3984ZM51 35.3984H30V29.6359H51V35.3984Z" fill="white"/>
</svg>
