<svg width="56" height="52" viewBox="0 0 56 52" fill="none" xmlns="http://www.w3.org/2000/svg">
<path d="M28 0.58051C20.7837 0.510083 13.8334 3.19432 8.67683 8.04329C3.52022 12.8923 0.57915 19.5092 0.5 26.4399C0.527806 31.9171 2.36236 37.2449 5.74016 41.6581C9.11796 46.0713 13.8652 49.3428 19.3 51.0027C20.675 51.2428 21.175 50.4504 21.175 49.7541C21.175 49.0578 21.175 47.5211 21.175 45.3602C13.525 46.9209 11.9 41.9027 11.9 41.9027C11.3907 40.3273 10.3081 38.9807 8.85 38.109C6.35 36.5243 9.05 36.5483 9.05 36.5483C9.91413 36.6593 10.7409 36.9567 11.4683 37.4183C12.1957 37.8798 12.8048 38.4936 13.25 39.2135C14.0258 40.5056 15.2988 41.4534 16.795 41.8531C18.2912 42.2527 19.891 42.0722 21.25 41.3504C21.3898 40.0356 22.0097 38.8107 23 37.8929C16.9 37.2446 10.5 35.0357 10.5 25.1193C10.4455 22.5326 11.4406 20.0269 13.275 18.1322C12.4396 15.9114 12.5382 13.4653 13.55 11.3132C13.55 11.3132 15.875 10.6169 21.05 13.9544C25.5547 12.8015 30.2953 12.8015 34.8 13.9544C40.05 10.6169 42.3 11.3132 42.3 11.3132C43.3118 13.4653 43.4104 15.9114 42.575 18.1322C44.452 19.9922 45.5011 22.481 45.5 25.0713C45.5 35.0116 39.05 37.1966 33 37.8449C33.6625 38.4626 34.1742 39.2136 34.4984 40.0439C34.8226 40.8743 34.9512 41.7632 34.875 42.647V49.7301C34.875 49.7301 35.375 51.2428 36.75 50.9787C42.1694 49.3085 46.9007 46.0362 50.268 41.6293C53.6353 37.2223 55.4665 31.9061 55.5 26.4399C55.4209 19.5092 52.4798 12.8923 47.3232 8.04329C42.1666 3.19432 35.2163 0.510083 28 0.58051Z" fill="white"/>
</svg>
