<svg width="60" height="59" viewBox="0 0 60 59" fill="none" xmlns="http://www.w3.org/2000/svg">
<path d="M53.5714 0.601578H6.42857C2.87946 0.601578 0 3.36708 0 6.77572V52.0528C0 55.4614 2.87946 58.2269 6.42857 58.2269H53.5714C57.1205 58.2269 60 55.4614 60 52.0528V6.77572C60 3.36708 57.1205 0.601578 53.5714 0.601578ZM32.6518 45.5442C32.6518 51.1524 29.2232 53.7121 24.2277 53.7121C19.7143 53.7121 17.1027 51.4739 15.7634 48.7599L20.3571 46.0973C21.2411 47.6022 22.0446 48.8757 23.9866 48.8757C25.8348 48.8757 27.0134 48.1811 27.0134 45.467V27.0604H32.6518V45.5442ZM45.9911 53.7121C40.7545 53.7121 37.3661 51.3196 35.7188 48.1811L40.3125 45.6342C41.5179 47.5251 43.0982 48.9271 45.8705 48.9271C48.2009 48.9271 49.7009 47.808 49.7009 46.2516C49.7009 44.3994 48.1741 43.7434 45.5893 42.6501L44.183 42.0712C40.1116 40.4119 37.4196 38.3153 37.4196 33.9034C37.4196 29.8387 40.6473 26.7516 45.6696 26.7516C49.2589 26.7516 51.8304 27.9479 53.6786 31.0864L49.2857 33.7876C48.3214 32.1283 47.2768 31.4723 45.6562 31.4723C44.0089 31.4723 42.9643 32.4756 42.9643 33.7876C42.9643 35.4083 44.0089 36.0643 46.433 37.0805L47.8393 37.6593C52.6339 39.6273 55.3259 41.6468 55.3259 46.1745C55.3259 51.0366 51.3348 53.7121 45.9911 53.7121Z" fill="white"/>
</svg>
