<svg width="60" height="59" viewBox="0 0 60 59" fill="none" xmlns="http://www.w3.org/2000/svg">
<path d="M44.528 54.7211C44.3049 54.8345 44.3236 54.8705 44.5374 54.7661C44.6067 54.7391 44.6649 54.7012 44.7155 54.6562C44.7155 54.6184 44.7155 54.6184 44.528 54.7211ZM44.978 54.487C44.8711 54.5716 44.8711 54.5716 44.9986 54.5158C45.0661 54.478 45.1261 54.4419 45.1261 54.4311C45.1261 54.3825 45.0961 54.3933 44.978 54.487ZM45.2705 54.3177C45.1636 54.4023 45.1636 54.4023 45.2911 54.3465C45.3605 54.3087 45.4186 54.2691 45.4186 54.2601C45.4186 54.215 45.3886 54.2241 45.2705 54.3177ZM45.5667 54.1502C45.4598 54.2349 45.4598 54.2349 45.5836 54.1772C45.653 54.1412 45.7111 54.1034 45.7111 54.0926C45.7111 54.0476 45.6811 54.0566 45.5667 54.1502ZM45.9661 53.8963C45.7617 54.0278 45.6904 54.1124 45.8779 54.0188C46.0036 53.9449 46.2173 53.7829 46.1798 53.7829C46.0992 53.8117 46.0317 53.8603 45.9642 53.8963H45.9661ZM28.036 0.709799C27.8991 0.718803 27.4885 0.754818 27.1285 0.783629C18.6013 1.52553 10.6234 5.93373 5.5667 12.7243C2.77116 16.4464 0.95622 20.77 0.271867 25.3096C0.0299991 26.8943 0 27.3625 0 29.5108C0 31.6572 0.0299991 32.1182 0.271867 33.7029C1.90494 44.5271 9.92219 53.6136 20.7894 56.981C22.7449 57.5806 24.7942 57.9948 27.1285 58.2487C28.036 58.3423 31.9603 58.3423 32.8677 58.2487C36.9026 57.8165 40.3094 56.8603 43.6805 55.2091C44.198 54.9569 44.2955 54.8903 44.2261 54.8345C42.5762 52.7438 40.9562 50.6514 39.3344 48.5409L34.5402 42.323L28.5347 33.7785C26.5323 30.9189 24.5224 28.0666 22.4805 25.2358C22.4599 25.2358 22.4337 29.0336 22.4224 33.6651C22.4018 41.7774 22.4018 42.1069 22.2949 42.2942C22.1881 42.5193 22.0118 42.7066 21.7774 42.811C21.5918 42.8956 21.425 42.9136 20.5381 42.9136H19.5238L19.2594 42.7552C19.0944 42.6525 18.9575 42.5103 18.8694 42.3428L18.7419 42.0889L18.7513 30.7965L18.7719 19.5041L18.9575 19.279C19.0757 19.1403 19.2219 19.0269 19.3869 18.9422C19.6325 18.8288 19.73 18.8108 20.7444 18.8108C21.9349 18.8108 22.1318 18.8558 22.4449 19.1853C24.8748 22.6644 27.2973 26.1524 29.6803 29.6512C33.5783 35.3271 38.8994 43.0721 41.515 46.8716L46.2717 53.7847L46.5061 53.6352C48.7916 52.1712 50.8709 50.4281 52.6652 48.4401C56.4451 44.284 58.8975 39.1717 59.7281 33.7155C59.97 32.1308 60 31.6608 60 29.5144C60 27.3661 59.97 26.9069 59.7281 25.3223C58.0951 14.498 50.0778 5.41152 39.2107 2.04234C37.1782 1.42469 35.0877 1.00332 32.9708 0.787231C32.4027 0.731408 28.5254 0.664781 28.0379 0.713401L28.036 0.709799ZM40.3112 18.1355C40.5944 18.2652 40.8081 18.5101 40.9056 18.791C40.9562 18.9422 40.9656 22.0737 40.9562 29.1272L40.9356 39.2545L39.0813 36.5174L37.2157 33.7785V26.4261C37.2157 21.6596 37.2363 18.9873 37.2626 18.8558C37.3507 18.5551 37.5645 18.303 37.8494 18.1445C38.0819 18.0311 38.1719 18.0221 39.1 18.0221C39.9681 18.0221 40.1162 18.0311 40.3112 18.1355Z" fill="white"/>
</svg>
