<svg width="60" height="59" viewBox="0 0 60 59" fill="none" xmlns="http://www.w3.org/2000/svg">
<path d="M56.25 25.7889H33.75V4.17943C33.75 3.22423 33.3549 2.30816 32.6516 1.63273C31.9484 0.957302 30.9946 0.57785 30 0.57785C29.0054 0.57785 28.0516 0.957302 27.3484 1.63273C26.6451 2.30816 26.25 3.22423 26.25 4.17943V25.7889H3.75C2.75544 25.7889 1.80161 26.1684 1.09835 26.8438C0.395089 27.5192 0 28.4353 0 29.3905C0 30.3457 0.395089 31.2618 1.09835 31.9372C1.80161 32.6126 2.75544 32.9921 3.75 32.9921H26.25V54.6016C26.25 55.5568 26.6451 56.4729 27.3484 57.1483C28.0516 57.8237 29.0054 58.2032 30 58.2032C30.9946 58.2032 31.9484 57.8237 32.6516 57.1483C33.3549 56.4729 33.75 55.5568 33.75 54.6016V32.9921H56.25C57.2446 32.9921 58.1984 32.6126 58.9017 31.9372C59.6049 31.2618 60 30.3457 60 29.3905C60 28.4353 59.6049 27.5192 58.9017 26.8438C58.1984 26.1684 57.2446 25.7889 56.25 25.7889Z" fill="white"/>
</svg>
