<svg width="69" height="59" viewBox="0 0 69 59" fill="none" xmlns="http://www.w3.org/2000/svg">
<path d="M34.5016 35.43C38.0568 35.43 40.9388 32.7236 40.9388 29.3852C40.9388 26.0467 38.0568 23.3404 34.5016 23.3404C30.9465 23.3404 28.0645 26.0467 28.0645 29.3852C28.0645 32.7236 30.9465 35.43 34.5016 35.43Z" fill="white"/>
<path fill-rule="evenodd" clip-rule="evenodd" d="M34.9745 16.6435C45.9498 16.7137 57.9243 17.4656 66.1439 24.3487C66.3854 24.5512 66.6183 24.7617 66.8454 24.9791C68.7846 26.8352 69.7981 29.8319 68.2326 32.2982C65.0212 37.3616 57.8394 39.57 50.8862 40.9293C40.4873 42.9622 29.614 42.9784 19.2194 41.1885C13.2379 40.1572 7.12133 38.3497 2.87062 34.5687C1.21605 33.0973 -0.198455 31.1615 0.0229206 29.0071C0.382297 25.5217 3.943 23.285 6.9402 21.7704C15.2648 17.5642 25.4079 16.6233 34.9745 16.6435ZM34.1781 18.2269C23.7935 18.2931 12.5537 18.9154 4.53525 25.1505C4.25494 25.3678 3.98469 25.596 3.7245 25.8349C3.55631 25.9888 3.39387 26.1494 3.23719 26.3141C1.82987 27.799 1.34543 30.1842 2.67368 31.9674C4.01056 33.7614 6.04032 35.056 8.13046 36.1116C15.9476 40.0586 25.185 40.7592 34.191 40.7889C43.3091 40.82 52.7119 40.0397 60.7662 36.1291C63.9747 34.57 67.5857 32.2806 67.4578 29.3325C67.3399 26.6273 64.5311 24.9561 62.428 23.7628C61.8587 23.4402 61.2737 23.1419 60.68 22.8611C52.6846 19.099 43.3149 18.2081 34.1781 18.2269Z" fill="white"/>
<path fill-rule="evenodd" clip-rule="evenodd" d="M49.0414 0.697379C53.0563 0.793221 55.1364 5.32613 55.411 8.67385C55.4656 9.33934 55.4857 10.0075 55.4771 10.6757C55.4685 11.3993 55.4268 12.1228 55.3592 12.8436C54.5125 21.7691 50.1727 30.2693 45.0624 38.1189C40.0641 45.797 33.9691 53.4536 25.6776 57.0119C22.9363 58.189 19.676 58.9152 17.2495 57.6018C13.9231 55.8024 13.5594 51.5935 13.6212 48.401C13.637 47.6167 13.6917 46.8324 13.7779 46.0508C15.0559 34.4958 21.2932 23.5496 29.0989 14.1193C33.6529 8.61715 39.0708 3.15957 45.8199 1.18334C46.8822 0.871514 47.7261 0.68253 49.0414 0.697379ZM48.8488 2.27944C44.1352 2.34964 39.9032 5.62986 36.1556 9.03832C26.3029 17.9975 19.0421 29.9129 16.121 42.4088C15.8954 43.3767 15.7056 44.3513 15.5662 45.3327C15.4584 46.0927 15.3793 46.8567 15.3376 47.6234C15.3045 48.2336 15.293 48.8451 15.3132 49.4566C15.3275 49.9344 15.3606 50.4123 15.4167 50.8875C15.4584 51.2506 15.5144 51.6124 15.5849 51.9714C15.638 52.2373 15.6999 52.5019 15.7717 52.7652C15.8307 52.9784 15.8968 53.1904 15.9715 53.4009C16.5595 55.0654 18.0746 56.6555 20.1087 56.7082C24.8539 56.8297 29.3217 53.5805 33.1842 50.0492C39.965 43.8519 45.0178 36.0644 48.9652 27.8787C52.1507 21.2696 55.0645 14.0855 53.4373 6.81101C53.3755 6.53563 53.3036 6.26296 53.2216 5.99298C53.1541 5.77295 53.0779 5.55562 52.9945 5.34098C52.362 3.72247 50.8742 2.27539 48.8488 2.27944Z" fill="white"/>
<path fill-rule="evenodd" clip-rule="evenodd" d="M20.2847 0.756712C25.4079 0.849854 30.0094 4.11523 34.0948 7.77207C41.5497 14.4445 47.0482 22.9326 51.2198 31.8662C54.4513 38.787 57.4241 46.5556 54.782 53.8585C53.9496 56.1601 51.8437 58.2659 49.0362 58.3199C43.8885 58.4171 39.1174 54.902 34.9774 51.1182C24.5914 41.6231 16.8806 29.0881 14.2385 15.7944C14.0488 14.8441 13.8978 13.8857 13.7943 12.9232C13.7095 12.1376 13.6563 11.3479 13.6419 10.5582C13.6304 9.92108 13.6448 9.28394 13.6923 8.64949C13.7239 8.22563 13.7699 7.80446 13.8317 7.38465C13.8906 6.99048 13.9654 6.59767 14.0588 6.2089C14.1206 5.95107 14.1896 5.69594 14.2687 5.44216C15.0435 2.95433 17.0589 0.737813 20.2847 0.756712ZM20.0906 2.34013C17.0905 2.40222 15.7177 5.72429 15.4417 8.05554C15.3856 8.5334 15.3511 9.01531 15.3353 9.49722C15.3152 10.1128 15.3238 10.7297 15.3569 11.3452C15.8284 20.2531 20.069 28.8654 25.1866 36.7514C30.0051 44.1758 35.8241 51.5704 43.8282 55.3717C46.1397 56.4692 48.9486 57.3318 50.9452 56.295C53.4494 54.9938 53.757 51.8931 53.8907 49.5821C53.9266 48.953 53.931 48.3213 53.9094 47.6909C53.8835 46.8998 53.8174 46.1102 53.7182 45.3245C52.7953 37.9852 49.3338 31.04 45.3577 24.4769C40.4098 16.3128 34.3478 8.17568 25.7687 3.92489C23.992 3.04477 22.0686 2.32528 20.0906 2.34013Z" fill="white"/>
</svg>
