<svg width="81" height="59" viewBox="0 0 81 59" fill="none" xmlns="http://www.w3.org/2000/svg">
<path fill-rule="evenodd" clip-rule="evenodd" d="M0 24.7256C0 25.157 0.132266 25.4418 0.206385 25.7186C0.689442 27.5185 1.72776 29.0631 2.95968 30.4721C4.71428 32.48 6.86311 34.0964 9.06434 35.6165C10.9736 36.9347 12.9218 38.2234 14.8387 39.5318C15.1677 39.7564 15.4789 40.0147 15.8361 40.2903C15.5287 40.4498 15.2732 40.5904 15.0073 40.7198C12.4777 41.9521 10.0439 43.3335 7.80047 45.007C6.44843 46.0159 5.14111 47.088 4.2178 48.489C2.73221 50.7424 2.20634 53.1431 3.31367 55.7064C3.63698 56.4551 4.13026 57.1019 4.8261 57.58C5.05165 57.7346 5.30468 57.888 5.56857 57.9482C6.2446 58.101 6.9334 58.201 7.61773 58.3219L9.55571 58.3207C11.6988 58.1372 13.6496 57.4321 15.4125 56.2636C18.1677 54.4373 20.0239 51.9888 20.8219 48.8461C21.4021 46.562 21.4257 44.2755 20.7421 42.0018C20.6788 41.7907 20.5989 41.5839 20.5159 41.3795C20.4328 41.1752 20.335 40.9764 20.22 40.7217L24.6135 38.2952L24.6793 38.3492C24.5995 38.6002 24.5145 38.8506 24.4423 39.104C23.9203 40.9352 23.5733 42.7984 23.6979 44.6989C23.8308 46.724 24.4193 48.6197 25.6538 50.3116C26.6518 51.6801 29.0301 51.731 30.0907 50.3576C30.4671 49.8697 30.8319 49.3598 31.106 48.8154C31.8223 47.3948 32.4856 45.949 33.1699 44.513L33.2894 44.2503C33.2402 44.9303 33.1827 45.5274 33.1565 46.1251C33.1156 47.0585 33.1725 47.9864 33.5047 48.8744C33.7891 49.6341 34.2728 50.2017 35.1788 50.3018C35.7986 50.3699 36.2925 50.0974 36.7481 49.7519C37.4599 49.2125 38.0382 48.546 38.4676 47.7888C39.6822 45.6464 40.9295 43.517 42.0304 41.3206C43.2214 38.9451 44.263 36.5002 45.369 34.0842L45.5517 33.6558C45.8131 34.642 45.9952 35.6079 46.3306 36.5223C46.7204 37.5834 47.2028 38.6192 47.7281 39.6263C47.9766 40.1019 47.9479 40.4106 47.6035 40.8094C46.162 42.4786 44.7454 44.1681 43.3275 45.8557C43.0138 46.2282 42.7013 46.6074 42.44 47.0143C42.2822 47.2616 42.1774 47.5629 42.1333 47.8514C42.0483 48.4024 42.4029 48.9339 43.017 49.0609C43.578 49.1769 44.1754 49.2199 44.7473 49.1794C46.7262 49.0394 48.5229 48.3724 50.1114 47.242C52.1695 45.7778 52.8302 43.7796 52.3318 41.4115C52.197 40.7689 51.9586 40.1442 51.7267 39.525C51.6225 39.2458 51.6155 39.05 51.8053 38.7898C53.4506 36.5334 54.8563 34.1394 56.1637 31.6902C56.2154 31.5939 56.2684 31.4975 56.3592 31.3944C56.7828 33.5116 57.4205 35.5521 58.563 37.4035C57.9802 37.943 57.4033 38.4321 56.8812 38.9709C55.7317 40.1577 54.7349 41.4464 54.2148 43.0181C53.9912 43.6956 53.8193 44.3841 53.919 45.1076C54.0736 46.2313 55.0321 46.9615 56.1828 46.7056C58.6454 46.1582 60.7712 45.0438 62.3246 43.0696C63.3699 41.7404 63.4651 40.2577 63.0274 38.7045C62.9073 38.2823 62.7648 37.8669 62.6114 37.3827C63.2191 37.2016 63.8114 36.9844 64.4242 36.85C67.6056 36.1529 70.7525 36.2744 73.8182 37.3778C75.608 38.0221 77.054 39.1004 77.9114 40.7966C78.9587 42.8702 78.3798 44.8376 76.3447 46.1484C76.1549 46.2705 75.9377 46.3669 75.7805 46.5197C75.684 46.6136 75.6259 46.8014 75.6495 46.9309C75.6629 47.0063 75.8706 47.1008 75.9901 47.0996C76.6591 47.0947 77.2016 46.7578 77.7223 46.4117C79.0271 45.5446 79.9791 44.378 80.1842 42.8419L80.2245 42.7266L80.1753 41.7263C80.1555 41.6686 80.19 41.6115 80.1855 41.5679C79.9082 39.3311 78.6641 37.5962 76.8546 36.2363C74.7588 34.6623 72.2841 34.0142 69.6669 33.9117C67.534 33.8283 65.4376 34.1327 63.4274 34.8341C62.8543 35.0335 62.2862 35.2698 61.7099 35.4926C61.6326 35.3582 61.5495 35.2293 61.4811 35.0961C60.8894 33.9326 60.1725 32.8206 60.0141 31.4865C59.9016 30.539 59.7636 29.5927 59.9981 28.6556C60.2236 27.7541 60.5176 26.868 60.7942 25.9788C60.9367 25.521 60.8364 25.2644 60.3815 25.0582C60.223 24.9864 60.0505 24.9238 59.8792 24.8999C58.7611 24.744 57.6582 24.833 56.5752 25.1356C56.1918 25.243 55.9132 25.4492 55.8282 25.8566C55.7796 26.0904 55.6806 26.3144 55.6116 26.5452C55.3285 27.5043 55.1279 28.4819 54.6704 29.3957C53.5241 31.6878 52.2155 33.8933 50.8762 36.0829C50.7312 36.3192 50.5785 36.5511 50.3957 36.8377C49.9255 35.8927 49.4239 35.0446 49.2718 34.0504C49.0999 32.9262 48.9645 31.8038 49.2558 30.6881C49.4724 29.856 49.7555 29.0392 50.0162 28.2181C50.1395 27.8278 50.0826 27.6228 49.7146 27.4172C49.5287 27.3135 49.3184 27.2214 49.1089 27.1914C47.9491 27.0263 46.8067 27.1128 45.6878 27.4602C45.3409 27.5682 45.1588 27.7836 45.0527 28.1272C44.7409 29.141 44.4751 30.1794 44.0374 31.1434C42.2649 35.0464 40.4413 38.9291 38.6196 42.8112C38.2394 43.6219 37.7941 44.4044 37.3653 45.1935C37.2567 45.3936 37.0983 45.5697 36.9628 45.7575C36.8542 45.6342 36.812 45.5495 36.8126 45.4648C36.8158 44.9659 36.7538 44.4522 36.8529 43.9699C37.1526 42.5105 37.4976 41.0592 37.8612 39.6134C38.1615 38.4192 38.511 37.236 38.8439 36.0498C38.9557 35.6527 38.9576 35.2815 38.6605 34.9476C38.1615 34.3886 37.1187 34.2658 36.5002 34.6966L36.2267 34.8451L36.2797 34.4217C36.4101 33.5141 36.4363 32.6095 36.1769 31.7154C35.8535 30.601 35.0255 29.9597 33.8216 29.9953C33.2606 30.0118 32.6715 30.1039 32.152 30.3003C29.9674 31.1226 28.2876 32.5788 26.8576 34.3309C26.7279 34.4898 26.5566 34.6346 26.3739 34.7322C24.5254 35.7165 22.6711 36.6886 20.8174 37.6644L18.7542 38.75C18.2009 38.2431 17.698 37.7171 17.1274 37.271C15.385 35.9062 13.6144 34.5751 11.8598 33.2256C10.3046 32.0296 8.7979 30.7838 7.64521 29.1999C6.78772 28.0217 6.23501 26.7323 6.18198 25.2755C6.11489 23.4191 6.66312 21.7229 7.64712 20.1439C8.90588 18.1237 10.6228 16.5024 12.5103 15.0339C14.507 13.4813 16.6667 12.1631 18.905 10.9597C22.0366 9.27636 25.2576 7.78635 28.7112 6.80263C32.2523 5.79375 35.8452 5.21628 39.5512 5.61885C41.0081 5.77718 42.4227 6.09752 43.7218 6.78177C44.7166 7.30523 45.5326 7.99071 45.9121 9.06218C46.2866 10.1165 46.2751 11.1849 46.0156 12.2557C45.4885 14.4245 44.2521 16.2121 42.6962 17.8095C40.1442 20.4281 37.0312 22.2108 33.5264 23.3884C31.5041 24.0678 29.4237 24.4943 27.287 24.6667C25.5432 24.8072 23.8359 24.6587 22.1848 24.0764C21.0916 23.6904 20.1395 23.1 19.374 22.2433C19.2373 22.0899 19.0622 21.9236 18.8073 22.0672C18.5574 22.2083 18.5133 22.4366 18.597 22.668C18.737 23.0521 18.8661 23.4523 19.0839 23.7959C19.6315 24.6581 20.4302 25.2835 21.3095 25.8198C22.9982 26.8514 24.8857 27.1981 26.8429 27.2785C29.8128 27.4019 32.7105 26.976 35.5673 26.2107C39.6458 25.1184 43.1921 23.189 46.0361 20.1452C48.4041 17.6107 50.0954 14.7503 50.4577 11.2966C50.6347 9.61081 50.4462 7.95941 49.6245 6.42154C48.7332 4.75541 47.3159 3.5164 45.6214 2.66278C43.1537 1.42009 40.4905 0.696564 37.7417 0.696564H34.9878C31.6588 0.696564 28.4403 1.61278 25.3119 2.70574C22.9439 3.53358 20.6219 4.51055 18.3677 5.59185C13.4585 7.94775 8.88671 10.7885 5.13152 14.6945C3.26063 16.6405 1.67664 18.7877 0.765479 21.316C0.499031 22.0561 0.246001 22.8496 0.0555899 23.6149M17.8437 45.7152C17.6309 48.4515 16.3396 50.67 14.2291 52.4668C13.0419 53.4769 11.6803 54.1962 10.0944 54.449C9.51929 54.5404 8.9308 54.5625 8.37298 54.3336C7.57747 54.0071 7.3992 53.329 7.38387 52.6067C7.36023 51.4555 7.78003 50.4147 8.35573 49.4242C9.10715 48.133 10.2087 47.1487 11.3851 46.2294C13.2381 44.7805 15.2482 43.5544 17.307 42.397L17.4622 42.3357C17.7805 43.4648 17.9319 44.5799 17.8437 45.7152ZM33.9188 33.8228C33.7686 34.6966 33.5808 35.5711 33.3149 36.418C32.3961 39.3495 31.2159 42.1902 29.9399 44.9929C29.7042 45.5114 29.361 45.9846 29.0626 46.4761C29.0166 46.5522 28.9483 46.6179 28.8818 46.6811C28.5125 47.0315 28.1623 47.0131 27.9758 46.5547C27.7585 46.022 27.625 45.4519 27.51 44.8879C27.4326 44.5093 27.4512 44.1116 27.4269 43.7238C27.4518 40.9659 28.3278 38.4597 29.8141 36.1265C30.4268 35.1642 31.0939 34.2474 32.1131 33.6386C32.4261 33.4515 32.7776 33.3011 33.1322 33.2054C33.6753 33.0587 34.0089 33.2999 33.9188 33.8228ZM44.8859 47.2426L48.8277 42.8223C48.9919 44.4639 46.0866 47.7409 44.8859 47.2426ZM57.4755 44.2681C57.1969 44.4215 56.8934 44.532 56.6077 44.6738C56.3464 44.8039 56.2601 44.6725 56.2525 44.4565C56.2474 44.3098 56.2697 44.1564 56.3119 44.0141C56.8442 42.2111 57.8237 40.672 59.2812 39.4201L59.3834 39.3698C60.0767 41.2323 59.2754 43.2776 57.4755 44.2681Z" fill="white"/>
</svg>
