<svg width="67" height="39" viewBox="0 0 67 39" fill="none" xmlns="http://www.w3.org/2000/svg">
<path d="M33.3333 0.379944C24.4444 0.379944 18.8889 4.64849 16.6667 13.1856C20 8.91703 23.8889 7.31633 28.3333 8.38346C30.8691 8.99232 32.6816 10.7591 34.6878 12.715C37.9559 15.901 41.7384 19.5884 50 19.5884C58.8889 19.5884 64.4444 15.3198 66.6667 6.78276C63.3333 11.0513 59.4444 12.652 55 11.5849C52.4642 10.976 50.6517 9.20919 48.6456 7.25336C45.3774 4.06737 41.5949 0.379944 33.3333 0.379944ZM16.6667 19.5884C7.77778 19.5884 2.22222 23.8569 0 32.394C3.33333 28.1255 7.22222 26.5248 11.6667 27.5919C14.2025 28.2008 16.0149 29.9676 18.0211 31.9234C21.2893 35.1094 25.0717 38.7968 33.3333 38.7968C42.2222 38.7968 47.7778 34.5283 50 25.9912C46.6667 30.2597 42.7778 31.8604 38.3333 30.7933C35.7975 30.1844 33.9851 28.4176 31.9789 26.4618C28.7107 23.2758 24.9283 19.5884 16.6667 19.5884Z" fill="url(#paint0_linear_25_69)"/>
<defs>
<linearGradient id="paint0_linear_25_69" x1="-474.074" y1="1893.56" x2="15714.9" y2="7740.06" gradientUnits="userSpaceOnUse">
<stop stop-color="white"/>
<stop offset="1" stop-color="#0ED7B5"/>
</linearGradient>
</defs>
</svg>
