<svg width="60" height="59" viewBox="0 0 60 59" fill="none" xmlns="http://www.w3.org/2000/svg">
<path d="M57.1886 0.601578H2.81143C1.25872 0.601578 0 1.81048 0 3.30174V55.5267C0 57.018 1.25872 58.2269 2.81143 58.2269H57.1886C58.7413 58.2269 60 57.018 60 55.5267V3.30174C60 1.81048 58.7413 0.601578 57.1886 0.601578Z" fill="white"/>
<path fill-rule="evenodd" clip-rule="evenodd" d="M34.8106 45.3827V51.6967C36.0051 52.263 37.2781 52.6615 38.5906 52.8801C40.1073 53.149 41.6469 53.2813 43.1892 53.2753C44.6924 53.2821 46.1921 53.1366 47.6635 52.841C48.9845 52.5846 50.2449 52.0962 51.3813 51.4004C52.4363 50.7463 53.3059 49.8511 53.912 48.7949C54.9977 46.6079 55.1409 44.0978 54.3106 41.8099C53.9602 40.9543 53.4382 40.1732 52.7742 39.511C52.0614 38.8069 51.2518 38.1996 50.3678 37.7061C49.35 37.1336 48.2925 36.6289 47.2028 36.1955C46.3456 35.8539 45.5742 35.5219 44.8885 35.1994C44.2794 34.9194 43.6966 34.5896 43.1463 34.2136C42.7154 33.9235 42.3411 33.5626 42.0406 33.1476C41.781 32.7707 41.6459 32.3275 41.6528 31.8757C41.647 31.4599 41.7677 31.0515 41.9999 30.7005C42.2521 30.3332 42.5886 30.0263 42.9835 29.8032C43.4662 29.5303 43.9915 29.3336 44.5392 29.2208C45.2116 29.0773 45.899 29.0083 46.5878 29.015C47.1671 29.0169 47.7455 29.0568 48.3192 29.1344C48.9387 29.2148 49.5516 29.3365 50.1535 29.4986C50.7657 29.6616 51.3645 29.868 51.9449 30.1161C52.5081 30.3572 53.0469 30.6479 53.5542 30.9846V25.0924C52.498 24.7086 51.4027 24.4327 50.2863 24.2691C48.9383 24.0808 47.5771 23.992 46.2149 24.0037C44.7259 23.996 43.2412 24.1583 41.792 24.4873C40.4822 24.7748 39.2368 25.2857 38.1149 25.9958C37.0728 26.6626 36.2123 27.5596 35.6056 28.6116C34.9627 29.7799 34.6446 31.0878 34.682 32.4087C34.6346 34.1556 35.2336 35.862 36.3728 37.2246C37.7703 38.7353 39.5326 39.8936 41.5049 40.5977C42.4049 40.9544 43.2442 41.3036 44.0228 41.6452C44.7252 41.9454 45.4004 42.3013 46.0413 42.7092C46.5583 43.0322 47.0123 43.4397 47.3828 43.9132C47.7085 44.3427 47.8814 44.8616 47.8756 45.3929C47.8786 45.7911 47.7721 46.183 47.567 46.529C47.3392 46.9008 47.0189 47.2126 46.6349 47.4366C46.1544 47.7179 45.6287 47.921 45.0792 48.0375C44.3633 48.1912 43.6312 48.2638 42.8978 48.2536C41.4584 48.2511 40.0306 48.0073 38.6785 47.5333C37.2659 47.0438 35.956 46.3154 34.8106 45.3827ZM23.7663 29.6633H32.3378V24.4626H8.43848V29.6633H16.9713V52.8246H23.7663V29.6633Z" fill="#3A86FF"/>
</svg>
