<svg width="407" height="398" viewBox="0 0 407 398" fill="none" xmlns="http://www.w3.org/2000/svg">
<path d="M158.033 396.985C132.47 392.194 106.827 364.548 96.6722 330.831C92.2084 316.01 90.4836 273.327 93.54 253.32C98.3484 221.844 109.626 188.242 124.547 160.933C131.23 148.7 137.538 139.69 137.666 142.195C137.701 142.882 134.659 149.169 130.907 156.166C123.566 169.853 119.364 181.382 124.174 174.637C125.572 172.675 131.961 163.657 138.37 154.595C153.427 133.307 171.947 116.3 188.674 108.401C220.588 93.3311 254.336 105.498 271.579 138.291C286.531 166.726 291.958 212.74 285.004 252.104C273.875 315.093 237.542 372.309 197.173 390.416C180.997 397.671 170.814 399.38 158.033 396.985ZM193.267 379.178L198.802 375.708L186.788 374.599C166.29 372.706 153.963 363.981 143.554 343.996C136.167 329.811 135.655 321.889 142.894 333.751C154.347 352.52 171.677 363.195 187.489 361.222C199.973 359.664 210.015 354.266 222.831 342.224C242.978 323.295 258.098 290.941 264.99 252.013C268.982 229.463 268.121 183.846 263.439 169.82C260.732 161.71 260.633 162.286 260.423 187.517C260.303 201.861 259.361 216.112 258.329 219.186C256.923 223.378 256.449 219.423 256.434 203.351C256.404 170.419 249.109 147.385 234.374 133.677C224.524 124.513 214.675 122.212 201.062 125.894C179.218 131.801 162.25 148.668 144.691 181.929C113.856 240.339 107.98 315.039 131.111 354.577C145.101 378.491 175.299 390.443 193.267 379.178Z" fill="#0C0D11"/>
<path d="M7 298.25H93C96.7279 298.25 99.75 301.272 99.75 305V348.96C99.75 351.106 98.7293 353.125 97.0006 354.397L77.0587 369.071C74.7284 370.786 73.6407 373.722 74.2913 376.541L77.2778 389.482C78.2539 393.712 75.0415 397.75 70.7006 397.75H7C3.27208 397.75 0.25 394.728 0.25 391V305C0.25 301.272 3.27208 298.25 7 298.25Z" fill="#0F1215" stroke="#0D1117" stroke-width="0.5"/>
<path d="M26 199.25H112C115.728 199.25 118.75 202.272 118.75 206V226.724C118.75 228.997 117.606 231.117 115.707 232.365L91.846 248.045C87.7505 250.736 87.4495 256.631 91.2497 259.726L116.262 280.093C117.836 281.375 118.75 283.297 118.75 285.327V292C118.75 295.728 115.728 298.75 112 298.75H26C22.2721 298.75 19.25 295.728 19.25 292V206C19.25 202.272 22.2721 199.25 26 199.25Z" fill="#0F1215" stroke="#0D1117" stroke-width="0.5"/>
<path d="M264 198.25H350C353.728 198.25 356.75 201.272 356.75 205V291C356.75 294.728 353.728 297.75 350 297.75H297.146C292.853 297.75 289.65 293.795 290.544 289.595L296.313 262.478C297.453 257.121 292.47 252.483 287.208 254.005L265.875 260.173C261.558 261.422 257.25 258.183 257.25 253.689V205C257.25 201.272 260.272 198.25 264 198.25Z" fill="#0F1215" stroke="#0D1117" stroke-width="0.5"/>
<path d="M245 99.25H331C334.728 99.25 337.75 102.272 337.75 106V192C337.75 195.728 334.728 198.75 331 198.75H270.765C266.435 198.75 263.225 194.73 264.183 190.507L272.147 155.391C272.828 152.39 271.54 149.287 268.935 147.649L241.408 130.347C239.443 129.112 238.25 126.953 238.25 124.632V106C238.25 102.272 241.272 99.25 245 99.25Z" fill="#0F1215" stroke="#0D1117" stroke-width="0.5"/>
<path d="M62 100.25H148C151.728 100.25 154.75 103.272 154.75 107V133.101C154.75 134.891 154.039 136.608 152.773 137.873L135.757 154.889C134.168 156.479 133.405 158.716 133.694 160.946L137.73 192.134C138.253 196.172 135.108 199.75 131.036 199.75H62C58.2721 199.75 55.25 196.728 55.25 193V107C55.25 103.272 58.2721 100.25 62 100.25Z" fill="#0F1215" stroke="#0D1117" stroke-width="0.5"/>
<path d="M120 0.25H206C209.728 0.25 212.75 3.27208 212.75 7V75.9958C212.75 76.6381 212.658 77.277 212.478 77.8934L201.732 114.576C200.258 119.609 193.858 121.111 190.298 117.261L176.262 102.078C174.89 100.594 172.96 99.75 170.938 99.75H120C116.272 99.75 113.25 96.7279 113.25 93V7C113.25 3.27208 116.272 0.25 120 0.25Z" fill="#0F1215" stroke="#0D1117" stroke-width="0.5"/>
<path d="M220 0.25H306C309.728 0.25 312.75 3.27208 312.75 7V93C312.75 96.7279 309.728 99.75 306 99.75H248.932C244.29 99.75 241.404 94.7055 243.758 90.704C246.026 86.8487 243.815 81.908 239.429 81.0308L218.676 76.8803C215.521 76.2493 213.25 73.479 213.25 70.2614V7C213.25 3.27208 216.272 0.25 220 0.25Z" fill="#0F1215" stroke="#0D1117" stroke-width="0.5"/>
<path d="M314 298.25H375.673C377.422 298.25 379.102 298.928 380.36 300.143L404.687 323.616C406.005 324.888 406.75 326.641 406.75 328.473V391C406.75 394.728 403.728 397.75 400 397.75H307H288.567C283.083 397.75 279.888 391.557 283.066 387.088L305.908 354.966C306.781 353.739 307.25 352.271 307.25 350.765V305C307.25 301.272 310.272 298.25 314 298.25Z" fill="#0F1215" stroke="#0D1117" stroke-width="0.5"/>
</svg>
