<svg width="20" height="12" viewBox="0 0 20 12" fill="none" xmlns="http://www.w3.org/2000/svg">
<path d="M19.957 10.6163C19.9578 10.7983 19.9244 10.9786 19.8587 11.1466C19.7931 11.3147 19.6965 11.4671 19.5746 11.595C19.3302 11.8543 18.9988 12 18.6534 12C18.3079 12 17.9765 11.8543 17.7321 11.595L9.96225 3.341L2.1924 11.595C1.94527 11.8396 1.61841 11.9728 1.28067 11.9665C0.942929 11.9601 0.620689 11.8148 0.381835 11.561C0.14298 11.3073 0.0061621 10.965 0.000203106 10.6062C-0.00575589 10.2474 0.11961 9.90019 0.349889 9.63766L9.04099 0.405019C9.28543 0.145673 9.61678 0 9.96225 0C10.3077 0 10.6391 0.145673 10.8835 0.405019L19.5746 9.63766C19.6965 9.76552 19.7931 9.91795 19.8587 10.086C19.9244 10.2541 19.9578 10.4344 19.957 10.6163Z" fill="white"/>
</svg>
