<svg width="131" height="53" viewBox="0 0 131 53" fill="none" xmlns="http://www.w3.org/2000/svg">
<path d="M130.078 37.0162C131.099 36.0867 131.174 34.5055 130.244 33.4845L115.096 16.8472C114.167 15.8262 112.586 15.7521 111.565 16.6816C110.544 17.6112 110.47 19.1923 111.399 20.2133L124.864 35.0021L110.075 48.4666C109.054 49.3961 108.98 50.9773 109.909 51.9982C110.839 53.0192 112.42 53.0933 113.441 52.1637L130.078 37.0162ZM0.898671 5.24434L29.2775 19.1702L31.4801 14.6815L3.10133 0.755657L0.898671 5.24434ZM95.2241 36.1155L128.278 37.6649L128.512 32.6703L95.4582 31.121L95.2241 36.1155ZM29.2775 19.1702C49.8677 29.2741 72.3136 35.0417 95.2241 36.1155L95.4582 31.121C73.2316 30.0792 51.4557 24.4838 31.4801 14.6815L29.2775 19.1702Z" fill="white"/>
</svg>
