<svg width="133" height="60" viewBox="0 0 133 60" fill="none" xmlns="http://www.w3.org/2000/svg">
<path d="M0.933884 39.9987C0.0146879 41.0289 0.104706 42.6093 1.13496 43.5285L17.9239 58.5078C18.9542 59.427 20.5345 59.337 21.4537 58.3068C22.3729 57.2765 22.2829 55.6962 21.2526 54.777L6.32914 41.462L19.6441 26.5385C20.5633 25.5082 20.4733 23.9279 19.4431 23.0087C18.4128 22.0894 16.8325 22.1795 15.9132 23.2097L0.933884 39.9987ZM35.3174 39.8107L35.1752 37.3148L35.3174 39.8107ZM129.574 0.946495L118.616 8.5556L121.467 12.6626L132.426 5.0535L129.574 0.946495ZM35.1752 37.3148L2.65716 39.1671L2.9415 44.159L35.4596 42.3067L35.1752 37.3148ZM118.616 8.5556C93.988 25.6561 65.1093 35.6097 35.1752 37.3148L35.4596 42.3067C66.3147 40.5491 96.082 30.2893 121.467 12.6626L118.616 8.5556Z" fill="white"/>
</svg>
