<svg width="245" height="57" viewBox="0 0 245 57" fill="none" xmlns="http://www.w3.org/2000/svg">
<path d="M239.337 37.6377C241.346 38.5564 243.719 37.6725 244.638 35.6634C245.556 33.6543 244.672 31.2809 242.663 30.3623L239.337 37.6377ZM0.353582 36.3891C-0.554457 38.403 0.342003 40.7717 2.35589 41.6797L35.1741 56.4772C37.188 57.3852 39.5567 56.4888 40.4647 54.4749C41.3728 52.461 40.4763 50.0923 38.4624 49.1842L9.29069 36.0309L22.444 6.85919C23.352 4.8453 22.4556 2.47661 20.4417 1.56856C18.4278 0.660514 16.0591 1.55697 15.151 3.57086L0.353582 36.3891ZM59.946 16.8598L58.5696 13.1041L58.5498 13.1113L58.5301 13.1188L59.946 16.8598ZM242.663 30.3623L218.497 19.3117L215.17 26.5872L239.337 37.6377L242.663 30.3623ZM58.5301 13.1188L2.58421 34.2922L5.4159 41.7743L61.3618 20.6008L58.5301 13.1188ZM218.497 19.3117C168.086 -3.73934 110.616 -5.97006 58.5696 13.1041L61.3224 20.6155C111.39 2.2665 166.675 4.41241 215.17 26.5872L218.497 19.3117Z" fill="#3A86FF"/>
</svg>
