<svg width="252" height="61" viewBox="0 0 252 61" fill="none" xmlns="http://www.w3.org/2000/svg">
<path d="M249.555 7.96083C251.583 7.08416 252.516 4.72966 251.639 2.70192C250.763 0.67418 248.408 -0.258942 246.38 0.617734L249.555 7.96083ZM2.21649 20.5078C0.239108 21.4928 -0.565359 23.8943 0.419652 25.8717L16.4714 58.095C17.4565 60.0723 19.8579 60.8768 21.8353 59.8918C23.8127 58.9068 24.6172 56.5053 23.6322 54.5279L9.36392 25.885L38.0068 11.6167C39.9842 10.6317 40.7887 8.23021 39.8037 6.25283C38.8187 4.27545 36.4172 3.47098 34.4398 4.456L2.21649 20.5078ZM65.8346 42.6956L66.4326 38.7405L65.8346 42.6956ZM246.38 0.617734L197.541 21.733L200.716 29.0761L249.555 7.96083L246.38 0.617734ZM44.6527 33.4878L5.27058 20.2953L2.72947 27.881L42.1116 41.0735L44.6527 33.4878ZM66.4326 38.7405C59.0346 37.6219 51.7473 35.8644 44.6527 33.4878L42.1116 41.0735C49.6444 43.5969 57.3816 45.4629 65.2365 46.6506L66.4326 38.7405ZM197.541 21.733C156.293 39.5664 110.866 45.4592 66.4326 38.7405L65.2365 46.6506C111.151 53.5933 158.092 47.504 200.716 29.0761L197.541 21.733Z" fill="#3A86FF"/>
</svg>
