<svg width="251" height="130" viewBox="0 0 251 130" fill="none" xmlns="http://www.w3.org/2000/svg">
<path d="M0.756006 109.326C-0.220305 110.302 -0.220301 111.885 0.756015 112.861L16.6659 128.771C17.6422 129.747 19.2251 129.747 20.2015 128.771C21.1778 127.795 21.1778 126.212 20.2014 125.236L6.05933 111.093L20.2014 96.9513C21.1778 95.975 21.1778 94.3921 20.2015 93.4158C19.2251 92.4395 17.6422 92.4394 16.6659 93.4158L0.756006 109.326ZM246.306 9.18845L248.721 9.8355L246.306 9.18845ZM113.5 111.093L113.5 108.593L113.5 108.593L113.5 111.093ZM246.085 0.352808L243.891 8.54139L248.721 9.8355L250.915 1.64691L246.085 0.352808ZM113.5 108.593L2.52378 108.593L2.52379 113.593L113.5 113.593L113.5 108.593ZM243.891 8.54139C228.078 67.5569 174.597 108.594 113.5 108.593L113.5 113.593C176.86 113.594 232.321 71.037 248.721 9.8355L243.891 8.54139Z" fill="white"/>
</svg>
