<svg width="126" height="131" viewBox="0 0 126 131" fill="none" xmlns="http://www.w3.org/2000/svg">
<path d="M76.4121 50.7138C76.4121 78.328 78.5263 100.714 50.9121 100.714C23.2978 100.714 0.912079 78.328 0.912079 50.7138C0.912079 23.0996 23.2978 0.713806 50.9121 0.713806C78.5263 0.713806 76.4121 23.0996 76.4121 50.7138Z" fill="#3A86FF"/>
<g clip-path="url(#clip0_39_609)">
<path d="M59.9121 50.3172V51.1105C59.9104 51.8657 59.6062 52.5646 59.1105 52.9522L39.7188 67.7138C38.5488 68.6205 37.9421 68.6205 37.4221 68.2238L36.8805 67.8272C36.3977 67.4502 36.0954 66.7771 36.0788 66.0422V35.3855C36.0805 34.6302 36.3848 33.9314 36.8805 33.5438L37.4221 33.1472C37.9421 32.7505 38.5488 32.7505 40.0655 33.9122L59.1105 48.4755C59.6062 48.863 59.9104 49.5619 59.9121 50.3172Z" fill="white"/>
</g>
<path d="M77.5429 100.057L69.1633 97.7468C66.2122 96.9332 63.2467 98.7633 62.6409 101.772C62.0933 104.491 63.6764 107.238 66.3017 108.124L94.7708 117.735C96.5823 118.347 98.5417 118.177 100.189 117.264C103.421 115.472 108.735 112.527 113.996 109.611C121.146 105.647 122.515 96.8759 119.118 90.7468C119.118 90.7468 107.47 69.7328 104.557 64.4792" stroke="white" stroke-width="5" stroke-linecap="round" stroke-linejoin="round"/>
<path d="M96.5903 71.1844C96.5903 71.1844 96.3778 70.801 95.6196 69.4332C91.7369 62.4285 100.675 57.4743 104.557 64.479" stroke="white" stroke-width="5" stroke-linecap="round" stroke-linejoin="round"/>
<path d="M87.6527 76.1387C87.6527 76.1387 86.2569 73.6207 84.7406 70.8852C80.8579 63.8805 89.7955 58.9262 93.6783 65.931C94.0574 66.6148 95.2406 68.7494 95.6197 69.4333C96.3779 70.8011 96.5904 71.1845 96.5904 71.1845" stroke="white" stroke-width="5" stroke-linecap="round" stroke-linejoin="round"/>
<path d="M78.7152 81.0933C78.7152 81.0933 76.3638 76.8512 74.4684 73.4317C70.5856 66.427 79.5233 61.4728 83.406 68.4775C83.406 68.4775 84.3617 70.2015 84.7407 70.8854C86.257 73.6209 87.6529 76.1391 87.6529 76.1391" stroke="white" stroke-width="5" stroke-linecap="round" stroke-linejoin="round"/>
<path d="M77.5429 100.057L58.7358 66.1276C57.3285 63.5888 58.1884 60.4217 60.6565 59.0536C63.1245 57.6856 66.2644 58.6315 67.6717 61.1703C69.6944 64.8192 72.5004 69.8815 74.4683 73.4316C76.3637 76.851 78.7151 81.093 78.7151 81.093" stroke="white" stroke-width="5" stroke-linecap="round" stroke-linejoin="round"/>
<defs>
<clipPath id="clip0_39_609">
<rect width="52" height="68" fill="white" transform="translate(20.9121 16.7138)"/>
</clipPath>
</defs>
</svg>
