<svg width="119" height="108" viewBox="0 0 119 108" fill="none" xmlns="http://www.w3.org/2000/svg">
<path d="M0 0H91V48C91 61.8071 79.8071 73 66 73H25C11.1929 73 0 61.8071 0 48V0Z" fill="#3A86FF"/>
<path d="M40.3333 36.5878L31.3601 39.5825C30.691 39.8058 30 39.3071 30 38.6009V13.1941C30 12.7488 30.2846 12.3535 30.7066 12.2127L40.3333 9M40.3333 36.5878L50.6667 40.0363M40.3333 36.5878V9M40.3333 9L50.6667 12.4485M50.6667 40.0363L60.2934 36.8237C60.7153 36.6828 61 36.2875 61 35.8421V10.4354C61 9.72922 60.309 9.2306 59.64 9.45391L50.6667 12.4485M50.6667 40.0363V12.4485" stroke="white" stroke-width="5" stroke-linecap="round" stroke-linejoin="round"/>
<path d="M75.0857 79.7897L68.6171 73.9836C66.3391 71.9388 62.8685 72.2534 60.9839 74.6757C59.2807 76.8646 59.4718 80.0292 61.4259 81.9939L82.6154 103.298C83.9638 104.653 85.7928 105.376 87.6741 105.294C91.3664 105.133 97.4368 104.868 103.446 104.605C111.613 104.249 116.752 97.0098 116.446 90.0087C116.446 90.0087 115.398 66.0051 115.136 60.0041" stroke="white" stroke-width="5" stroke-linecap="round" stroke-linejoin="round"/>
<path d="M105.015 62.45C105.015 62.45 104.995 62.012 104.927 60.4497C104.578 52.4484 114.787 52.0026 115.136 60.0039" stroke="white" stroke-width="5" stroke-linecap="round" stroke-linejoin="round"/>
<path d="M94.8054 62.8958C94.8054 62.8958 94.6798 60.0195 94.5433 56.8949C94.194 48.8936 104.403 48.4479 104.753 56.4491C104.787 57.2303 104.893 59.6686 104.927 60.4497C104.995 62.0121 105.015 62.45 105.015 62.45" stroke="white" stroke-width="5" stroke-linecap="round" stroke-linejoin="round"/>
<path d="M84.5962 63.3419C84.5962 63.3419 84.3846 58.4963 84.2141 54.5904C83.8647 46.5892 94.0739 46.1434 94.4233 54.1447C94.4233 54.1447 94.5092 56.1139 94.5433 56.8951C94.6798 60.0198 94.8054 62.8962 94.8054 62.8962" stroke="white" stroke-width="5" stroke-linecap="round" stroke-linejoin="round"/>
<path d="M75.0856 79.7898L73.3935 41.0338C73.2669 38.1339 75.4496 35.6832 78.2688 35.5601C81.0879 35.437 83.4759 37.6846 83.6025 40.5845C83.7845 44.7526 84.037 50.5351 84.214 54.5902C84.3846 58.4961 84.5961 63.3416 84.5961 63.3416" stroke="white" stroke-width="5" stroke-linecap="round" stroke-linejoin="round"/>
<path d="M28.3562 62H24.6962C23.4462 62 22.5162 61.75 21.9062 61.25C21.3062 60.75 21.0062 59.98 21.0062 58.94V54.275C21.0062 53.235 21.3062 52.465 21.9062 51.965C22.5162 51.455 23.4462 51.2 24.6962 51.2H28.3562C28.5462 51.2 28.6812 51.245 28.7612 51.335C28.8512 51.415 28.8962 51.55 28.8962 51.74V53.555C28.8962 53.745 28.8512 53.885 28.7612 53.975C28.6812 54.055 28.5462 54.095 28.3562 54.095H25.3412C25.0312 54.095 24.8012 54.16 24.6512 54.29C24.5012 54.41 24.4262 54.595 24.4262 54.845V58.415C24.4262 58.665 24.5012 58.85 24.6512 58.97C24.8012 59.08 25.0312 59.135 25.3412 59.135H28.3562C28.5462 59.135 28.6812 59.18 28.7612 59.27C28.8512 59.35 28.8962 59.485 28.8962 59.675V61.46C28.8962 61.65 28.8512 61.79 28.7612 61.88C28.6812 61.96 28.5462 62 28.3562 62ZM34.5052 54.35L33.8002 56.63H36.1552L35.4502 54.35C35.4102 54.26 35.3652 54.195 35.3152 54.155C35.2752 54.115 35.2252 54.095 35.1652 54.095H34.7902C34.7302 54.095 34.6752 54.115 34.6252 54.155C34.5852 54.195 34.5452 54.26 34.5052 54.35ZM33.6502 61.46C33.6502 61.65 33.6052 61.79 33.5152 61.88C33.4352 61.96 33.3002 62 33.1102 62H30.9052C30.7152 62 30.5752 61.96 30.4852 61.88C30.4052 61.79 30.3652 61.65 30.3652 61.46V57.5C30.3652 57.2 30.4102 56.855 30.5002 56.465C30.6002 56.075 30.7502 55.62 30.9502 55.1L32.2552 51.695C32.3152 51.525 32.4052 51.4 32.5252 51.32C32.6552 51.24 32.8202 51.2 33.0202 51.2H37.0552C37.2452 51.2 37.4002 51.24 37.5202 51.32C37.6502 51.4 37.7452 51.525 37.8052 51.695L39.1102 55.1C39.3102 55.62 39.4552 56.075 39.5452 56.465C39.6452 56.855 39.6952 57.2 39.6952 57.5V61.46C39.6952 61.65 39.6502 61.79 39.5602 61.88C39.4802 61.96 39.3452 62 39.1552 62H36.8902C36.6902 62 36.5402 61.96 36.4402 61.88C36.3502 61.79 36.3052 61.65 36.3052 61.46V59.36H33.6502V61.46ZM44.9372 53.9V55.82H46.0622C46.3222 55.82 46.4972 55.755 46.5872 55.625C46.6772 55.485 46.7222 55.315 46.7222 55.115V54.605C46.7222 54.405 46.6772 54.24 46.5872 54.11C46.4972 53.97 46.3222 53.9 46.0622 53.9H44.9372ZM44.3972 62H42.0872C41.8972 62 41.7572 61.96 41.6672 61.88C41.5872 61.79 41.5472 61.65 41.5472 61.46V51.74C41.5472 51.55 41.5872 51.415 41.6672 51.335C41.7572 51.245 41.8972 51.2 42.0872 51.2H47.0822C48.2022 51.2 48.9722 51.435 49.3922 51.905C49.8222 52.365 50.0372 52.965 50.0372 53.705V54.395C50.0372 54.815 49.9722 55.175 49.8422 55.475C49.7222 55.765 49.5072 55.975 49.1972 56.105C49.7372 56.165 50.1722 56.385 50.5022 56.765C50.8422 57.145 51.0122 57.65 51.0122 58.28V61.46C51.0122 61.65 50.9672 61.79 50.8772 61.88C50.7972 61.96 50.6622 62 50.4722 62H48.1472C47.9572 62 47.8172 61.96 47.7272 61.88C47.6472 61.79 47.6072 61.65 47.6072 61.46V59.165C47.6072 58.945 47.5622 58.785 47.4722 58.685C47.3922 58.575 47.2472 58.52 47.0372 58.52H44.9372V61.46C44.9372 61.65 44.8922 61.79 44.8022 61.88C44.7222 61.96 44.5872 62 44.3972 62ZM57.3406 62H54.9106C54.7206 62 54.5806 61.96 54.4906 61.88C54.4106 61.79 54.3706 61.65 54.3706 61.46V54.095H52.1656C51.9756 54.095 51.8356 54.055 51.7456 53.975C51.6656 53.885 51.6256 53.745 51.6256 53.555V51.74C51.6256 51.55 51.6656 51.415 51.7456 51.335C51.8356 51.245 51.9756 51.2 52.1656 51.2H60.0856C60.2756 51.2 60.4106 51.245 60.4906 51.335C60.5806 51.415 60.6256 51.55 60.6256 51.74V53.555C60.6256 53.745 60.5806 53.885 60.4906 53.975C60.4106 54.055 60.2756 54.095 60.0856 54.095H57.8806V61.46C57.8806 61.65 57.8356 61.79 57.7456 61.88C57.6656 61.96 57.5306 62 57.3406 62ZM69.5843 62H62.6243C62.4343 62 62.2943 61.96 62.2043 61.88C62.1243 61.79 62.0843 61.65 62.0843 61.46V51.74C62.0843 51.55 62.1243 51.415 62.2043 51.335C62.2943 51.245 62.4343 51.2 62.6243 51.2H69.5843C69.7743 51.2 69.9093 51.245 69.9893 51.335C70.0793 51.415 70.1243 51.55 70.1243 51.74V53.495C70.1243 53.685 70.0793 53.825 69.9893 53.915C69.9093 53.995 69.7743 54.035 69.5843 54.035H65.4443V55.19H68.3693C68.5593 55.19 68.6943 55.235 68.7743 55.325C68.8643 55.405 68.9093 55.54 68.9093 55.73V57.335C68.9093 57.525 68.8643 57.665 68.7743 57.755C68.6943 57.835 68.5593 57.875 68.3693 57.875H65.4443V59.165H69.5843C69.7743 59.165 69.9093 59.21 69.9893 59.3C70.0793 59.38 70.1243 59.515 70.1243 59.705V61.46C70.1243 61.65 70.0793 61.79 69.9893 61.88C69.9093 61.96 69.7743 62 69.5843 62Z" fill="white"/>
</svg>
