<svg width="391" height="167" viewBox="0 0 391 167" fill="none" xmlns="http://www.w3.org/2000/svg">
<rect width="391" height="167" fill="white"/>
<path d="M179.092 86.0194L170.42 87.2034C170.015 87.246 169.716 87.1927 169.524 87.0434C169.353 86.894 169.236 86.6167 169.172 86.2114L168.5 81.9874C168.436 81.582 168.489 81.2727 168.66 81.0594C168.852 80.846 169.151 80.718 169.556 80.6754L175.924 79.7794C176.244 79.7367 176.468 79.6407 176.596 79.4914C176.724 79.342 176.788 79.1074 176.788 78.7874C176.788 78.4887 176.713 78.2647 176.564 78.1154C176.415 77.966 176.201 77.8914 175.924 77.8914H167.092C166.687 77.8914 166.388 77.806 166.196 77.6354C166.025 77.4434 165.94 77.1447 165.94 76.7394V72.8674C165.94 72.462 166.025 72.174 166.196 72.0034C166.388 71.8114 166.687 71.7154 167.092 71.7154H177.428C179.497 71.7154 181.119 72.206 182.292 73.1874C183.465 74.1474 184.052 75.534 184.052 77.3474V80.7074C184.052 82.4994 183.604 83.7794 182.708 84.5474C181.812 85.3154 180.607 85.806 179.092 86.0194ZM175.508 94.7554H169.652C169.247 94.7554 168.948 94.67 168.756 94.4994C168.585 94.3074 168.5 94.0087 168.5 93.6034V89.4114C168.5 89.006 168.585 88.718 168.756 88.5474C168.948 88.3554 169.247 88.2594 169.652 88.2594H175.508C175.913 88.2594 176.201 88.3554 176.372 88.5474C176.564 88.718 176.66 89.006 176.66 89.4114V93.6034C176.66 94.0087 176.564 94.3074 176.372 94.4994C176.201 94.67 175.913 94.7554 175.508 94.7554ZM200.092 86.0194L191.42 87.2034C191.015 87.246 190.716 87.1927 190.524 87.0434C190.353 86.894 190.236 86.6167 190.172 86.2114L189.5 81.9874C189.436 81.582 189.489 81.2727 189.66 81.0594C189.852 80.846 190.151 80.718 190.556 80.6754L196.924 79.7794C197.244 79.7367 197.468 79.6407 197.596 79.4914C197.724 79.342 197.788 79.1074 197.788 78.7874C197.788 78.4887 197.713 78.2647 197.564 78.1154C197.415 77.966 197.201 77.8914 196.924 77.8914H188.092C187.687 77.8914 187.388 77.806 187.196 77.6354C187.025 77.4434 186.94 77.1447 186.94 76.7394V72.8674C186.94 72.462 187.025 72.174 187.196 72.0034C187.388 71.8114 187.687 71.7154 188.092 71.7154H198.428C200.497 71.7154 202.119 72.206 203.292 73.1874C204.465 74.1474 205.052 75.534 205.052 77.3474V80.7074C205.052 82.4994 204.604 83.7794 203.708 84.5474C202.812 85.3154 201.607 85.806 200.092 86.0194ZM196.508 94.7554H190.652C190.247 94.7554 189.948 94.67 189.756 94.4994C189.585 94.3074 189.5 94.0087 189.5 93.6034V89.4114C189.5 89.006 189.585 88.718 189.756 88.5474C189.948 88.3554 190.247 88.2594 190.652 88.2594H196.508C196.913 88.2594 197.201 88.3554 197.372 88.5474C197.564 88.718 197.66 89.006 197.66 89.4114V93.6034C197.66 94.0087 197.564 94.3074 197.372 94.4994C197.201 94.67 196.913 94.7554 196.508 94.7554ZM221.092 86.0194L212.42 87.2034C212.015 87.246 211.716 87.1927 211.524 87.0434C211.353 86.894 211.236 86.6167 211.172 86.2114L210.5 81.9874C210.436 81.582 210.489 81.2727 210.66 81.0594C210.852 80.846 211.151 80.718 211.556 80.6754L217.924 79.7794C218.244 79.7367 218.468 79.6407 218.596 79.4914C218.724 79.342 218.788 79.1074 218.788 78.7874C218.788 78.4887 218.713 78.2647 218.564 78.1154C218.415 77.966 218.201 77.8914 217.924 77.8914H209.092C208.687 77.8914 208.388 77.806 208.196 77.6354C208.025 77.4434 207.94 77.1447 207.94 76.7394V72.8674C207.94 72.462 208.025 72.174 208.196 72.0034C208.388 71.8114 208.687 71.7154 209.092 71.7154H219.428C221.497 71.7154 223.119 72.206 224.292 73.1874C225.465 74.1474 226.052 75.534 226.052 77.3474V80.7074C226.052 82.4994 225.604 83.7794 224.708 84.5474C223.812 85.3154 222.607 85.806 221.092 86.0194ZM217.508 94.7554H211.652C211.247 94.7554 210.948 94.67 210.756 94.4994C210.585 94.3074 210.5 94.0087 210.5 93.6034V89.4114C210.5 89.006 210.585 88.718 210.756 88.5474C210.948 88.3554 211.247 88.2594 211.652 88.2594H217.508C217.913 88.2594 218.201 88.3554 218.372 88.5474C218.564 88.718 218.66 89.006 218.66 89.4114V93.6034C218.66 94.0087 218.564 94.3074 218.372 94.4994C218.201 94.67 217.913 94.7554 217.508 94.7554Z" fill="#4A4E69"/>
</svg>
