<svg width="31" height="31" viewBox="0 0 31 31" fill="none" xmlns="http://www.w3.org/2000/svg">
<path d="M15.307 0C6.86629 0 -0.000976562 6.91108 -0.000976562 15.4057C-0.000976562 23.9003 6.86629 30.8114 15.307 30.8114C23.7478 30.8114 30.6151 23.9003 30.6151 15.4057C30.6151 6.91108 23.7478 0 15.307 0ZM20.8496 19.3082C20.9635 19.4172 21.0546 19.548 21.1176 19.6929C21.1805 19.8378 21.214 19.994 21.216 20.1522C21.218 20.3103 21.1885 20.4673 21.1293 20.6138C21.0701 20.7603 20.9823 20.8934 20.8712 21.0053C20.76 21.1171 20.6278 21.2055 20.4822 21.2651C20.3366 21.3247 20.1806 21.3543 20.0234 21.3523C19.8663 21.3503 19.7111 21.3166 19.5671 21.2533C19.4231 21.1899 19.2931 21.0982 19.1848 20.9836L15.307 17.0818L11.4293 20.9836C11.2066 21.1964 10.9102 21.3133 10.6031 21.3094C10.2961 21.3054 10.0027 21.1809 9.78556 20.9624C9.56842 20.7439 9.44469 20.4486 9.44076 20.1396C9.43683 19.8306 9.553 19.5323 9.76451 19.3082L13.6416 15.4057L9.76451 11.5032C9.553 11.2791 9.43683 10.9808 9.44076 10.6718C9.44469 10.3627 9.56842 10.0675 9.78556 9.84896C10.0027 9.63044 10.2961 9.50592 10.6031 9.50197C10.9102 9.49801 11.2066 9.61493 11.4293 9.82779L15.307 13.7296L19.1848 9.82779C19.4075 9.61493 19.7039 9.49801 20.011 9.50197C20.318 9.50592 20.6114 9.63044 20.8285 9.84896C21.0457 10.0675 21.1694 10.3627 21.1733 10.6718C21.1773 10.9808 21.0611 11.2791 20.8496 11.5032L16.9725 15.4057L20.8496 19.3082Z" fill="#3A86FF"/>
</svg>
