<svg width="4377" height="1016" viewBox="0 0 4377 1016" fill="none" xmlns="http://www.w3.org/2000/svg">
<path d="M6.40898 515.361C3.09527 515.361 0.408636 518.047 0.408216 521.36C0.407795 524.674 3.09375 527.361 6.40745 527.361L6.40898 515.361ZM4376.67 521.364L4316.67 486.723L4316.67 556.005L4376.67 521.364ZM36.4998 521.365L36.499 527.365L36.4997 527.365L36.4998 521.365ZM4287.67 521.364L4286.95 527.322L4287.31 527.364L4287.67 527.364L4287.67 521.364ZM56.8476 521.365L56.8476 515.365L56.8476 521.365ZM120.219 562.128L116.758 567.029L120.219 562.128ZM3672.65 35.4726L3676.53 30.888L3672.65 35.4726ZM2730.19 966.38L2734.78 970.245L2730.19 966.38ZM4213.97 492.48L4217.84 487.895L4213.97 492.48ZM4277.66 520.168L4278.37 514.21L4277.66 520.168ZM1899.25 198.645L1903.85 194.783L1899.25 198.645ZM818.487 945.123L814.639 940.52L818.487 945.123ZM822.336 949.726L1732.89 188.318L1725.19 179.112L814.639 940.52L822.336 949.726ZM1894.66 202.508L2540.46 970.186L2549.65 962.461L1903.85 194.783L1894.66 202.508ZM2734.78 970.245L3506.64 53.8446L3497.46 46.1141L2725.61 962.515L2734.78 970.245ZM6.40745 527.361L36.499 527.365L36.5005 515.365L6.40898 515.361L6.40745 527.361ZM4287.67 527.364L4322.67 527.364L4322.67 515.364L4287.67 515.364L4287.67 527.364ZM3668.78 40.0572L4210.1 497.064L4217.84 487.895L3676.53 30.888L3668.78 40.0572ZM4276.95 526.125L4286.95 527.322L4288.38 515.407L4278.37 514.21L4276.95 526.125ZM116.758 567.029L667.607 956.039L674.53 946.237L123.68 557.227L116.758 567.029ZM36.4997 527.365L56.8476 527.365L56.8476 515.365L36.4998 515.365L36.4997 527.365ZM56.8476 527.365C74.3425 527.365 90.7017 536.03 100.531 550.503L110.458 543.761C98.395 525.999 78.3182 515.365 56.8476 515.365L56.8476 527.365ZM123.68 557.227C118.5 553.568 114.021 549.007 110.458 543.761L100.531 550.503C104.904 556.941 110.4 562.539 116.758 567.029L123.68 557.227ZM3506.64 53.8446C3547.59 5.22709 3620.21 -0.948264 3668.78 40.0572L3676.53 30.888C3622.89 -14.3963 3542.68 -7.57658 3497.46 46.1141L3506.64 53.8446ZM2540.46 970.186C2591.19 1030.49 2684.02 1030.52 2734.78 970.245L2725.61 962.515C2679.64 1017.09 2595.58 1017.07 2549.65 962.461L2540.46 970.186ZM4210.1 497.064C4229.06 513.075 4252.3 523.178 4276.95 526.125L4278.37 514.21C4256.06 511.542 4235.01 502.393 4217.84 487.895L4210.1 497.064ZM1732.89 188.318C1781.51 147.661 1853.86 154.007 1894.66 202.508L1903.85 194.783C1858.79 141.221 1778.89 134.213 1725.19 179.112L1732.89 188.318ZM814.639 940.52C774.634 973.972 717.127 976.319 674.53 946.237L667.607 956.039C714.649 989.26 778.157 986.669 822.336 949.726L814.639 940.52Z" fill="#3A86FF"/>
</svg>
