<svg width="107" height="148" viewBox="0 0 107 148" fill="none" xmlns="http://www.w3.org/2000/svg">
<path d="M6 28.6063C6 22.6107 8.49586 16.8607 12.9385 12.6212C17.3812 8.38172 23.4067 6 29.6896 6H53.3792V51.2126H29.6896C23.4067 51.2126 17.3812 48.8308 12.9385 44.5913C8.49586 40.3518 6 34.6018 6 28.6063Z" stroke="white" stroke-width="11" stroke-linecap="round" stroke-linejoin="round"/>
<path d="M53.3794 6H77.069C80.1802 6 83.2607 6.58475 86.135 7.72079C89.0086 8.85691 91.6199 10.522 93.8199 12.6212C96.0199 14.7205 97.765 17.2125 98.955 19.9552C100.146 22.698 100.759 25.6376 100.759 28.6063C100.759 31.575 100.146 34.5146 98.955 37.2573C97.765 40.0001 96.0199 42.4921 93.8199 44.5913C91.6199 46.6906 89.0086 48.3557 86.135 49.4918C83.2607 50.6278 80.1802 51.2126 77.069 51.2126H53.3794V6Z" stroke="white" stroke-width="11" stroke-linecap="round" stroke-linejoin="round"/>
<path d="M53.3794 73.8189C53.3794 70.8499 53.9922 67.9103 55.183 65.1674C56.373 62.4253 58.1181 59.9333 60.3181 57.8338C62.5181 55.7346 65.1294 54.0695 68.003 52.9334C70.8773 51.7973 73.9578 51.2126 77.069 51.2126C80.1802 51.2126 83.2607 51.7973 86.135 52.9334C89.0086 54.0695 91.6199 55.7346 93.8199 57.8338C96.0199 59.9333 97.765 62.4253 98.955 65.1674C100.146 67.9103 100.759 70.8499 100.759 73.8189C100.759 76.7878 100.146 79.7274 98.955 82.4703C97.765 85.2124 96.0199 87.7044 93.8199 89.8038C91.6199 91.9031 89.0086 93.5685 86.135 94.7041C83.2607 95.8404 80.1802 96.4252 77.069 96.4252C73.9578 96.4252 70.8773 95.8404 68.003 94.7041C65.1294 93.5685 62.5181 91.9031 60.3181 89.8038C58.1181 87.7044 56.373 85.2124 55.183 82.4703C53.9922 79.7274 53.3794 76.7878 53.3794 73.8189Z" stroke="white" stroke-width="11" stroke-linecap="round" stroke-linejoin="round"/>
<path d="M6 119.031C6 113.036 8.49586 107.286 12.9385 103.047C17.3812 98.8071 23.4067 96.4251 29.6896 96.4251H53.3792V119.031C53.3792 125.027 50.8831 130.777 46.4405 135.016C41.9979 139.256 35.9725 141.638 29.6896 141.638C23.4067 141.638 17.3812 139.256 12.9385 135.016C8.49586 130.777 6 125.027 6 119.031Z" stroke="white" stroke-width="11" stroke-linecap="round" stroke-linejoin="round"/>
<path d="M6 73.8189C6 67.8237 8.49586 62.0734 12.9385 57.8338C17.3812 53.5943 23.4067 51.2126 29.6896 51.2126H53.3792V96.4252H29.6896C23.4067 96.4252 17.3812 94.0432 12.9385 89.8038C8.49586 85.5643 6 79.8141 6 73.8189Z" stroke="white" stroke-width="11" stroke-linecap="round" stroke-linejoin="round"/>
</svg>
