<svg width="180" height="260" viewBox="0 0 180 260" fill="none" xmlns="http://www.w3.org/2000/svg">
<path d="M10 49.9396C10 39.347 14.2079 29.1882 21.698 21.698C29.1882 14.2079 39.347 10 49.9396 10H89.8792V89.8792H49.9396C39.347 89.8792 29.1882 85.6713 21.698 78.1812C14.2079 70.691 10 60.5323 10 49.9396Z" stroke="#3A86FF" stroke-width="19" stroke-linecap="round" stroke-linejoin="round"/>
<path d="M89.8792 10H129.819C135.064 10 140.258 11.0331 145.104 13.0402C149.948 15.0474 154.351 17.9893 158.06 21.698C161.769 25.4068 164.711 29.8097 166.718 34.6554C168.725 39.5011 169.758 44.6946 169.758 49.9396C169.758 55.1846 168.725 60.3781 166.718 65.2238C164.711 70.0696 161.769 74.4724 158.06 78.1812C154.351 81.89 149.948 84.8318 145.104 86.839C140.258 88.8461 135.064 89.8792 129.819 89.8792H89.8792V10Z" stroke="#3A86FF" stroke-width="19" stroke-linecap="round" stroke-linejoin="round"/>
<path d="M89.8792 129.819C89.8792 124.573 90.9123 119.38 92.9199 114.534C94.9262 109.689 97.8684 105.287 101.577 101.577C105.287 97.8685 109.689 94.9267 114.534 92.9194C119.38 90.9123 124.573 89.8792 129.819 89.8792C135.064 89.8792 140.258 90.9123 145.104 92.9194C149.948 94.9267 154.351 97.8685 158.06 101.577C161.769 105.287 164.711 109.689 166.718 114.534C168.725 119.38 169.758 124.573 169.758 129.819C169.758 135.064 168.725 140.258 166.718 145.104C164.711 149.948 161.769 154.351 158.06 158.06C154.351 161.769 149.948 164.711 145.104 166.718C140.258 168.725 135.064 169.758 129.819 169.758C124.573 169.758 119.38 168.725 114.534 166.718C109.689 164.711 105.287 161.769 101.577 158.06C97.8684 154.351 94.9262 149.948 92.9199 145.104C90.9123 140.258 89.8792 135.064 89.8792 129.819Z" stroke="#3A86FF" stroke-width="19" stroke-linecap="round" stroke-linejoin="round"/>
<path d="M10 209.698C10 199.106 14.2079 188.947 21.698 181.457C29.1882 173.967 39.347 169.758 49.9396 169.758H89.8792V209.698C89.8792 220.29 85.6709 230.449 78.1809 237.939C70.6909 245.429 60.5323 249.638 49.9396 249.638C39.347 249.638 29.1882 245.429 21.698 237.939C14.2079 230.449 10 220.29 10 209.698Z" stroke="#3A86FF" stroke-width="19" stroke-linecap="round" stroke-linejoin="round"/>
<path d="M10 129.819C10 119.227 14.2079 109.068 21.698 101.577C29.1882 94.0872 39.347 89.8792 49.9396 89.8792H89.8792V169.758H49.9396C39.347 169.758 29.1882 165.55 21.698 158.06C14.2079 150.57 10 140.411 10 129.819Z" stroke="#3A86FF" stroke-width="19" stroke-linecap="round" stroke-linejoin="round"/>
</svg>
