<svg width="45" height="39" viewBox="0 0 45 39" fill="none" xmlns="http://www.w3.org/2000/svg">
<g filter="url(#filter0_d_39_135)">
<path d="M10.1806 3H34.3568C35.7307 3 37.0484 3.56952 38.02 4.58327C38.9916 5.59701 39.5374 6.97195 39.5374 8.4056V15.6131H27.4493V13.8112H17.0881V15.6131H5V8.4056C5 6.97195 5.54581 5.59701 6.51736 4.58327C7.48892 3.56952 8.80662 3 10.1806 3ZM20.5418 15.6131H23.9955V19.2168H20.5418V15.6131ZM5 17.4149H17.0881V19.2168L20.5418 22.8206H23.9955L27.4493 19.2168V17.4149H39.5374V31.8299H5V17.4149Z" fill="#4A4E69"/>
</g>
<defs>
<filter id="filter0_d_39_135" x="0" y="0" width="44.5374" height="38.8299" filterUnits="userSpaceOnUse" color-interpolation-filters="sRGB">
<feFlood flood-opacity="0" result="BackgroundImageFix"/>
<feColorMatrix in="SourceAlpha" type="matrix" values="0 0 0 0 0 0 0 0 0 0 0 0 0 0 0 0 0 0 127 0" result="hardAlpha"/>
<feOffset dy="2"/>
<feGaussianBlur stdDeviation="2.5"/>
<feComposite in2="hardAlpha" operator="out"/>
<feColorMatrix type="matrix" values="0 0 0 0 0 0 0 0 0 0 0 0 0 0 0 0 0 0 0.25 0"/>
<feBlend mode="normal" in2="BackgroundImageFix" result="effect1_dropShadow_39_135"/>
<feBlend mode="normal" in="SourceGraphic" in2="effect1_dropShadow_39_135" result="shape"/>
</filter>
</defs>
</svg>
