<svg width="21" height="29" viewBox="0 0 21 29" fill="none" xmlns="http://www.w3.org/2000/svg">
<path d="M7.07494 28.9005C4.33611 28.4312 1.58859 25.7226 0.500597 22.4193C0.0223245 20.9672 -0.162475 16.7855 0.165004 14.8253C0.680191 11.7415 1.88848 8.44941 3.48715 5.77379C4.20322 4.57535 4.87912 3.69261 4.89281 3.938C4.89653 4.00529 4.57065 4.62126 4.16857 5.30682C3.3821 6.64775 2.93181 7.77733 3.4472 7.11644C3.59705 6.92428 4.2815 6.04069 4.96819 5.15291C6.58147 3.06721 8.56579 1.40097 10.3579 0.627143C13.7773 -0.849322 17.3932 0.342719 19.2406 3.55553C20.8426 6.34139 21.4241 10.8495 20.679 14.7061C19.4866 20.8773 15.5938 26.4829 11.2685 28.2569C9.5354 28.9678 8.44441 29.1352 7.07494 28.9005ZM10.85 27.156L11.4431 26.816L10.1559 26.7073C7.95961 26.5219 6.63893 25.6671 5.5237 23.7091C4.73213 22.3194 4.67737 21.5432 5.45288 22.7053C6.68004 24.5442 8.5368 25.59 10.231 25.3967C11.5685 25.2441 12.6445 24.7152 14.0176 23.5355C16.1762 21.6809 17.7962 18.5111 18.5346 14.6972C18.9623 12.4879 18.8701 8.0187 18.3685 6.64454C18.0784 5.84996 18.0679 5.90636 18.0453 8.37837C18.0324 9.78368 17.9315 11.1799 17.821 11.481C17.6703 11.8918 17.6195 11.5043 17.6179 9.92969C17.6147 6.70317 16.8331 4.44655 15.2544 3.10351C14.199 2.20569 13.1437 1.98023 11.6852 2.34092C9.34476 2.91972 7.52682 4.57218 5.64551 7.83084C2.34166 13.5535 1.71211 20.872 4.19046 24.7457C5.68942 27.0886 8.92488 28.2596 10.85 27.156Z" fill="#3A86FF"/>
</svg>
