<svg width="53" height="71" viewBox="0 0 53 71" fill="none" xmlns="http://www.w3.org/2000/svg">
<g filter="url(#filter0_d_189_817)">
<path d="M12 6H45V49L43 47L42 54L40.5 55.5L39.5 53.5V50.5L34 51.5L32.5 56.5L31 58L30 56.5L27 54L25.5 56.5L26.5 58.5L25 61L23.5 60L22 62.5L21 55.5L18 52.5L16 58.5L14 57.5L12 60V6Z" fill="#D1CFC1"/>
<g filter="url(#filter1_d_189_817)">
<rect x="8" y="5" width="41" height="8" rx="3" fill="#D1CFC1"/>
</g>
<path d="M14.6348 20.5376C15.0628 20.2742 15.9087 20.4367 16.4169 20.4367C17.1708 20.4367 17.8469 20.3718 18.524 20.0333C18.8863 19.8521 19.2461 19.586 19.4543 19.2263C19.699 18.8036 20.349 18.5353 20.8105 18.3968C21.9999 18.04 23.4066 18.3702 24.2627 19.2263C24.9136 19.8772 25.4854 20.5947 26.1344 21.2437C26.5743 21.6836 27.4384 22.1308 28.0398 22.2525C29.1592 22.4789 29.9427 22.3138 30.954 21.8714C32.105 21.3678 33.0112 20.4538 34.3277 20.4367C34.8953 20.4294 35.4488 20.3058 36.0201 20.3359C36.5077 20.3615 36.8097 21.0256 37.253 21.042C38.011 21.0701 38.8308 21.1429 39.5507 21.1429" stroke="black" stroke-width="3" stroke-linecap="round"/>
<path d="M14.4326 30.1206C15.7982 30.1206 17.1252 29.4435 18.49 29.4145C19.3168 29.3969 19.7225 29.4928 20.2833 30.143C20.8688 30.8219 20.8416 31.355 21.8189 31.3311C24.0604 31.2765 24.6685 29.0091 25.809 27.5427C26.6268 26.4912 28.186 29.2297 28.555 29.7171C28.9661 30.26 29.3949 30.8487 29.9673 31.2302C30.5281 31.6041 31.2561 31.4103 31.8615 31.2527C32.643 31.0491 32.8743 30.963 33.4194 31.5777C34.0379 32.2752 34.9042 32.1026 35.7171 31.8131C36.9102 31.3881 37.8095 31.5329 39.0235 31.5329C39.4532 31.5329 39.7943 31.31 40.1556 31.1294" stroke="black" stroke-width="3" stroke-linecap="round"/>
<path d="M15.1387 40.5107C16.0207 40.5107 16.8253 40.3965 17.6773 40.1464C18.6114 39.8723 19.533 39.5521 20.4402 39.1993C21.1362 38.9286 21.8388 38.6008 22.6034 38.6221C24.1068 38.6638 24.8282 40.4088 26.218 40.8861C27.9384 41.477 30.0032 41.3074 31.6765 40.662C33.5388 39.9436 35.5762 40.0063 37.5552 40.0063C38.227 40.0063 38.9081 39.9054 39.5503 39.9054" stroke="black" stroke-width="3" stroke-linecap="round"/>
<path d="M4.40493 18.523L13.6923 5.94177C14.1095 5.37657 14.7927 5.07171 15.492 5.13869L26.449 6.18803C27.0183 6.24255 27.5837 6.05076 28.0023 5.66114L32.0487 1.89504C32.4476 1.52373 32.9808 1.33131 33.5249 1.36228L39.6079 1.70852L43.8784 4.58307L40.0961 7.07139L35.1923 7.10862C34.7476 7.112 34.3166 7.26352 33.9677 7.53923L29.132 11.3596C28.7292 11.6778 28.2195 11.8289 27.7083 11.7818L18.4862 10.9303C17.7637 10.8636 17.0617 11.1935 16.6519 11.7922L10.2386 21.1622L9.75097 15.7991L4.40493 18.523Z" fill="#0ED7B5"/>
<path d="M10.4154 14.8996L15.8015 8.33618L27.5885 8.95542L33.5901 4.21395L39.4072 4.61702" stroke="#613AFF" stroke-linecap="round"/>
<path d="M26.426 6.56175C25.6316 6.3265 24.797 6.77971 24.5618 7.57404C24.3265 8.36836 24.7797 9.20299 25.574 9.43825L26.426 6.56175ZM25.574 9.43825L30.6717 10.948L31.5236 8.07152L26.426 6.56175L25.574 9.43825Z" fill="#DDDBDB"/>
<g filter="url(#filter2_d_189_817)">
<circle cx="30.5" cy="9.5" r="4.5" fill="#D9D9D9"/>
<circle cx="30.5" cy="9.5" r="4.4" stroke="#C1C1C1" stroke-width="0.2"/>
</g>
<path d="M14.5723 49.4496C16.0885 49.2329 17.4247 48.3739 18.9818 48.2156C20.3935 48.072 21.8045 48.0137 23.2188 47.9049C25.291 47.7455 27.3421 48.9316 29.4146 48.4313C31.213 47.9972 32.8379 47.0496 34.7303 47.1197C35.4417 47.146 36.1168 47.4303 36.8703 47.4303C37.3076 47.4303 37.7448 47.4303 38.182 47.4303" stroke="black" stroke-width="3" stroke-linecap="round"/>
</g>
<defs>
<filter id="filter0_d_189_817" x="0.405273" y="1.35901" width="52.5947" height="69.141" filterUnits="userSpaceOnUse" color-interpolation-filters="sRGB">
<feFlood flood-opacity="0" result="BackgroundImageFix"/>
<feColorMatrix in="SourceAlpha" type="matrix" values="0 0 0 0 0 0 0 0 0 0 0 0 0 0 0 0 0 0 127 0" result="hardAlpha"/>
<feOffset dy="4"/>
<feGaussianBlur stdDeviation="2"/>
<feComposite in2="hardAlpha" operator="out"/>
<feColorMatrix type="matrix" values="0 0 0 0 0 0 0 0 0 0 0 0 0 0 0 0 0 0 0.25 0"/>
<feBlend mode="normal" in2="BackgroundImageFix" result="effect1_dropShadow_189_817"/>
<feBlend mode="normal" in="SourceGraphic" in2="effect1_dropShadow_189_817" result="shape"/>
</filter>
<filter id="filter1_d_189_817" x="4" y="1.5" width="49" height="16" filterUnits="userSpaceOnUse" color-interpolation-filters="sRGB">
<feFlood flood-opacity="0" result="BackgroundImageFix"/>
<feColorMatrix in="SourceAlpha" type="matrix" values="0 0 0 0 0 0 0 0 0 0 0 0 0 0 0 0 0 0 127 0" result="hardAlpha"/>
<feOffset dy="0.5"/>
<feGaussianBlur stdDeviation="2"/>
<feComposite in2="hardAlpha" operator="out"/>
<feColorMatrix type="matrix" values="0 0 0 0 0 0 0 0 0 0 0 0 0 0 0 0 0 0 0.25 0"/>
<feBlend mode="normal" in2="BackgroundImageFix" result="effect1_dropShadow_189_817"/>
<feBlend mode="normal" in="SourceGraphic" in2="effect1_dropShadow_189_817" result="shape"/>
</filter>
<filter id="filter2_d_189_817" x="19.2" y="2.2" width="18.6" height="18.6" filterUnits="userSpaceOnUse" color-interpolation-filters="sRGB">
<feFlood flood-opacity="0" result="BackgroundImageFix"/>
<feColorMatrix in="SourceAlpha" type="matrix" values="0 0 0 0 0 0 0 0 0 0 0 0 0 0 0 0 0 0 127 0" result="hardAlpha"/>
<feOffset dx="-2" dy="2"/>
<feGaussianBlur stdDeviation="2.4"/>
<feComposite in2="hardAlpha" operator="out"/>
<feColorMatrix type="matrix" values="0 0 0 0 0 0 0 0 0 0 0 0 0 0 0 0 0 0 0.25 0"/>
<feBlend mode="normal" in2="BackgroundImageFix" result="effect1_dropShadow_189_817"/>
<feBlend mode="normal" in="SourceGraphic" in2="effect1_dropShadow_189_817" result="shape"/>
</filter>
</defs>
</svg>
