<svg width="58" height="69" viewBox="0 0 58 69" fill="none" xmlns="http://www.w3.org/2000/svg">
<path d="M0 11.0779L13.471 0.852167L15.3565 4.79686L15.8651 7.99475L17.3428 11.353L20.6579 12.4205L24.7886 14.6609L25.705 18.4453L22.2364 18.3903L19.9913 20.0945L18.9695 23.5581L18.3556 27.6082L15.194 25.5281L12.234 28.671L0 11.0779Z" fill="#1B1A18"/>
<path d="M8.26218 15.69C8.33194 15.3765 8.47853 15.082 8.60858 14.7927C8.73574 14.5099 8.85971 14.2268 8.97367 13.9378C9.06196 13.714 9.13304 13.4589 9.28385 13.2691C9.81133 12.6053 10.6818 13.3164 11.3519 12.9765C11.8161 12.741 12.1701 12.365 12.5364 11.9981C12.6557 11.8786 12.78 11.8091 12.9426 11.7832C13.3173 11.7232 13.8532 11.5746 13.9796 11.1461C14.0713 10.8352 14.0594 10.439 14.322 10.2235C14.5893 10.0041 14.8471 10.0996 15.1504 10.1441C15.3075 10.1671 15.4833 10.1546 15.6431 10.1665C15.7581 10.1751 15.9827 9.88879 15.967 9.79038" stroke="#0D1117" stroke-linecap="round"/>
<path d="M12.0915 20.0733C12.1561 20.1454 13.1605 18.6659 13.217 18.593C13.5157 18.2079 13.9665 17.4873 14.5281 17.5666C14.7841 17.6028 15.0194 17.708 15.2811 17.7257C15.687 17.7531 16.0807 17.6577 16.4522 17.4881C17.0115 17.2327 17.5884 16.8086 17.9149 16.2588C18.0545 16.0237 18.0995 15.7642 18.2943 15.5686C18.5544 15.3076 18.8595 15.1396 19.153 14.9168C19.4108 14.7211 19.6706 14.5214 19.8601 14.2498C19.922 14.1611 20.0125 13.8954 20.1447 13.895C20.3744 13.8943 20.6143 13.9464 20.8447 13.9272C21.1275 13.9036 21.2396 13.7757 21.4159 13.5559" stroke="#0D1117" stroke-linecap="round"/>
<path d="M14.8688 23.9288C15.3913 23.4313 15.7613 22.7901 16.3238 22.3259C16.5577 22.1329 16.82 22.1544 17.1057 22.16C17.7825 22.1734 18.4101 21.902 18.9161 21.4229C19.1383 21.2126 19.3072 20.8994 19.4269 20.6217C19.4724 20.5162 19.6028 20.4767 19.6183 20.3745" stroke="#0D1117" stroke-linecap="round"/>
<path d="M23.7004 18.2305C24.1525 17.7319 24.6981 17.4731 25.2228 17.0748" stroke="#0D1117" stroke-linecap="round"/>
<path d="M44.0358 10.7448L58.0005 20.2199L46.6645 38.4579L46.0224 32.8363L40.2339 31.5017L35.6091 30.9567L33.8334 27.159L39.9998 27.8856L43.2267 24.0249L43.3704 19.8008L38.7457 19.2558L39.0934 16.0345L43.3102 14.574L44.0358 10.7448Z" fill="#1B1A18"/>
<path d="M41.9365 15.1873C42.2407 15.3937 42.7126 15.2829 43.058 15.3474C43.5208 15.4338 43.8283 15.6905 43.9105 16.1774C43.9948 16.6766 43.9589 17.0684 44.3786 17.3979C44.9134 17.8176 45.5385 17.8352 46.1242 18.1175C46.5371 18.3165 46.5968 18.4922 46.8283 18.8853C47.0354 19.237 47.355 19.5077 47.7414 19.5996C48.6581 19.8177 49.3371 20.3031 50.034 20.9479" stroke="#0D1117" stroke-linecap="round"/>
<path d="M43.4306 22.221C43.7957 22.4687 44.2016 22.6281 44.614 22.7693C44.746 22.8146 45.0156 22.8278 45.0778 22.9894C45.1618 23.2075 45.1266 23.4651 45.2032 23.6901C45.3945 24.2515 45.919 24.5733 46.3884 24.8554C46.6732 25.0266 47.1415 25.2019 47.3245 25.5054C47.5613 25.8978 48.0077 25.7626 48.3776 25.9534C48.6017 26.0691 48.8946 26.37 48.8435 26.6396" stroke="#0D1117" stroke-linecap="round"/>
<path d="M40.9816 27.06C41.1854 27.2118 41.342 27.459 41.5778 27.5593C41.7529 27.6338 41.945 27.6269 42.1273 27.6598C42.4837 27.7241 42.6289 28.0179 42.9166 28.2131" stroke="#0D1117" stroke-linecap="round"/>
<path d="M45.7393 30.2347C45.8639 30.3609 45.9547 30.5407 46.0998 30.6392" stroke="#0D1117" stroke-linecap="round"/>
<path d="M36.0072 29.812C35.957 29.9201 36.2673 29.9417 36.3052 29.9432C36.7044 29.9591 37.0823 29.7672 37.4831 29.7893C37.5896 29.7952 37.6199 29.8711 37.6454 29.9704C37.6961 30.168 37.7545 30.3049 37.9241 30.42C38.2182 30.6195 38.5694 30.7513 38.8674 30.9535" stroke="#0D1117" stroke-linecap="round"/>
<path d="M35.7329 29.5193C35.485 29.3433 35.2269 29.1278 35.1172 28.8234C35.0479 28.6309 35.0124 28.6159 34.8405 28.4846C34.601 28.3016 34.5643 28.1702 34.587 27.8805C34.5918 27.8204 34.5052 27.9667 34.4934 27.9856" stroke="#0D1117" stroke-linecap="round"/>
<path d="M2.66215 53.0957L4.65754 52.1427L5.26768 48.5749L7.73623 48.152L9.59465 51.2971L11.1169 49.814L12.5364 51.4044L17.4392 51.5833L18.0836 46.9909L18.1521 44.9419L21.869 51.2321L22.2394 54.8357L26.0932 57.0278L29.0349 57.1352L16.8571 68.9999L2.66215 53.0957Z" fill="#1B1A18"/>
<path d="M7.3989 53.3174C7.57958 53.0694 7.66468 52.7656 7.76914 52.4769C7.80407 52.3804 7.96569 51.6797 8.09158 51.6447C8.42384 51.5521 8.95171 52.4293 9.23194 52.2175C9.47141 52.0366 9.67884 51.7869 9.8949 51.5764" stroke="#0D1117" stroke-linecap="round"/>
<path d="M12.4976 55.6043C12.4301 55.477 12.8874 55.2016 12.9502 55.1442C13.3897 54.7424 13.811 54.2 13.8865 53.5747C13.9532 53.0223 14.1921 53.1723 14.61 53.1145C15.2595 53.0247 15.5515 52.5521 15.978 52.1367C16.1655 51.954 16.4824 51.8946 16.6914 51.691" stroke="#0D1117" stroke-linecap="round"/>
<path d="M13.5307 60.5563C13.6174 60.3363 13.6601 60.0928 13.7107 59.8628C13.8942 59.0288 14.1345 58.3056 14.5946 57.5864C14.7487 57.3455 15.0584 56.796 15.3889 56.7117C15.559 56.6684 15.8017 56.7851 15.9755 56.7927C16.6357 56.8217 17.2238 56.2118 17.6496 55.7565C17.8611 55.5304 18.0182 55.1606 18.2764 54.9875C18.4666 54.86 18.6859 54.7939 18.8792 54.6545C19.6068 54.1296 20.2926 53.5564 20.9696 52.9632C21.2524 52.7154 21.2848 52.8534 21.5021 53.0968C21.6304 53.2406 21.5631 53.1188 21.5234 53.0281" stroke="#0D1117" stroke-linecap="round"/>
<path d="M16.6482 62.9242C17.093 61.9498 17.4475 60.9219 18.143 60.0945C18.3325 59.8691 18.5759 59.8525 18.8467 59.8169C19.4776 59.7341 20.0193 59.54 20.5477 59.1594C21.0011 58.8328 21.3013 58.4022 21.687 58.0265C21.8424 57.875 22.0445 57.77 22.2045 57.6142C22.4708 57.3547 22.67 57.0572 22.9376 56.7965C23.1132 56.6254 23.18 56.1522 23.4295 56.2138" stroke="#0D1117" stroke-linecap="round"/>
<path d="M8.94043 43.6096L9.0016 43.6782" stroke="#0D1117" stroke-linecap="round"/>
<path d="M20.4805 35.0795L22.5618 34.3546L23.9494 35.0795L25.337 35.8044L28.1122 35.0795L26.7246 37.2541V39.4287L27.4184 40.8785L25.337 40.1536L23.2556 40.8785L22.5618 39.4287L20.4805 40.1536L21.1743 38.7039V37.2541L21.8681 35.8044L20.4805 35.0795Z" fill="#1B1A18"/>
<path d="M22.1689 37.2136C22.4463 37.2136 22.7251 37.2284 22.9992 37.177C23.1868 37.1418 23.2129 37.2497 23.3093 37.4051C23.3522 37.4743 23.3793 37.5379 23.4616 37.5558C23.5869 37.5831 23.7398 37.5781 23.8646 37.5516C23.9955 37.5237 24.0767 37.4284 24.1921 37.3699C24.3364 37.2968 24.5352 37.3487 24.6868 37.3713C24.8037 37.3888 24.9287 37.3838 25.0426 37.4178C25.0823 37.4296 25.1031 37.4752 25.1532 37.4868C25.2294 37.5045 25.3176 37.4924 25.3958 37.4924" stroke="#0D1117" stroke-linecap="round"/>
</svg>
