<svg width="165" height="78" viewBox="0 0 165 78" fill="none" xmlns="http://www.w3.org/2000/svg">
<path d="M164.303 37.9172C164.727 38.5766 164.727 39.4234 164.303 40.0828L146.932 67.0581C145.851 68.7356 143.25 67.9705 143.25 65.9752V12.0248C143.25 10.0295 145.851 9.26438 146.932 10.9419L164.303 37.9172Z" fill="#3A86FF" fill-opacity="0.72"/>
<rect x="131" y="64" width="49" height="5" rx="2.5" transform="rotate(-90 131 64)" fill="#3A86FF" fill-opacity="0.72"/>
<rect x="120" y="59" width="40" height="5" rx="2.5" transform="rotate(-90 120 59)" fill="#3A86FF" fill-opacity="0.72"/>
<path d="M0.697802 40.0828C0.273144 39.4234 0.273142 38.5766 0.6978 37.9172L18.069 10.9419C19.1493 9.26439 21.7505 10.0295 21.7505 12.0248L21.7505 65.9752C21.7505 67.9705 19.1493 68.7356 18.069 67.0581L0.697802 40.0828Z" fill="#3A86FF" fill-opacity="0.72"/>
<rect x="34.0005" y="14" width="49" height="5" rx="2.5" transform="rotate(90 34.0005 14)" fill="#3A86FF" fill-opacity="0.72"/>
<rect x="45.0005" y="19" width="40" height="5" rx="2.5" transform="rotate(90 45.0005 19)" fill="#3A86FF" fill-opacity="0.72"/>
<path d="M57.782 42H54.622C54.4953 42 54.402 41.9733 54.342 41.92C54.2886 41.86 54.262 41.7667 54.262 41.64V40.47C54.262 40.3433 54.2886 40.2533 54.342 40.2C54.402 40.14 54.4953 40.11 54.622 40.11H57.312C57.3986 40.11 57.462 40.0833 57.502 40.03C57.5486 39.97 57.572 39.9 57.572 39.82C57.572 39.7067 57.5486 39.6233 57.502 39.57C57.462 39.5167 57.3986 39.4867 57.312 39.48L55.812 39.27C55.3453 39.2033 54.9686 39.05 54.682 38.81C54.402 38.57 54.262 38.17 54.262 37.61V36.56C54.262 35.9933 54.4453 35.56 54.812 35.26C55.1786 34.9533 55.6853 34.8 56.332 34.8H59.132C59.2586 34.8 59.3486 34.83 59.402 34.89C59.462 34.9433 59.492 35.0333 59.492 35.16V36.35C59.492 36.4767 59.462 36.57 59.402 36.63C59.3486 36.6833 59.2586 36.71 59.132 36.71H56.802C56.7153 36.71 56.6486 36.74 56.602 36.8C56.5553 36.8533 56.532 36.9233 56.532 37.01C56.532 37.0967 56.5553 37.17 56.602 37.23C56.6486 37.29 56.7153 37.3233 56.802 37.33L58.292 37.53C58.7586 37.5967 59.1353 37.75 59.422 37.99C59.7086 38.23 59.852 38.63 59.852 39.19V40.24C59.852 40.8067 59.6653 41.2433 59.292 41.55C58.9253 41.85 58.422 42 57.782 42ZM65.7359 42H63.2959C62.4625 42 61.8425 41.8333 61.4359 41.5C61.0359 41.1667 60.8359 40.6533 60.8359 39.96V36.85C60.8359 36.1567 61.0359 35.6433 61.4359 35.31C61.8425 34.97 62.4625 34.8 63.2959 34.8H65.7359C65.8625 34.8 65.9525 34.83 66.0059 34.89C66.0659 34.9433 66.0959 35.0333 66.0959 35.16V36.37C66.0959 36.4967 66.0659 36.59 66.0059 36.65C65.9525 36.7033 65.8625 36.73 65.7359 36.73H63.7259C63.5192 36.73 63.3659 36.7733 63.2659 36.86C63.1659 36.94 63.1159 37.0633 63.1159 37.23V39.61C63.1159 39.7767 63.1659 39.9 63.2659 39.98C63.3659 40.0533 63.5192 40.09 63.7259 40.09H65.7359C65.8625 40.09 65.9525 40.12 66.0059 40.18C66.0659 40.2333 66.0959 40.3233 66.0959 40.45V41.64C66.0959 41.7667 66.0659 41.86 66.0059 41.92C65.9525 41.9733 65.8625 42 65.7359 42ZM69.4852 36.6V37.88H70.2352C70.4085 37.88 70.5252 37.8367 70.5852 37.75C70.6452 37.6567 70.6752 37.5433 70.6752 37.41V37.07C70.6752 36.9367 70.6452 36.8267 70.5852 36.74C70.5252 36.6467 70.4085 36.6 70.2352 36.6H69.4852ZM69.1252 42H67.5852C67.4585 42 67.3652 41.9733 67.3052 41.92C67.2518 41.86 67.2252 41.7667 67.2252 41.64V35.16C67.2252 35.0333 67.2518 34.9433 67.3052 34.89C67.3652 34.83 67.4585 34.8 67.5852 34.8H70.9152C71.6618 34.8 72.1752 34.9567 72.4552 35.27C72.7418 35.5767 72.8852 35.9767 72.8852 36.47V36.93C72.8852 37.21 72.8418 37.45 72.7552 37.65C72.6752 37.8433 72.5318 37.9833 72.3252 38.07C72.6852 38.11 72.9752 38.2567 73.1952 38.51C73.4218 38.7633 73.5352 39.1 73.5352 39.52V41.64C73.5352 41.7667 73.5052 41.86 73.4452 41.92C73.3918 41.9733 73.3018 42 73.1752 42H71.6252C71.4985 42 71.4052 41.9733 71.3452 41.92C71.2918 41.86 71.2652 41.7667 71.2652 41.64V40.11C71.2652 39.9633 71.2352 39.8567 71.1752 39.79C71.1218 39.7167 71.0252 39.68 70.8852 39.68H69.4852V41.64C69.4852 41.7667 69.4552 41.86 69.3952 41.92C69.3418 41.9733 69.2518 42 69.1252 42ZM80.708 40.11C80.708 40.4167 80.6613 40.6967 80.568 40.95C80.4813 41.1967 80.3213 41.41 80.088 41.59C79.8613 41.7633 79.5446 41.9 79.138 42C78.738 42.1 78.228 42.15 77.608 42.15C76.988 42.15 76.4746 42.1 76.068 42C75.6613 41.9 75.3413 41.7633 75.108 41.59C74.8813 41.41 74.7213 41.1967 74.628 40.95C74.5413 40.6967 74.498 40.4167 74.498 40.11V36.7C74.498 36.3933 74.5413 36.1167 74.628 35.87C74.7213 35.6167 74.8813 35.4 75.108 35.22C75.3413 35.04 75.6613 34.9 76.068 34.8C76.4746 34.7 76.988 34.65 77.608 34.65C78.228 34.65 78.738 34.7 79.138 34.8C79.5446 34.9 79.8613 35.04 80.088 35.22C80.3213 35.4 80.4813 35.6167 80.568 35.87C80.6613 36.1167 80.708 36.3933 80.708 36.7V40.11ZM76.768 39.75C76.768 39.8833 76.818 39.9967 76.918 40.09C77.018 40.1767 77.248 40.22 77.608 40.22C77.968 40.22 78.198 40.1767 78.298 40.09C78.398 39.9967 78.448 39.8833 78.448 39.75V37.06C78.448 36.9333 78.398 36.8267 78.298 36.74C78.198 36.6467 77.968 36.6 77.608 36.6C77.248 36.6 77.018 36.6467 76.918 36.74C76.818 36.8267 76.768 36.9333 76.768 37.06V39.75ZM87.431 42H82.341C82.2144 42 82.121 41.9733 82.061 41.92C82.0077 41.86 81.981 41.7667 81.981 41.64V35.16C81.981 35.0333 82.0077 34.9433 82.061 34.89C82.121 34.83 82.2144 34.8 82.341 34.8H83.891C84.0177 34.8 84.1077 34.83 84.161 34.89C84.221 34.9433 84.251 35.0333 84.251 35.16V40.11H85.621V38.49C85.621 38.3633 85.6477 38.2733 85.701 38.22C85.761 38.16 85.8544 38.13 85.981 38.13H87.431C87.5577 38.13 87.6477 38.16 87.701 38.22C87.761 38.2733 87.791 38.3633 87.791 38.49V41.64C87.791 41.7667 87.761 41.86 87.701 41.92C87.6477 41.9733 87.5577 42 87.431 42ZM94.3841 42H89.2941C89.1675 42 89.0741 41.9733 89.0141 41.92C88.9608 41.86 88.9341 41.7667 88.9341 41.64V35.16C88.9341 35.0333 88.9608 34.9433 89.0141 34.89C89.0741 34.83 89.1675 34.8 89.2941 34.8H90.8441C90.9708 34.8 91.0608 34.83 91.1141 34.89C91.1741 34.9433 91.2041 35.0333 91.2041 35.16V40.11H92.5741V38.49C92.5741 38.3633 92.6008 38.2733 92.6541 38.22C92.7141 38.16 92.8075 38.13 92.9341 38.13H94.3841C94.5108 38.13 94.6008 38.16 94.6541 38.22C94.7141 38.2733 94.7441 38.3633 94.7441 38.49V41.64C94.7441 41.7667 94.7141 41.86 94.6541 41.92C94.6008 41.9733 94.5108 42 94.3841 42ZM104.136 40.11C104.136 40.4167 104.089 40.6967 103.996 40.95C103.909 41.1967 103.749 41.41 103.516 41.59C103.289 41.7633 102.972 41.9 102.566 42C102.166 42.1 101.656 42.15 101.036 42.15C100.416 42.15 99.9024 42.1 99.4957 42C99.089 41.9 98.769 41.7633 98.5357 41.59C98.309 41.41 98.149 41.1967 98.0557 40.95C97.969 40.6967 97.9257 40.4167 97.9257 40.11V36.7C97.9257 36.3933 97.969 36.1167 98.0557 35.87C98.149 35.6167 98.309 35.4 98.5357 35.22C98.769 35.04 99.089 34.9 99.4957 34.8C99.9024 34.7 100.416 34.65 101.036 34.65C101.656 34.65 102.166 34.7 102.566 34.8C102.972 34.9 103.289 35.04 103.516 35.22C103.749 35.4 103.909 35.6167 103.996 35.87C104.089 36.1167 104.136 36.3933 104.136 36.7V40.11ZM100.196 39.75C100.196 39.8833 100.246 39.9967 100.346 40.09C100.446 40.1767 100.676 40.22 101.036 40.22C101.396 40.22 101.626 40.1767 101.726 40.09C101.826 39.9967 101.876 39.8833 101.876 39.75V37.06C101.876 36.9333 101.826 36.8267 101.726 36.74C101.626 36.6467 101.396 36.6 101.036 36.6C100.676 36.6 100.446 36.6467 100.346 36.74C100.246 36.8267 100.196 36.9333 100.196 37.06V39.75ZM107.269 42H105.769C105.642 42 105.549 41.9733 105.489 41.92C105.435 41.86 105.409 41.7667 105.409 41.64V35.16C105.409 35.0333 105.435 34.9433 105.489 34.89C105.549 34.83 105.642 34.8 105.769 34.8H106.809C106.935 34.8 107.042 34.82 107.129 34.86C107.222 34.9 107.312 34.97 107.399 35.07L109.339 37.29V35.16C109.339 35.0333 109.365 34.9433 109.419 34.89C109.479 34.83 109.572 34.8 109.699 34.8H111.199C111.325 34.8 111.415 34.83 111.469 34.89C111.529 34.9433 111.559 35.0333 111.559 35.16V41.64C111.559 41.7667 111.529 41.86 111.469 41.92C111.415 41.9733 111.325 42 111.199 42H109.699C109.572 42 109.479 41.9733 109.419 41.92C109.365 41.86 109.339 41.7667 109.339 41.64V40.41L107.629 38.34V41.64C107.629 41.7667 107.599 41.86 107.539 41.92C107.485 41.9733 107.395 42 107.269 42Z" fill="#3A86FF" fill-opacity="0.72"/>
</svg>
