<svg width="78" height="114" viewBox="0 0 78 114" fill="none" xmlns="http://www.w3.org/2000/svg">
<path d="M40.0828 113.303C39.4234 113.727 38.5766 113.727 37.9172 113.303L10.9419 95.9315C9.26439 94.8512 10.0295 92.25 12.0248 92.25H65.9752C67.9705 92.25 68.7356 94.8512 67.0581 95.9315L40.0828 113.303Z" fill="#3A86FF" fill-opacity="0.72"/>
<rect x="14" y="80" width="49" height="5" rx="2.5" fill="#3A86FF" fill-opacity="0.72"/>
<rect x="19" y="69" width="40" height="5" rx="2.5" fill="#3A86FF" fill-opacity="0.72"/>
<path d="M37.9172 0.697313C38.5766 0.272656 39.4234 0.272654 40.0828 0.697311L67.0581 18.0685C68.7356 19.1488 67.9705 21.75 65.9752 21.75L12.0248 21.75C10.0295 21.75 9.26438 19.1488 10.9419 18.0685L37.9172 0.697313Z" fill="#3A86FF" fill-opacity="0.72"/>
<rect x="64" y="34" width="49" height="5" rx="2.5" transform="rotate(-180 64 34)" fill="#3A86FF" fill-opacity="0.72"/>
<rect x="59" y="45" width="40" height="5" rx="2.5" transform="rotate(-180 59 45)" fill="#3A86FF" fill-opacity="0.72"/>
<path d="M13.782 61H10.622C10.4953 61 10.402 60.9733 10.342 60.92C10.2886 60.86 10.262 60.7667 10.262 60.64V59.47C10.262 59.3433 10.2886 59.2533 10.342 59.2C10.402 59.14 10.4953 59.11 10.622 59.11H13.312C13.3986 59.11 13.462 59.0833 13.502 59.03C13.5486 58.97 13.572 58.9 13.572 58.82C13.572 58.7067 13.5486 58.6233 13.502 58.57C13.462 58.5167 13.3986 58.4867 13.312 58.48L11.812 58.27C11.3453 58.2033 10.9686 58.05 10.682 57.81C10.402 57.57 10.262 57.17 10.262 56.61V55.56C10.262 54.9933 10.4453 54.56 10.812 54.26C11.1786 53.9533 11.6853 53.8 12.332 53.8H15.132C15.2586 53.8 15.3486 53.83 15.402 53.89C15.462 53.9433 15.492 54.0333 15.492 54.16V55.35C15.492 55.4767 15.462 55.57 15.402 55.63C15.3486 55.6833 15.2586 55.71 15.132 55.71H12.802C12.7153 55.71 12.6486 55.74 12.602 55.8C12.5553 55.8533 12.532 55.9233 12.532 56.01C12.532 56.0967 12.5553 56.17 12.602 56.23C12.6486 56.29 12.7153 56.3233 12.802 56.33L14.292 56.53C14.7586 56.5967 15.1353 56.75 15.422 56.99C15.7086 57.23 15.852 57.63 15.852 58.19V59.24C15.852 59.8067 15.6653 60.2433 15.292 60.55C14.9253 60.85 14.422 61 13.782 61ZM21.7359 61H19.2959C18.4625 61 17.8425 60.8333 17.4359 60.5C17.0359 60.1667 16.8359 59.6533 16.8359 58.96V55.85C16.8359 55.1567 17.0359 54.6433 17.4359 54.31C17.8425 53.97 18.4625 53.8 19.2959 53.8H21.7359C21.8625 53.8 21.9525 53.83 22.0059 53.89C22.0659 53.9433 22.0959 54.0333 22.0959 54.16V55.37C22.0959 55.4967 22.0659 55.59 22.0059 55.65C21.9525 55.7033 21.8625 55.73 21.7359 55.73H19.7259C19.5192 55.73 19.3659 55.7733 19.2659 55.86C19.1659 55.94 19.1159 56.0633 19.1159 56.23V58.61C19.1159 58.7767 19.1659 58.9 19.2659 58.98C19.3659 59.0533 19.5192 59.09 19.7259 59.09H21.7359C21.8625 59.09 21.9525 59.12 22.0059 59.18C22.0659 59.2333 22.0959 59.3233 22.0959 59.45V60.64C22.0959 60.7667 22.0659 60.86 22.0059 60.92C21.9525 60.9733 21.8625 61 21.7359 61ZM25.4852 55.6V56.88H26.2352C26.4085 56.88 26.5252 56.8367 26.5852 56.75C26.6452 56.6567 26.6752 56.5433 26.6752 56.41V56.07C26.6752 55.9367 26.6452 55.8267 26.5852 55.74C26.5252 55.6467 26.4085 55.6 26.2352 55.6H25.4852ZM25.1252 61H23.5852C23.4585 61 23.3652 60.9733 23.3052 60.92C23.2518 60.86 23.2252 60.7667 23.2252 60.64V54.16C23.2252 54.0333 23.2518 53.9433 23.3052 53.89C23.3652 53.83 23.4585 53.8 23.5852 53.8H26.9152C27.6618 53.8 28.1752 53.9567 28.4552 54.27C28.7418 54.5767 28.8852 54.9767 28.8852 55.47V55.93C28.8852 56.21 28.8418 56.45 28.7552 56.65C28.6752 56.8433 28.5318 56.9833 28.3252 57.07C28.6852 57.11 28.9752 57.2567 29.1952 57.51C29.4218 57.7633 29.5352 58.1 29.5352 58.52V60.64C29.5352 60.7667 29.5052 60.86 29.4452 60.92C29.3918 60.9733 29.3018 61 29.1752 61H27.6252C27.4985 61 27.4052 60.9733 27.3452 60.92C27.2918 60.86 27.2652 60.7667 27.2652 60.64V59.11C27.2652 58.9633 27.2352 58.8567 27.1752 58.79C27.1218 58.7167 27.0252 58.68 26.8852 58.68H25.4852V60.64C25.4852 60.7667 25.4552 60.86 25.3952 60.92C25.3418 60.9733 25.2518 61 25.1252 61ZM36.708 59.11C36.708 59.4167 36.6613 59.6967 36.568 59.95C36.4813 60.1967 36.3213 60.41 36.088 60.59C35.8613 60.7633 35.5446 60.9 35.138 61C34.738 61.1 34.228 61.15 33.608 61.15C32.988 61.15 32.4746 61.1 32.068 61C31.6613 60.9 31.3413 60.7633 31.108 60.59C30.8813 60.41 30.7213 60.1967 30.628 59.95C30.5413 59.6967 30.498 59.4167 30.498 59.11V55.7C30.498 55.3933 30.5413 55.1167 30.628 54.87C30.7213 54.6167 30.8813 54.4 31.108 54.22C31.3413 54.04 31.6613 53.9 32.068 53.8C32.4746 53.7 32.988 53.65 33.608 53.65C34.228 53.65 34.738 53.7 35.138 53.8C35.5446 53.9 35.8613 54.04 36.088 54.22C36.3213 54.4 36.4813 54.6167 36.568 54.87C36.6613 55.1167 36.708 55.3933 36.708 55.7V59.11ZM32.768 58.75C32.768 58.8833 32.818 58.9967 32.918 59.09C33.018 59.1767 33.248 59.22 33.608 59.22C33.968 59.22 34.198 59.1767 34.298 59.09C34.398 58.9967 34.448 58.8833 34.448 58.75V56.06C34.448 55.9333 34.398 55.8267 34.298 55.74C34.198 55.6467 33.968 55.6 33.608 55.6C33.248 55.6 33.018 55.6467 32.918 55.74C32.818 55.8267 32.768 55.9333 32.768 56.06V58.75ZM43.431 61H38.341C38.2143 61 38.121 60.9733 38.061 60.92C38.0077 60.86 37.981 60.7667 37.981 60.64V54.16C37.981 54.0333 38.0077 53.9433 38.061 53.89C38.121 53.83 38.2143 53.8 38.341 53.8H39.891C40.0177 53.8 40.1077 53.83 40.161 53.89C40.221 53.9433 40.251 54.0333 40.251 54.16V59.11H41.621V57.49C41.621 57.3633 41.6477 57.2733 41.701 57.22C41.761 57.16 41.8543 57.13 41.981 57.13H43.431C43.5577 57.13 43.6477 57.16 43.701 57.22C43.761 57.2733 43.791 57.3633 43.791 57.49V60.64C43.791 60.7667 43.761 60.86 43.701 60.92C43.6477 60.9733 43.5577 61 43.431 61ZM50.3841 61H45.2941C45.1675 61 45.0741 60.9733 45.0141 60.92C44.9608 60.86 44.9341 60.7667 44.9341 60.64V54.16C44.9341 54.0333 44.9608 53.9433 45.0141 53.89C45.0741 53.83 45.1675 53.8 45.2941 53.8H46.8441C46.9708 53.8 47.0608 53.83 47.1141 53.89C47.1741 53.9433 47.2041 54.0333 47.2041 54.16V59.11H48.5741V57.49C48.5741 57.3633 48.6008 57.2733 48.6541 57.22C48.7141 57.16 48.8075 57.13 48.9341 57.13H50.3841C50.5108 57.13 50.6008 57.16 50.6541 57.22C50.7141 57.2733 50.7441 57.3633 50.7441 57.49V60.64C50.7441 60.7667 50.7141 60.86 50.6541 60.92C50.6008 60.9733 50.5108 61 50.3841 61ZM60.1357 59.11C60.1357 59.4167 60.089 59.6967 59.9957 59.95C59.909 60.1967 59.749 60.41 59.5157 60.59C59.289 60.7633 58.9724 60.9 58.5657 61C58.1657 61.1 57.6557 61.15 57.0357 61.15C56.4157 61.15 55.9024 61.1 55.4957 61C55.089 60.9 54.769 60.7633 54.5357 60.59C54.309 60.41 54.149 60.1967 54.0557 59.95C53.969 59.6967 53.9257 59.4167 53.9257 59.11V55.7C53.9257 55.3933 53.969 55.1167 54.0557 54.87C54.149 54.6167 54.309 54.4 54.5357 54.22C54.769 54.04 55.089 53.9 55.4957 53.8C55.9024 53.7 56.4157 53.65 57.0357 53.65C57.6557 53.65 58.1657 53.7 58.5657 53.8C58.9724 53.9 59.289 54.04 59.5157 54.22C59.749 54.4 59.909 54.6167 59.9957 54.87C60.089 55.1167 60.1357 55.3933 60.1357 55.7V59.11ZM56.1957 58.75C56.1957 58.8833 56.2457 58.9967 56.3457 59.09C56.4457 59.1767 56.6757 59.22 57.0357 59.22C57.3957 59.22 57.6257 59.1767 57.7257 59.09C57.8257 58.9967 57.8757 58.8833 57.8757 58.75V56.06C57.8757 55.9333 57.8257 55.8267 57.7257 55.74C57.6257 55.6467 57.3957 55.6 57.0357 55.6C56.6757 55.6 56.4457 55.6467 56.3457 55.74C56.2457 55.8267 56.1957 55.9333 56.1957 56.06V58.75ZM63.2688 61H61.7688C61.6421 61 61.5488 60.9733 61.4888 60.92C61.4354 60.86 61.4088 60.7667 61.4088 60.64V54.16C61.4088 54.0333 61.4354 53.9433 61.4888 53.89C61.5488 53.83 61.6421 53.8 61.7688 53.8H62.8088C62.9354 53.8 63.0421 53.82 63.1288 53.86C63.2221 53.9 63.3121 53.97 63.3988 54.07L65.3388 56.29V54.16C65.3388 54.0333 65.3654 53.9433 65.4188 53.89C65.4788 53.83 65.5721 53.8 65.6988 53.8H67.1988C67.3254 53.8 67.4154 53.83 67.4688 53.89C67.5288 53.9433 67.5588 54.0333 67.5588 54.16V60.64C67.5588 60.7667 67.5288 60.86 67.4688 60.92C67.4154 60.9733 67.3254 61 67.1988 61H65.6988C65.5721 61 65.4788 60.9733 65.4188 60.92C65.3654 60.86 65.3388 60.7667 65.3388 60.64V59.41L63.6288 57.34V60.64C63.6288 60.7667 63.5988 60.86 63.5388 60.92C63.4854 60.9733 63.3954 61 63.2688 61Z" fill="#3A86FF" fill-opacity="0.72"/>
</svg>
