<svg width="62" height="69" viewBox="0 0 62 69" fill="none" xmlns="http://www.w3.org/2000/svg">
<g filter="url(#filter0_d_178_588)">
<path d="M30.0808 26.0959C30.863 25.3082 32.137 25.3082 32.9192 26.0959L38.1007 31.3142C38.8751 32.094 38.8751 33.3527 38.1007 34.1326L32.9192 39.3508C32.137 40.1386 30.863 40.1386 30.0808 39.3508L24.8993 34.1326C24.1249 33.3527 24.1249 32.094 24.8993 31.3142L30.0808 26.0959Z" fill="#0ED7B5" fill-opacity="0.32" shape-rendering="crispEdges"/>
<path d="M30.0808 29.6207C30.863 28.833 32.137 28.833 32.9192 29.6207L38.1007 34.839C38.8751 35.6189 38.8751 36.8775 38.1007 37.6574L32.9192 42.8757C32.137 43.6634 30.863 43.6634 30.0808 42.8757L24.8993 37.6574C24.1249 36.8775 24.1249 35.6189 24.8993 34.839L30.0808 29.6207Z" fill="#0ED7B5" fill-opacity="0.32" shape-rendering="crispEdges"/>
<path d="M32.8128 26.2016L37.9943 31.4198C38.7106 32.1412 38.7106 33.3055 37.9943 34.0269L37.75 34.2729L33.0256 29.515C32.1848 28.6682 30.8152 28.6682 29.9744 29.515L25.25 34.2729L25.0057 34.0269C24.2894 33.3055 24.2894 32.1412 25.0057 31.4198L30.1872 26.2016C30.9108 25.4729 32.0892 25.4729 32.8128 26.2016ZM25.0057 34.9447L25.25 34.6987L29.9744 39.4565C30.8152 40.3033 32.1848 40.3033 33.0256 39.4565L37.75 34.6987L37.9943 34.9447C38.7106 35.6661 38.7106 36.8303 37.9943 37.5517L32.8128 42.77C32.0892 43.4986 30.9108 43.4986 30.1872 42.77L25.0057 37.5517C24.2894 36.8303 24.2894 35.6661 25.0057 34.9447ZM32.8128 29.7264L37.5386 34.4858L32.8128 39.2451C32.0892 39.9738 30.9108 39.9738 30.1872 39.2451L25.4614 34.4858L30.1872 29.7264C30.9108 28.9978 32.0892 28.9978 32.8128 29.7264Z" stroke="#0ED7B5" stroke-opacity="0.53" stroke-width="0.3" shape-rendering="crispEdges"/>
</g>
<g filter="url(#filter1_i_178_588)">
<ellipse cx="16" cy="20.1348" rx="1" ry="1.00709" fill="#FFF500" fill-opacity="0.23"/>
<ellipse cx="15" cy="26.1774" rx="1" ry="1.00709" fill="#FFF500" fill-opacity="0.23"/>
<ellipse cx="13" cy="33.2271" rx="1" ry="1.00709" fill="#FFF500" fill-opacity="0.23"/>
<ellipse cx="25" cy="48.3334" rx="1" ry="1.00709" fill="#FFF500" fill-opacity="0.23"/>
<ellipse cx="25" cy="41.2837" rx="1" ry="1.00709" fill="#FFF500" fill-opacity="0.23"/>
<ellipse cx="20" cy="36.2483" rx="1" ry="1.00709" fill="#FFF500" fill-opacity="0.23"/>
<ellipse cx="27" cy="54.376" rx="1" ry="1.00709" fill="#FFF500" fill-opacity="0.23"/>
<ellipse cx="36" cy="50.3475" rx="1" ry="1.00709" fill="#FFF500" fill-opacity="0.23"/>
<ellipse cx="48" cy="53.3688" rx="1" ry="1.00709" fill="#FFF500" fill-opacity="0.23"/>
<ellipse cx="37" cy="43.2979" rx="1" ry="1.00709" fill="#FFF500" fill-opacity="0.23"/>
<ellipse cx="42" cy="31.2128" rx="1" ry="1.00709" fill="#FFF500" fill-opacity="0.23"/>
<ellipse cx="47" cy="28.1915" rx="1" ry="1.00709" fill="#FFF500" fill-opacity="0.23"/>
<ellipse cx="37" cy="26.1774" rx="1" ry="1.00709" fill="#FFF500" fill-opacity="0.23"/>
<ellipse cx="43" cy="21.1419" rx="1" ry="1.00709" fill="#FFF500" fill-opacity="0.23"/>
<ellipse cx="30" cy="22.1489" rx="1" ry="1.00709" fill="#FFF500" fill-opacity="0.23"/>
<ellipse cx="37" cy="19.1277" rx="1" ry="1.00709" fill="#FFF500" fill-opacity="0.23"/>
<ellipse cx="24" cy="25.1703" rx="1" ry="1.00709" fill="#FFF500" fill-opacity="0.23"/>
<ellipse cx="23" cy="19.1277" rx="1" ry="1.00709" fill="#FFF500" fill-opacity="0.23"/>
<ellipse cx="44" cy="49.3405" rx="1" ry="1.00709" fill="#FFF500" fill-opacity="0.23"/>
<ellipse cx="47" cy="42.2908" rx="1" ry="1.00709" fill="#FFF500" fill-opacity="0.23"/>
<ellipse cx="43" cy="38.2625" rx="1" ry="1.00709" fill="#FFF500" fill-opacity="0.23"/>
<ellipse cx="17" cy="44.3051" rx="1" ry="1.00709" fill="#FFF500" fill-opacity="0.23"/>
<ellipse cx="15" cy="49.3405" rx="1" ry="1.00709" fill="#FFF500" fill-opacity="0.23"/>
<ellipse cx="17" cy="54.376" rx="1" ry="1.00709" fill="#FFF500" fill-opacity="0.23"/>
</g>
<g filter="url(#filter2_d_178_588)">
<path d="M11 11H51V57.3262H11V11Z" fill="#FFF500" fill-opacity="0.26" shape-rendering="crispEdges"/>
<path d="M11.15 11.15H50.85V57.1762H11.15V11.15Z" stroke="#3E4246" stroke-width="0.3" shape-rendering="crispEdges"/>
</g>
<path d="M11 54.3759H51V64.4751C51 66.6843 49.2091 68.4751 47 68.4751H15C12.7909 68.4751 11 66.6843 11 64.4751V54.3759Z" fill="#3E4246"/>
<path d="M11 5.69614C11 3.2331 13.2047 1.35525 15.6363 1.74707L23.1401 2.9562C23.3795 2.99477 23.615 3.05505 23.8435 3.13627L30.8329 5.62062C31.5932 5.89085 32.4174 5.92485 33.1973 5.71815L45.9753 2.33167C48.5132 1.65905 51 3.57261 51 6.19819V15.0993H11V5.69614Z" fill="#3E4246"/>
<path d="M17.0392 57.816L23.1034 57.3885C23.7618 57.3421 24.2852 57.9368 24.1565 58.585L23.5611 61.5832C23.4733 62.0253 23.6917 62.4725 24.0944 62.6753L28.687 64.9879C29.1096 65.2008 29.6224 65.0884 29.9161 64.7186L33.2942 60.4665C33.3723 60.3681 33.4682 60.2855 33.577 60.2229L36.9121 58.3035L38.8684 57.1213C39.2002 56.9208 39.6183 56.9312 39.941 57.1478L44.0633 59.9156C44.6821 60.3311 44.6489 61.2527 44.0018 61.6184L40.0392 63.8585" stroke="#292C30" stroke-linecap="round"/>
<path d="M44.8058 9.58587L38.8522 10.8194C38.2054 10.9534 37.6079 10.4339 37.6501 9.77434L37.7468 8.26401C37.8027 7.3904 36.789 6.86985 36.1135 7.4253L32.8923 10.0738C32.6456 10.2767 32.3167 10.3491 32.0072 10.2688L28.7207 9.4158C28.4223 9.33835 28.1051 9.40284 27.8609 9.59059L25.124 11.6955C25.071 11.7363 25.0139 11.7717 24.9538 11.8011L22.9068 12.8012C22.6483 12.9276 22.3476 12.9361 22.0819 12.8248L17.8918 11.0688C17.1802 10.7706 17.0583 9.81344 17.6727 9.3484L21.2133 6.66853" stroke="#292C30" stroke-linecap="round"/>
<line x1="11" y1="14.5992" x2="51" y2="14.5992" stroke="#282B2E"/>
<line x1="11" y1="54.8829" x2="51" y2="54.8829" stroke="#282B2E"/>
<defs>
<filter id="filter0_d_178_588" x="14.9184" y="16.1051" width="33.1633" height="36.7613" filterUnits="userSpaceOnUse" color-interpolation-filters="sRGB">
<feFlood flood-opacity="0" result="BackgroundImageFix"/>
<feColorMatrix in="SourceAlpha" type="matrix" values="0 0 0 0 0 0 0 0 0 0 0 0 0 0 0 0 0 0 127 0" result="hardAlpha"/>
<feOffset/>
<feGaussianBlur stdDeviation="4.7"/>
<feComposite in2="hardAlpha" operator="out"/>
<feColorMatrix type="matrix" values="0 0 0 0 0.054902 0 0 0 0 0.843137 0 0 0 0 0.709804 0 0 0 1 0"/>
<feBlend mode="normal" in2="BackgroundImageFix" result="effect1_dropShadow_178_588"/>
<feBlend mode="normal" in="SourceGraphic" in2="effect1_dropShadow_178_588" result="shape"/>
</filter>
<filter id="filter1_i_178_588" x="12" y="18.1206" width="37" height="37.2625" filterUnits="userSpaceOnUse" color-interpolation-filters="sRGB">
<feFlood flood-opacity="0" result="BackgroundImageFix"/>
<feBlend mode="normal" in="SourceGraphic" in2="BackgroundImageFix" result="shape"/>
<feColorMatrix in="SourceAlpha" type="matrix" values="0 0 0 0 0 0 0 0 0 0 0 0 0 0 0 0 0 0 127 0" result="hardAlpha"/>
<feOffset/>
<feGaussianBlur stdDeviation="0.15"/>
<feComposite in2="hardAlpha" operator="arithmetic" k2="-1" k3="1"/>
<feColorMatrix type="matrix" values="0 0 0 0 1 0 0 0 0 1 0 0 0 0 1 0 0 0 1 0"/>
<feBlend mode="normal" in2="shape" result="effect1_innerShadow_178_588"/>
</filter>
<filter id="filter2_d_178_588" x="0.9" y="0.9" width="60.2" height="66.5262" filterUnits="userSpaceOnUse" color-interpolation-filters="sRGB">
<feFlood flood-opacity="0" result="BackgroundImageFix"/>
<feColorMatrix in="SourceAlpha" type="matrix" values="0 0 0 0 0 0 0 0 0 0 0 0 0 0 0 0 0 0 127 0" result="hardAlpha"/>
<feOffset/>
<feGaussianBlur stdDeviation="5.05"/>
<feComposite in2="hardAlpha" operator="out"/>
<feColorMatrix type="matrix" values="0 0 0 0 1 0 0 0 0 0.96 0 0 0 0 0 0 0 0 0.23 0"/>
<feBlend mode="normal" in2="BackgroundImageFix" result="effect1_dropShadow_178_588"/>
<feBlend mode="normal" in="SourceGraphic" in2="effect1_dropShadow_178_588" result="shape"/>
</filter>
</defs>
</svg>
