<svg width="40" height="68" viewBox="0 0 40 68" fill="none" xmlns="http://www.w3.org/2000/svg">
<g filter="url(#filter0_d_178_588)">
<path d="M19.0808 25.0959C19.863 24.3082 21.137 24.3082 21.9192 25.0959L27.1007 30.3142C27.8751 31.094 27.8751 32.3527 27.1007 33.1326L21.9192 38.3508C21.137 39.1386 19.863 39.1386 19.0808 38.3508L13.8993 33.1326C13.1249 32.3527 13.1249 31.094 13.8993 30.3142L19.0808 25.0959Z" fill="#0ED7B5" fill-opacity="0.32" shape-rendering="crispEdges"/>
<path d="M19.0808 28.6207C19.863 27.833 21.137 27.833 21.9192 28.6207L27.1007 33.839C27.8751 34.6189 27.8751 35.8775 27.1007 36.6574L21.9192 41.8757C21.137 42.6634 19.863 42.6634 19.0808 41.8757L13.8993 36.6574C13.1249 35.8775 13.1249 34.6189 13.8993 33.839L19.0808 28.6207Z" fill="#0ED7B5" fill-opacity="0.32" shape-rendering="crispEdges"/>
<path d="M21.8128 25.2016L26.9943 30.4198C27.7106 31.1412 27.7106 32.3055 26.9943 33.0269L26.75 33.2729L22.0256 28.515C21.1848 27.6682 19.8152 27.6682 18.9744 28.515L14.25 33.2729L14.0057 33.0269C13.2894 32.3055 13.2894 31.1412 14.0057 30.4198L19.1872 25.2016C19.9108 24.4729 21.0892 24.4729 21.8128 25.2016ZM14.0057 33.9447L14.25 33.6987L18.9744 38.4565C19.8152 39.3033 21.1848 39.3033 22.0256 38.4565L26.75 33.6987L26.9943 33.9447C27.7106 34.6661 27.7106 35.8303 26.9943 36.5517L21.8128 41.77C21.0892 42.4986 19.9108 42.4986 19.1872 41.77L14.0057 36.5517C13.2894 35.8303 13.2894 34.6661 14.0057 33.9447ZM21.8128 28.7264L26.5386 33.4858L21.8128 38.2451C21.0892 38.9738 19.9108 38.9738 19.1872 38.2451L14.4614 33.4858L19.1872 28.7264C19.9108 27.9978 21.0892 27.9978 21.8128 28.7264Z" stroke="#0ED7B5" stroke-opacity="0.53" stroke-width="0.3" shape-rendering="crispEdges"/>
</g>
<g filter="url(#filter1_i_178_588)">
<ellipse cx="5" cy="19.1348" rx="1" ry="1.00709" fill="#FFF500" fill-opacity="0.23"/>
<ellipse cx="4" cy="25.1774" rx="1" ry="1.00709" fill="#FFF500" fill-opacity="0.23"/>
<ellipse cx="2" cy="32.2271" rx="1" ry="1.00709" fill="#FFF500" fill-opacity="0.23"/>
<ellipse cx="14" cy="47.3334" rx="1" ry="1.00709" fill="#FFF500" fill-opacity="0.23"/>
<ellipse cx="14" cy="40.2837" rx="1" ry="1.00709" fill="#FFF500" fill-opacity="0.23"/>
<ellipse cx="9" cy="35.2483" rx="1" ry="1.00709" fill="#FFF500" fill-opacity="0.23"/>
<ellipse cx="16" cy="53.376" rx="1" ry="1.00709" fill="#FFF500" fill-opacity="0.23"/>
<ellipse cx="25" cy="49.3475" rx="1" ry="1.00709" fill="#FFF500" fill-opacity="0.23"/>
<ellipse cx="37" cy="52.3688" rx="1" ry="1.00709" fill="#FFF500" fill-opacity="0.23"/>
<ellipse cx="26" cy="42.2979" rx="1" ry="1.00709" fill="#FFF500" fill-opacity="0.23"/>
<ellipse cx="31" cy="30.2128" rx="1" ry="1.00709" fill="#FFF500" fill-opacity="0.23"/>
<ellipse cx="36" cy="27.1915" rx="1" ry="1.00709" fill="#FFF500" fill-opacity="0.23"/>
<ellipse cx="26" cy="25.1774" rx="1" ry="1.00709" fill="#FFF500" fill-opacity="0.23"/>
<ellipse cx="32" cy="20.1419" rx="1" ry="1.00709" fill="#FFF500" fill-opacity="0.23"/>
<ellipse cx="19" cy="21.1489" rx="1" ry="1.00709" fill="#FFF500" fill-opacity="0.23"/>
<ellipse cx="26" cy="18.1277" rx="1" ry="1.00709" fill="#FFF500" fill-opacity="0.23"/>
<ellipse cx="13" cy="24.1703" rx="1" ry="1.00709" fill="#FFF500" fill-opacity="0.23"/>
<ellipse cx="12" cy="18.1277" rx="1" ry="1.00709" fill="#FFF500" fill-opacity="0.23"/>
<ellipse cx="33" cy="48.3405" rx="1" ry="1.00709" fill="#FFF500" fill-opacity="0.23"/>
<ellipse cx="36" cy="41.2908" rx="1" ry="1.00709" fill="#FFF500" fill-opacity="0.23"/>
<ellipse cx="32" cy="37.2625" rx="1" ry="1.00709" fill="#FFF500" fill-opacity="0.23"/>
<ellipse cx="6" cy="43.3051" rx="1" ry="1.00709" fill="#FFF500" fill-opacity="0.23"/>
<ellipse cx="4" cy="48.3405" rx="1" ry="1.00709" fill="#FFF500" fill-opacity="0.23"/>
<ellipse cx="6" cy="53.376" rx="1" ry="1.00709" fill="#FFF500" fill-opacity="0.23"/>
</g>
<path d="M0.15 10.15H39.85V56.1762H0.15V10.15Z" fill="#FFF500" fill-opacity="0.26" stroke="#3E4246" stroke-width="0.3"/>
<path d="M0 53.3759H40V63.4751C40 65.6843 38.2091 67.4751 36 67.4751H4C1.79086 67.4751 0 65.6843 0 63.4751V53.3759Z" fill="#3E4246"/>
<path d="M0 4C0 1.79087 1.79086 0 4 0H12.5H21H36C38.2091 0 40 1.79086 40 4V14.0993H0V4Z" fill="#3E4246"/>
<path d="M6.03919 56.816L12.1034 56.3885C12.7618 56.3421 13.2852 56.9368 13.1565 57.585L12.5611 60.5832C12.4733 61.0253 12.6917 61.4725 13.0944 61.6753L17.687 63.9879C18.1096 64.2008 18.6224 64.0884 18.9161 63.7186L22.2942 59.4665C22.3723 59.3681 22.4682 59.2855 22.577 59.2229L25.9121 57.3035L27.8684 56.1213C28.2002 55.9208 28.6183 55.9312 28.941 56.1478L33.0633 58.9156C33.6821 59.3311 33.6489 60.2527 33.0018 60.6184L29.0392 62.8585" stroke="#292C30" stroke-linecap="round"/>
<path d="M33.8058 8.58587L27.8522 9.81936C27.2054 9.95336 26.6079 9.43389 26.6501 8.77434L26.7468 7.26401C26.8027 6.3904 25.789 5.86985 25.1135 6.4253L21.8923 9.07382C21.6456 9.27667 21.3167 9.34914 21.0072 9.26881L17.7207 8.4158C17.4223 8.33835 17.1051 8.40284 16.8609 8.59059L14.124 10.6955C14.071 10.7363 14.0139 10.7717 13.9538 10.8011L11.9068 11.8012C11.6483 11.9276 11.3476 11.9361 11.0819 11.8248L6.89178 10.0688C6.18019 9.77064 6.0583 8.81344 6.67269 8.3484L10.2133 5.66853" stroke="#292C30" stroke-linecap="round"/>
<line y1="13.5992" x2="40" y2="13.5992" stroke="#282B2E"/>
<line y1="53.8829" x2="40" y2="53.8829" stroke="#282B2E"/>
<defs>
<filter id="filter0_d_178_588" x="3.91836" y="15.1051" width="33.1633" height="36.7613" filterUnits="userSpaceOnUse" color-interpolation-filters="sRGB">
<feFlood flood-opacity="0" result="BackgroundImageFix"/>
<feColorMatrix in="SourceAlpha" type="matrix" values="0 0 0 0 0 0 0 0 0 0 0 0 0 0 0 0 0 0 127 0" result="hardAlpha"/>
<feOffset/>
<feGaussianBlur stdDeviation="4.7"/>
<feComposite in2="hardAlpha" operator="out"/>
<feColorMatrix type="matrix" values="0 0 0 0 0.054902 0 0 0 0 0.843137 0 0 0 0 0.709804 0 0 0 1 0"/>
<feBlend mode="normal" in2="BackgroundImageFix" result="effect1_dropShadow_178_588"/>
<feBlend mode="normal" in="SourceGraphic" in2="effect1_dropShadow_178_588" result="shape"/>
</filter>
<filter id="filter1_i_178_588" x="1" y="17.1206" width="37" height="37.2625" filterUnits="userSpaceOnUse" color-interpolation-filters="sRGB">
<feFlood flood-opacity="0" result="BackgroundImageFix"/>
<feBlend mode="normal" in="SourceGraphic" in2="BackgroundImageFix" result="shape"/>
<feColorMatrix in="SourceAlpha" type="matrix" values="0 0 0 0 0 0 0 0 0 0 0 0 0 0 0 0 0 0 127 0" result="hardAlpha"/>
<feOffset/>
<feGaussianBlur stdDeviation="0.15"/>
<feComposite in2="hardAlpha" operator="arithmetic" k2="-1" k3="1"/>
<feColorMatrix type="matrix" values="0 0 0 0 1 0 0 0 0 1 0 0 0 0 1 0 0 0 1 0"/>
<feBlend mode="normal" in2="shape" result="effect1_innerShadow_178_588"/>
</filter>
</defs>
</svg>
