<svg width="146" height="146" viewBox="0 0 146 146" fill="none" xmlns="http://www.w3.org/2000/svg">
<rect x="64.1787" y="44.4806" width="33" height="73" fill="#1B1A18"/>
<g filter="url(#filter0_d_178_755)">
<rect x="60.1787" y="109.481" width="41" height="8" rx="3" fill="#1B1A18"/>
</g>
<g filter="url(#filter1_d_178_755)">
<rect x="60.1787" y="43.4806" width="41" height="8" rx="3" fill="#1B1A18"/>
</g>
<path d="M66.8135 59.0182C67.2415 58.7548 68.0874 58.9173 68.5956 58.9173C69.3495 58.9173 70.0257 58.8524 70.7027 58.5138C71.065 58.3327 71.4248 58.0666 71.633 57.7068C71.8778 57.2841 72.5278 57.0159 72.9892 56.8774C74.1786 56.5206 75.5853 56.8508 76.4414 57.7068C77.0924 58.3578 77.6641 59.0753 78.3132 59.7243C78.7531 60.1642 79.6171 60.6114 80.2186 60.7331C81.3379 60.9595 82.1214 60.7944 83.1327 60.352C84.2837 59.8484 85.1899 58.9344 86.5064 58.9173C87.074 58.91 87.6275 58.7864 88.1988 58.8165C88.6864 58.8421 88.9884 59.5062 89.4317 59.5226C90.1897 59.5507 91.0095 59.6235 91.7294 59.6235" stroke="black" stroke-width="3" stroke-linecap="round"/>
<path d="M66.6113 68.6012C67.9769 68.6012 69.3039 67.9241 70.6687 67.8951C71.4955 67.8775 71.9012 67.9734 72.462 68.6236C73.0476 69.3025 73.0203 69.8355 73.9976 69.8117C76.2391 69.757 76.8472 67.4897 77.9877 66.0233C78.8056 64.9718 80.3647 67.7103 80.7337 68.1977C81.1448 68.7406 81.5736 69.3293 82.146 69.7108C82.7068 70.0847 83.4348 69.8909 84.0402 69.7333C84.8217 69.5297 85.053 69.4436 85.5981 70.0583C86.2166 70.7558 87.083 70.5832 87.8958 70.2937C89.0889 69.8687 89.9883 70.0135 91.2023 70.0135C91.6319 70.0135 91.973 69.7906 92.3343 69.61" stroke="black" stroke-width="3" stroke-linecap="round"/>
<path d="M67.3174 78.9913C68.1994 78.9913 69.004 78.8771 69.8561 78.627C70.7901 78.3529 71.7118 78.0327 72.6189 77.6799C73.3149 77.4092 74.0176 77.0814 74.7821 77.1027C76.2855 77.1444 77.0069 78.8894 78.3967 79.3667C80.1171 79.9576 82.1819 79.788 83.8552 79.1426C85.7175 78.4242 87.7549 78.4869 89.7339 78.4869C90.4057 78.4869 91.0869 78.386 91.729 78.386" stroke="black" stroke-width="3" stroke-linecap="round"/>
<path d="M67.2168 86.2542C67.2637 86.6294 70.1011 86.1918 70.3831 86.159C71.8193 85.9916 73.3046 85.6529 74.4013 86.7362C75.4882 87.8098 76.5302 88.779 78.0888 89.0731C79.7492 89.3864 81.5506 89.4206 83.2222 89.1908C84.3483 89.036 85.0667 88.612 85.957 87.9915C86.7886 87.4119 87.9837 87.7196 88.9328 87.6553C89.5193 87.6155 89.8972 87.3638 90.4964 87.3638C90.9278 87.3638 91.665 87.5597 91.8918 87.1565C92.0652 86.8481 92.4441 86.7038 92.738 86.5569" stroke="black" stroke-width="3" stroke-linecap="round"/>
<path d="M67.1152 96.6444C68.1539 96.6444 68.988 95.7266 69.8613 95.277C70.4338 94.9821 71.2285 94.712 71.8787 94.8959C72.6786 95.1221 72.9422 95.9086 73.3078 96.5603C73.7827 97.4069 74.7113 96.8952 75.4374 96.7004C75.9613 96.5598 76.465 96.5435 77.0009 96.5435" stroke="black" stroke-width="3" stroke-linecap="round"/>
<path d="M84.5674 96.9469C85.0281 97.282 86.0954 96.9719 86.5961 96.8909C87.4779 96.7482 88.3144 96.6443 89.2076 96.6443C90.2836 96.6443 91.3596 96.6443 92.4356 96.6443" stroke="black" stroke-width="3" stroke-linecap="round"/>
<circle cx="70.1787" cy="105.481" r="3" fill="#2E1010"/>
<path d="M43.9795 35.6652L57.9664 28.6716C58.5947 28.3574 59.3418 28.3959 59.9345 28.7731L69.2209 34.6824C69.7034 34.9894 70.2942 35.0752 70.8441 34.9181L76.1592 33.3995C76.6832 33.2498 77.2456 33.3204 77.7164 33.595L82.9792 36.6652L85.4792 41.1652L80.9795 41.6652L76.5933 39.472C76.1955 39.2731 75.7427 39.2125 75.3066 39.2997L69.2636 40.5083C68.7602 40.609 68.2374 40.5123 67.8034 40.2382L59.973 35.2928C59.3595 34.9054 58.5843 34.8806 57.9473 35.228L47.9792 40.6652L49.9795 35.6652L43.9795 35.6652Z" fill="#151718"/>
<g filter="url(#filter2_d_178_755)">
<path d="M50.9795 35.1652L58.7583 31.7624L68.9795 37.6653L76.4795 36.1653L81.4795 39.1653" stroke="#A259FF" stroke-linecap="round"/>
</g>
<defs>
<filter id="filter0_d_178_755" x="56.1787" y="104.981" width="49" height="16" filterUnits="userSpaceOnUse" color-interpolation-filters="sRGB">
<feFlood flood-opacity="0" result="BackgroundImageFix"/>
<feColorMatrix in="SourceAlpha" type="matrix" values="0 0 0 0 0 0 0 0 0 0 0 0 0 0 0 0 0 0 127 0" result="hardAlpha"/>
<feOffset dy="-0.5"/>
<feGaussianBlur stdDeviation="2"/>
<feComposite in2="hardAlpha" operator="out"/>
<feColorMatrix type="matrix" values="0 0 0 0 0 0 0 0 0 0 0 0 0 0 0 0 0 0 0.25 0"/>
<feBlend mode="normal" in2="BackgroundImageFix" result="effect1_dropShadow_178_755"/>
<feBlend mode="normal" in="SourceGraphic" in2="effect1_dropShadow_178_755" result="shape"/>
</filter>
<filter id="filter1_d_178_755" x="56.1787" y="39.9806" width="49" height="16" filterUnits="userSpaceOnUse" color-interpolation-filters="sRGB">
<feFlood flood-opacity="0" result="BackgroundImageFix"/>
<feColorMatrix in="SourceAlpha" type="matrix" values="0 0 0 0 0 0 0 0 0 0 0 0 0 0 0 0 0 0 127 0" result="hardAlpha"/>
<feOffset dy="0.5"/>
<feGaussianBlur stdDeviation="2"/>
<feComposite in2="hardAlpha" operator="out"/>
<feColorMatrix type="matrix" values="0 0 0 0 0 0 0 0 0 0 0 0 0 0 0 0 0 0 0.25 0"/>
<feBlend mode="normal" in2="BackgroundImageFix" result="effect1_dropShadow_178_755"/>
<feBlend mode="normal" in="SourceGraphic" in2="effect1_dropShadow_178_755" result="shape"/>
</filter>
<filter id="filter2_d_178_755" x="45.8795" y="27.603" width="40.7" height="17.6624" filterUnits="userSpaceOnUse" color-interpolation-filters="sRGB">
<feFlood flood-opacity="0" result="BackgroundImageFix"/>
<feColorMatrix in="SourceAlpha" type="matrix" values="0 0 0 0 0 0 0 0 0 0 0 0 0 0 0 0 0 0 127 0" result="hardAlpha"/>
<feOffset dy="1"/>
<feGaussianBlur stdDeviation="2.3"/>
<feComposite in2="hardAlpha" operator="out"/>
<feColorMatrix type="matrix" values="0 0 0 0 0.635294 0 0 0 0 0.34902 0 0 0 0 1 0 0 0 1 0"/>
<feBlend mode="normal" in2="BackgroundImageFix" result="effect1_dropShadow_178_755"/>
<feBlend mode="normal" in="SourceGraphic" in2="effect1_dropShadow_178_755" result="shape"/>
</filter>
</defs>
</svg>
