<svg width="52" height="90" viewBox="0 0 52 90" fill="none" xmlns="http://www.w3.org/2000/svg">
<rect x="11" y="13" width="33" height="73" fill="#D1CFC1"/>
<g filter="url(#filter0_d_178_698)">
<rect x="7" y="78" width="41" height="8" rx="3" fill="#D1CFC1"/>
</g>
<g filter="url(#filter1_d_178_698)">
<rect x="7" y="12" width="41" height="8" rx="3" fill="#D1CFC1"/>
</g>
<path d="M13.6348 27.5376C14.0628 27.2742 14.9087 27.4367 15.4169 27.4367C16.1708 27.4367 16.8469 27.3718 17.524 27.0333C17.8863 26.8521 18.2461 26.586 18.4543 26.2263C18.699 25.8036 19.349 25.5353 19.8105 25.3968C20.9999 25.04 22.4066 25.3702 23.2627 26.2263C23.9136 26.8772 24.4854 27.5947 25.1344 28.2437C25.5743 28.6836 26.4384 29.1308 27.0398 29.2525C28.1592 29.4789 28.9427 29.3138 29.954 28.8714C31.105 28.3678 32.0112 27.4538 33.3277 27.4367C33.8953 27.4294 34.4488 27.3058 35.0201 27.3359C35.5077 27.3615 35.8097 28.0256 36.253 28.042C37.011 28.0701 37.8308 28.1429 38.5507 28.1429" stroke="black" stroke-width="3" stroke-linecap="round"/>
<path d="M13.4326 37.1205C14.7982 37.1205 16.1252 36.4434 17.49 36.4144C18.3168 36.3968 18.7225 36.4927 19.2833 37.1429C19.8688 37.8218 19.8416 38.3548 20.8189 38.331C23.0604 38.2763 23.6685 36.009 24.809 34.5426C25.6268 33.4911 27.186 36.2296 27.555 36.717C27.9661 37.2599 28.3949 37.8485 28.9673 38.2301C29.5281 38.604 30.2561 38.4102 30.8615 38.2525C31.643 38.049 31.8743 37.9629 32.4194 38.5776C33.0379 39.275 33.9042 39.1025 34.7171 38.813C35.9102 38.388 36.8095 38.5327 38.0235 38.5327C38.4532 38.5327 38.7943 38.3099 39.1556 38.1293" stroke="black" stroke-width="3" stroke-linecap="round"/>
<path d="M14.1387 47.5107C15.0207 47.5107 15.8253 47.3965 16.6773 47.1464C17.6114 46.8723 18.533 46.5521 19.4402 46.1993C20.1362 45.9286 20.8388 45.6008 21.6034 45.6221C23.1068 45.6638 23.8282 47.4088 25.218 47.8861C26.9384 48.477 29.0032 48.3074 30.6765 47.662C32.5388 46.9436 34.5762 47.0063 36.5552 47.0063C37.227 47.0063 37.9081 46.9054 38.5503 46.9054" stroke="black" stroke-width="3" stroke-linecap="round"/>
<path d="M14.0381 54.7738C14.085 55.1489 16.9223 54.7114 17.2044 54.6785C18.6406 54.5112 20.1259 54.1724 21.2226 55.2557C22.3095 56.3293 23.3515 57.2986 24.9101 57.5926C26.5705 57.9059 28.3719 57.9401 30.0435 57.7103C31.1696 57.5555 31.888 57.1316 32.7783 56.511C33.6099 55.9314 34.805 56.2391 35.7541 56.1748C36.3406 56.135 36.7185 55.8834 37.3176 55.8834C37.7491 55.8834 38.4862 56.0793 38.7131 55.676C38.8865 55.3676 39.2654 55.2233 39.5593 55.0764" stroke="black" stroke-width="3" stroke-linecap="round"/>
<path d="M13.9365 65.1638C14.9751 65.1638 15.8093 64.246 16.6825 63.7964C17.2551 63.5015 18.0498 63.2314 18.7 63.4153C19.4999 63.6415 19.7635 64.428 20.1291 65.0797C20.604 65.9263 21.5326 65.4146 22.2587 65.2198C22.7826 65.0793 23.2863 65.0629 23.8222 65.0629" stroke="black" stroke-width="3" stroke-linecap="round"/>
<path d="M31.3887 65.4663C31.8494 65.8014 32.9167 65.4913 33.4174 65.4103C34.2992 65.2676 35.1357 65.1637 36.0289 65.1637C37.1049 65.1637 38.1809 65.1637 39.2569 65.1637" stroke="black" stroke-width="3" stroke-linecap="round"/>
<circle cx="17" cy="74" r="3" fill="#D93C3C"/>
<path d="M3.40493 25.5231L12.6923 12.9419C13.1095 12.3767 13.7927 12.0718 14.492 12.1388L25.449 13.1881C26.0183 13.2427 26.5837 13.0509 27.0023 12.6613L31.0487 8.89517C31.4476 8.52386 31.9808 8.33143 32.5249 8.3624L38.6079 8.70864L42.8784 11.5832L39.0961 14.0715L34.1923 14.1087C33.7476 14.1121 33.3166 14.2636 32.9677 14.5393L28.132 18.3597C27.7292 18.6779 27.2195 18.8291 26.7083 18.7819L17.4862 17.9305C16.7637 17.8638 16.0617 18.1936 15.6519 18.7924L9.23864 28.1623L8.75097 22.7992L3.40493 25.5231Z" fill="#FF7262"/>
<path d="M9.4154 21.8996L14.8015 15.3362L26.5885 15.9554L32.5901 11.2139L38.4072 11.617" stroke="#A259FF" stroke-linecap="round"/>
<path d="M25.426 13.5618C24.6316 13.3265 23.797 13.7797 23.5618 14.574C23.3265 15.3684 23.7797 16.203 24.574 16.4382L25.426 13.5618ZM24.574 16.4382L29.6717 17.948L30.5236 15.0715L25.426 13.5618L24.574 16.4382Z" fill="#DDDBDB"/>
<g filter="url(#filter2_d_178_698)">
<circle cx="29.5" cy="16.5" r="4.5" fill="#D9D9D9"/>
<circle cx="29.5" cy="16.5" r="4.4" stroke="#C1C1C1" stroke-width="0.2"/>
</g>
<defs>
<filter id="filter0_d_178_698" x="3" y="73.5" width="49" height="16" filterUnits="userSpaceOnUse" color-interpolation-filters="sRGB">
<feFlood flood-opacity="0" result="BackgroundImageFix"/>
<feColorMatrix in="SourceAlpha" type="matrix" values="0 0 0 0 0 0 0 0 0 0 0 0 0 0 0 0 0 0 127 0" result="hardAlpha"/>
<feOffset dy="-0.5"/>
<feGaussianBlur stdDeviation="2"/>
<feComposite in2="hardAlpha" operator="out"/>
<feColorMatrix type="matrix" values="0 0 0 0 0 0 0 0 0 0 0 0 0 0 0 0 0 0 0.25 0"/>
<feBlend mode="normal" in2="BackgroundImageFix" result="effect1_dropShadow_178_698"/>
<feBlend mode="normal" in="SourceGraphic" in2="effect1_dropShadow_178_698" result="shape"/>
</filter>
<filter id="filter1_d_178_698" x="3" y="8.5" width="49" height="16" filterUnits="userSpaceOnUse" color-interpolation-filters="sRGB">
<feFlood flood-opacity="0" result="BackgroundImageFix"/>
<feColorMatrix in="SourceAlpha" type="matrix" values="0 0 0 0 0 0 0 0 0 0 0 0 0 0 0 0 0 0 127 0" result="hardAlpha"/>
<feOffset dy="0.5"/>
<feGaussianBlur stdDeviation="2"/>
<feComposite in2="hardAlpha" operator="out"/>
<feColorMatrix type="matrix" values="0 0 0 0 0 0 0 0 0 0 0 0 0 0 0 0 0 0 0.25 0"/>
<feBlend mode="normal" in2="BackgroundImageFix" result="effect1_dropShadow_178_698"/>
<feBlend mode="normal" in="SourceGraphic" in2="effect1_dropShadow_178_698" result="shape"/>
</filter>
<filter id="filter2_d_178_698" x="18.2" y="9.2" width="18.6" height="18.6" filterUnits="userSpaceOnUse" color-interpolation-filters="sRGB">
<feFlood flood-opacity="0" result="BackgroundImageFix"/>
<feColorMatrix in="SourceAlpha" type="matrix" values="0 0 0 0 0 0 0 0 0 0 0 0 0 0 0 0 0 0 127 0" result="hardAlpha"/>
<feOffset dx="-2" dy="2"/>
<feGaussianBlur stdDeviation="2.4"/>
<feComposite in2="hardAlpha" operator="out"/>
<feColorMatrix type="matrix" values="0 0 0 0 0 0 0 0 0 0 0 0 0 0 0 0 0 0 0.25 0"/>
<feBlend mode="normal" in2="BackgroundImageFix" result="effect1_dropShadow_178_698"/>
<feBlend mode="normal" in="SourceGraphic" in2="effect1_dropShadow_178_698" result="shape"/>
</filter>
</defs>
</svg>
