<svg width="42" height="48" viewBox="0 0 42 48" fill="none" xmlns="http://www.w3.org/2000/svg">
<path d="M0 7.64124L9.7082 0.587812L11.0671 3.30876L11.4336 5.51458L12.4986 7.83101L14.8877 8.56737L17.8645 10.1127L18.525 12.7231L16.0253 12.6851L14.4072 13.8607L13.6709 16.2498L13.2284 19.0434L10.9499 17.6086L8.81678 19.7765L0 7.64124Z" fill="#1B1A18"/>
<path d="M5.95401 10.8225C6.00429 10.6062 6.10993 10.4031 6.20366 10.2036C6.29529 10.0085 6.38464 9.81324 6.46677 9.61392C6.53039 9.45949 6.58162 9.28354 6.69031 9.15262C7.07045 8.69474 7.6978 9.18524 8.18069 8.95081C8.51524 8.7884 8.77038 8.52903 9.03433 8.27591C9.12028 8.19348 9.20993 8.1456 9.32709 8.12767C9.59712 8.08635 9.98332 7.98381 10.0744 7.68824C10.1405 7.47381 10.132 7.20054 10.3212 7.05185C10.5138 6.90049 10.6996 6.96637 10.9182 6.99706C11.0314 7.01296 11.1581 7.00432 11.2733 7.01257C11.3561 7.01851 11.518 6.82099 11.5067 6.75311" stroke="#0D1117" stroke-linecap="round"/>
<path d="M8.7139 13.846C8.76048 13.8958 9.4843 12.8753 9.52506 12.825C9.74032 12.5594 10.0652 12.0623 10.4699 12.117C10.6544 12.1419 10.824 12.2145 11.0126 12.2267C11.3051 12.2457 11.5889 12.1798 11.8566 12.0628C12.2596 11.8867 12.6754 11.5942 12.9108 11.2149C13.0114 11.0527 13.0437 10.8738 13.1841 10.7389C13.3716 10.5588 13.5915 10.4429 13.803 10.2893C13.9888 10.1543 14.176 10.0165 14.3126 9.82915C14.3572 9.76797 14.4224 9.5847 14.5177 9.58443C14.6832 9.58396 14.8561 9.6199 15.0222 9.60663C15.2259 9.59034 15.3068 9.50215 15.4338 9.35051" stroke="#0D1117" stroke-linecap="round"/>
<path d="M10.7155 16.5054C11.0921 16.1623 11.3587 15.72 11.7641 15.3998C11.9326 15.2666 12.1217 15.2814 12.3276 15.2853C12.8154 15.2946 13.2676 15.1074 13.6323 14.7769C13.7924 14.6318 13.9141 14.4158 14.0004 14.2243C14.0332 14.1515 14.1271 14.1242 14.1383 14.0538" stroke="#0D1117" stroke-linecap="round"/>
<path d="M17.0803 12.5749C17.4061 12.231 17.7993 12.0524 18.1774 11.7777" stroke="#0D1117" stroke-linecap="round"/>
<path d="M31.7352 7.41146L41.7992 13.9471L33.6296 26.5272L33.1669 22.6496L28.9952 21.729L25.6622 21.3531L24.3825 18.7335L28.8265 19.2347L31.1521 16.5717L31.2557 13.6581L27.9227 13.2822L28.1733 11.0602L31.2122 10.0528L31.7352 7.41146Z" fill="#1B1A18"/>
<path d="M30.2225 10.4758C30.4418 10.6182 30.7818 10.5417 31.0308 10.5862C31.3643 10.6458 31.5859 10.8228 31.6452 11.1587C31.7059 11.5031 31.68 11.7733 31.9825 12.0006C32.3679 12.2901 32.8184 12.3022 33.2405 12.4969C33.5381 12.6342 33.5811 12.7554 33.748 13.0266C33.8972 13.2691 34.1275 13.4558 34.406 13.5193C35.0666 13.6697 35.556 14.0045 36.0582 14.4493" stroke="#0D1117" stroke-linecap="round"/>
<path d="M31.2987 15.3274C31.5618 15.4983 31.8543 15.6082 32.1515 15.7057C32.2467 15.7369 32.441 15.746 32.4858 15.8574C32.5463 16.0079 32.5209 16.1856 32.5762 16.3408C32.714 16.728 33.092 16.95 33.4303 17.1446C33.6356 17.2626 33.973 17.3836 34.1049 17.5929C34.2755 17.8636 34.5973 17.7703 34.8638 17.902C35.0254 17.9818 35.2364 18.1893 35.1996 18.3753" stroke="#0D1117" stroke-linecap="round"/>
<path d="M29.5338 18.6653C29.6807 18.77 29.7936 18.9405 29.9636 19.0097C30.0897 19.0611 30.2282 19.0563 30.3596 19.079C30.6164 19.1234 30.721 19.326 30.9284 19.4607" stroke="#0D1117" stroke-linecap="round"/>
<path d="M32.9629 20.8551C33.0527 20.9421 33.1181 21.0662 33.2227 21.1341" stroke="#0D1117" stroke-linecap="round"/>
<path d="M25.9493 20.5635C25.9131 20.6381 26.1367 20.653 26.1641 20.654C26.4518 20.665 26.7241 20.5326 27.013 20.5479C27.0897 20.5519 27.1116 20.6043 27.1299 20.6728C27.1665 20.8091 27.2085 20.9035 27.3308 20.9829C27.5427 21.1206 27.7958 21.2114 28.0106 21.3509" stroke="#0D1117" stroke-linecap="round"/>
<path d="M25.7515 20.3616C25.5728 20.2402 25.3868 20.0915 25.3078 19.8815C25.2578 19.7488 25.2322 19.7385 25.1083 19.6479C24.9357 19.5217 24.9093 19.431 24.9257 19.2312C24.9291 19.1897 24.8667 19.2906 24.8582 19.3037" stroke="#0D1117" stroke-linecap="round"/>
<path d="M1.9193 36.6241L3.35733 35.9667L3.79704 33.5057L5.57607 33.2141L6.91539 35.3834L8.01242 34.3604L9.03542 35.4575L12.5688 35.5809L13.0332 32.4132L13.0825 30.9998L15.7612 35.3386L16.0281 37.8243L18.8055 39.3363L20.9255 39.4104L12.1493 47.5944L1.9193 36.6241Z" fill="#1B1A18"/>
<path d="M5.33292 36.7769C5.46313 36.6058 5.52447 36.3963 5.59974 36.1972C5.62492 36.1306 5.7414 35.6473 5.83212 35.6231C6.07157 35.5593 6.452 36.1643 6.65395 36.0183C6.82653 35.8935 6.97602 35.7212 7.13173 35.576" stroke="#0D1117" stroke-linecap="round"/>
<path d="M9.00747 38.3544C8.95886 38.2666 9.28839 38.0766 9.33363 38.037C9.65035 37.7599 9.95398 37.3857 10.0084 36.9544C10.0565 36.5734 10.2286 36.6768 10.5298 36.637C10.9979 36.5751 11.2084 36.2491 11.5157 35.9625C11.6508 35.8365 11.8792 35.7956 12.0299 35.6551" stroke="#0D1117" stroke-linecap="round"/>
<path d="M9.75192 41.7701C9.81441 41.6183 9.84517 41.4504 9.88164 41.2918C10.0139 40.7165 10.1871 40.2177 10.5187 39.7215C10.6297 39.5554 10.8529 39.1763 11.0911 39.1182C11.2137 39.0883 11.3886 39.1688 11.5138 39.1741C11.9896 39.1941 12.4134 38.7734 12.7203 38.4594C12.8727 38.3034 12.986 38.0484 13.1721 37.9289C13.3091 37.8409 13.4672 37.7954 13.6065 37.6992C14.1308 37.3372 14.6251 36.9418 15.113 36.5326C15.3168 36.3617 15.3402 36.4569 15.4967 36.6248C15.5892 36.7239 15.5407 36.6399 15.5121 36.5774" stroke="#0D1117" stroke-linecap="round"/>
<path d="M11.9986 43.4035C12.3192 42.7314 12.5747 42.0224 13.0758 41.4517C13.2124 41.2962 13.3879 41.2847 13.583 41.2602C14.0377 41.203 14.4281 41.0692 14.8089 40.8067C15.1357 40.5814 15.352 40.2844 15.6299 40.0252C15.742 39.9207 15.8876 39.8483 16.0029 39.7408C16.1948 39.5618 16.3384 39.3566 16.5312 39.1768C16.6578 39.0588 16.7059 38.7323 16.8857 38.7749" stroke="#0D1117" stroke-linecap="round"/>
<path d="M6.44336 30.0808L6.48778 30.1284" stroke="#0D1117" stroke-linecap="round"/>
<path d="M14.7598 24.1969L16.2598 23.6969L17.2598 24.1969L18.2598 24.6969L20.2598 24.1969L19.2598 25.6969V27.1969L19.7598 28.1969L18.2598 27.6969L16.7598 28.1969L16.2598 27.1969L14.7598 27.6969L15.2598 26.6969V25.6969L15.7598 24.6969L14.7598 24.1969Z" fill="#1B1A18"/>
<path d="M15.9766 25.6689C16.1765 25.6689 16.3774 25.6791 16.5749 25.6436C16.7101 25.6194 16.7289 25.6938 16.7984 25.801C16.8293 25.8487 16.8488 25.8926 16.9081 25.9049C16.9985 25.9238 17.1086 25.9203 17.1986 25.902C17.2929 25.8828 17.3515 25.817 17.4346 25.7767C17.5386 25.7263 17.6819 25.7621 17.7911 25.7777C17.8754 25.7897 17.9655 25.7863 18.0476 25.8097C18.0762 25.8179 18.0912 25.8493 18.1272 25.8573C18.1822 25.8696 18.2457 25.8612 18.3021 25.8612" stroke="#0D1117" stroke-linecap="round"/>
</svg>
