<svg width="415" height="471" viewBox="0 0 415 471" fill="none" xmlns="http://www.w3.org/2000/svg">
<g filter="url(#filter0_d_178_646)">
<path d="M237.663 397.104C212.587 404.004 177.42 390.397 153.513 364.545C143.003 353.18 122.742 315.574 116.718 296.251C107.242 265.853 102.648 230.708 104.087 199.621C104.732 185.697 106.452 174.834 107.665 177.029C107.997 177.631 108.019 184.615 107.714 192.549C107.116 208.069 108.393 220.274 109.76 212.102C110.157 209.726 111.945 198.82 113.733 187.866C117.934 162.131 127.125 138.726 138.696 124.295C160.774 96.7596 196.44 92.9012 226.314 114.816C252.217 133.819 277.267 172.797 288.272 211.226C305.882 272.719 298.308 340.071 269.962 374.042C258.604 387.654 250.201 393.654 237.663 397.104ZM261.525 365.654L264.979 360.108L253.694 364.378C234.441 371.663 219.537 369.225 201.421 355.825C188.563 346.315 184.63 339.419 196.336 346.906C214.858 358.755 235.113 360.753 248.461 352.048C258.998 345.175 265.657 335.921 271.898 319.48C281.707 293.635 281.114 257.927 270.243 219.918C263.946 197.9 243.176 157.277 232.819 146.723C226.83 140.621 226.994 141.181 237.865 163.951C244.046 176.896 249.446 190.118 249.867 193.332C250.44 197.717 248.281 194.37 241.221 179.932C226.758 150.345 210.104 132.841 190.851 126.979C177.981 123.061 168.12 125.31 157.498 134.587C140.455 149.472 132.598 172.07 131.397 209.662C129.288 275.678 156.753 345.394 194.875 370.79C217.933 386.151 250.313 383.655 261.525 365.654Z" fill="#FF0000"/>
</g>
<g filter="url(#filter1_d_178_646)">
<path d="M11 300.25H97C100.728 300.25 103.75 303.272 103.75 307V350.96C103.75 353.106 102.729 355.125 101.001 356.397L81.0587 371.071C78.7284 372.786 77.6407 375.722 78.2913 378.541L81.2778 391.482C82.2539 395.712 79.0415 399.75 74.7006 399.75H11C7.27208 399.75 4.25 396.728 4.25 393V307C4.25 303.272 7.27208 300.25 11 300.25Z" fill="#0F1215" stroke="#0D1117" stroke-width="0.5"/>
<path d="M30 201.25H116C119.728 201.25 122.75 204.272 122.75 208V228.724C122.75 230.997 121.606 233.117 119.707 234.365L95.846 250.045C91.7505 252.736 91.4495 258.631 95.2497 261.726L120.262 282.093C121.836 283.375 122.75 285.297 122.75 287.327V294C122.75 297.728 119.728 300.75 116 300.75H30C26.2721 300.75 23.25 297.728 23.25 294V208C23.25 204.272 26.2721 201.25 30 201.25Z" fill="#0F1215" stroke="#0D1117" stroke-width="0.5"/>
<path d="M268 200.25H354C357.728 200.25 360.75 203.272 360.75 207V293C360.75 296.728 357.728 299.75 354 299.75H301.146C296.853 299.75 293.65 295.795 294.544 291.595L300.313 264.478C301.453 259.121 296.47 254.483 291.208 256.005L269.875 262.173C265.558 263.422 261.25 260.183 261.25 255.689V207C261.25 203.272 264.272 200.25 268 200.25Z" fill="#0F1215" stroke="#0D1117" stroke-width="0.5"/>
<path d="M249 101.25H335C338.728 101.25 341.75 104.272 341.75 108V194C341.75 197.728 338.728 200.75 335 200.75H274.765C270.435 200.75 267.225 196.73 268.183 192.507L276.147 157.391C276.828 154.39 275.54 151.287 272.935 149.649L245.408 132.347C243.443 131.112 242.25 128.953 242.25 126.632V108C242.25 104.272 245.272 101.25 249 101.25Z" fill="#0F1215" stroke="#0D1117" stroke-width="0.5"/>
<path d="M66 102.25H152C155.728 102.25 158.75 105.272 158.75 109V135.101C158.75 136.891 158.039 138.608 156.773 139.873L139.757 156.889C138.168 158.479 137.405 160.716 137.694 162.946L141.73 194.134C142.253 198.172 139.108 201.75 135.036 201.75H66C62.2721 201.75 59.25 198.728 59.25 195V109C59.25 105.272 62.2721 102.25 66 102.25Z" fill="#0F1215" stroke="#0D1117" stroke-width="0.5"/>
<path d="M124 2.25H210C213.728 2.25 216.75 5.27208 216.75 9V77.9958C216.75 78.6381 216.658 79.277 216.478 79.8934L205.732 116.576C204.258 121.609 197.858 123.111 194.298 119.261L180.262 104.078C178.89 102.594 176.96 101.75 174.938 101.75H124C120.272 101.75 117.25 98.7279 117.25 95V9C117.25 5.27208 120.272 2.25 124 2.25Z" fill="#0F1215" stroke="#0D1117" stroke-width="0.5"/>
<path d="M224 2.25H310C313.728 2.25 316.75 5.27208 316.75 9V95C316.75 98.7279 313.728 101.75 310 101.75H252.932C248.29 101.75 245.404 96.7055 247.758 92.704C250.026 88.8487 247.815 83.908 243.429 83.0308L222.676 78.8803C219.521 78.2493 217.25 75.479 217.25 72.2614V9C217.25 5.27208 220.272 2.25 224 2.25Z" fill="#0F1215" stroke="#0D1117" stroke-width="0.5"/>
<path d="M318 300.25H379.673C381.422 300.25 383.102 300.928 384.36 302.143L408.687 325.616C410.005 326.888 410.75 328.641 410.75 330.473V393C410.75 396.728 407.728 399.75 404 399.75H311H292.567C287.083 399.75 283.888 393.557 287.066 389.088L309.908 356.966C310.781 355.739 311.25 354.271 311.25 352.765V307C311.25 303.272 314.272 300.25 318 300.25Z" fill="#0F1215" stroke="#0D1117" stroke-width="0.5"/>
</g>
<path d="M333.72 328.86L332.06 330.345L333.944 331.477L334.476 329.314C334.487 329.223 334.482 329.149 334.462 329.093C334.449 329.042 334.418 329.002 334.37 328.973L334.07 328.793C334.022 328.764 333.969 328.754 333.91 328.762C333.858 328.775 333.795 328.807 333.72 328.86ZM329.618 334.137C329.527 334.289 329.423 334.38 329.308 334.408C329.206 334.434 329.078 334.401 328.926 334.31L327.162 333.25C327.01 333.158 326.918 333.059 326.884 332.952C326.863 332.841 326.899 332.71 326.99 332.558L328.894 329.39C329.038 329.15 329.24 328.896 329.499 328.627C329.767 328.363 330.105 328.071 330.515 327.751L333.196 325.654C333.326 325.547 333.458 325.491 333.592 325.484C333.735 325.483 333.886 325.53 334.046 325.626L337.274 327.566C337.426 327.657 337.531 327.764 337.588 327.885C337.654 328.012 337.67 328.157 337.636 328.322L337.043 331.674C336.953 332.186 336.851 332.62 336.735 332.975C336.628 333.335 336.502 333.635 336.358 333.875L334.454 337.043C334.363 337.195 334.26 337.285 334.144 337.314C334.042 337.34 333.915 337.307 333.763 337.216L331.951 336.127C331.791 336.031 331.69 335.926 331.648 335.814C331.619 335.699 331.651 335.566 331.742 335.414L332.752 333.733L330.628 332.457L329.618 334.137ZM344.395 340.517C344.174 340.885 343.916 341.188 343.622 341.424C343.34 341.658 342.994 341.799 342.584 341.846C342.187 341.891 341.713 341.829 341.16 341.661C340.608 341.492 339.96 341.184 339.216 340.737C338.472 340.29 337.896 339.863 337.488 339.454C337.08 339.046 336.799 338.653 336.644 338.277C336.502 337.898 336.464 337.526 336.529 337.163C336.608 336.797 336.758 336.429 336.979 336.061L340.548 330.121C340.64 329.969 340.737 329.88 340.839 329.855C340.954 329.826 341.088 329.857 341.24 329.949L343.124 331.081C343.276 331.172 343.362 331.273 343.383 331.383C343.417 331.491 343.388 331.62 343.296 331.772L340.008 337.244C339.912 337.404 339.891 337.577 339.943 337.761C340.001 337.937 340.237 338.15 340.654 338.4C341.078 338.655 341.381 338.766 341.563 338.734C341.751 338.694 341.892 338.594 341.988 338.434L345.276 332.962C345.368 332.81 345.465 332.721 345.567 332.696C345.682 332.667 345.816 332.698 345.968 332.79L347.792 333.886C347.944 333.977 348.03 334.078 348.051 334.188C348.085 334.296 348.056 334.425 347.965 334.577L344.395 340.517ZM353.931 340.514L353.008 342.05L353.908 342.591C354.116 342.716 354.287 342.748 354.422 342.687C354.561 342.619 354.679 342.504 354.775 342.344L355.02 341.936C355.116 341.776 355.159 341.622 355.15 341.475C355.145 341.32 355.039 341.18 354.831 341.055L353.931 340.514ZM349.605 346.735L347.757 345.624C347.605 345.533 347.512 345.434 347.479 345.326C347.458 345.216 347.493 345.085 347.585 344.933L352.257 337.156C352.348 337.004 352.445 336.916 352.548 336.89C352.663 336.861 352.797 336.893 352.949 336.984L356.945 339.385C357.841 339.923 358.344 340.482 358.454 341.06C358.577 341.634 358.46 342.218 358.105 342.81L357.773 343.362C357.571 343.698 357.346 343.954 357.098 344.132C356.862 344.306 356.589 344.371 356.279 344.326C356.682 344.633 356.924 345.019 357.006 345.481C357.095 345.949 356.988 346.434 356.685 346.938L355.157 349.483C355.066 349.635 354.962 349.725 354.847 349.754C354.745 349.779 354.617 349.746 354.465 349.655L352.605 348.537C352.453 348.446 352.36 348.347 352.327 348.239C352.306 348.129 352.341 347.998 352.433 347.846L353.536 346.01C353.642 345.834 353.683 345.684 353.659 345.561C353.648 345.434 353.558 345.321 353.39 345.22L351.71 344.21L350.297 346.562C350.205 346.714 350.102 346.805 349.987 346.833C349.884 346.859 349.757 346.826 349.605 346.735ZM362.243 354.329L356.675 350.983C356.523 350.892 356.431 350.792 356.397 350.685C356.376 350.574 356.412 350.443 356.503 350.291L361.175 342.515C361.267 342.363 361.364 342.274 361.466 342.249C361.581 342.22 361.715 342.251 361.867 342.343L367.435 345.688C367.587 345.78 367.673 345.881 367.694 345.991C367.728 346.098 367.699 346.228 367.607 346.38L366.764 347.784C366.673 347.936 366.569 348.026 366.454 348.055C366.351 348.081 366.224 348.048 366.072 347.956L362.76 345.966L362.205 346.89L364.545 348.296C364.697 348.388 364.783 348.489 364.804 348.599C364.838 348.706 364.809 348.836 364.717 348.988L363.946 350.272C363.855 350.424 363.751 350.514 363.636 350.543C363.534 350.569 363.406 350.536 363.254 350.444L360.914 349.038L360.294 350.07L363.606 352.06C363.758 352.152 363.845 352.253 363.865 352.363C363.899 352.47 363.87 352.6 363.779 352.752L362.935 354.156C362.844 354.308 362.74 354.398 362.625 354.427C362.523 354.453 362.395 354.42 362.243 354.329ZM369.207 358.513L366.087 356.638C365.935 356.547 365.824 356.442 365.754 356.323C365.691 356.21 365.678 356.06 365.713 355.874L366.304 352.228C366.337 352.008 366.369 351.82 366.398 351.663C366.431 351.499 366.468 351.347 366.508 351.207C366.548 351.068 366.599 350.93 366.66 350.792C366.734 350.651 366.828 350.485 366.943 350.293L368.847 347.125C368.938 346.973 369.035 346.884 369.138 346.858C369.253 346.83 369.387 346.861 369.539 346.952L371.447 348.099C371.599 348.19 371.693 348.296 371.73 348.416C371.771 348.528 371.746 348.66 371.655 348.812L369.665 352.124C369.617 352.204 369.577 352.289 369.545 352.378C369.513 352.468 369.486 352.567 369.465 352.674L369.02 354.693C368.996 354.787 368.99 354.86 369.003 354.911C369.021 354.954 369.061 354.995 369.125 355.034L369.257 355.113C369.321 355.151 369.377 355.168 369.423 355.164C369.474 355.151 369.536 355.112 369.608 355.046L371.189 353.693C371.274 353.624 371.348 353.555 371.412 353.484C371.476 353.414 371.532 353.339 371.58 353.259L373.563 349.958C373.655 349.806 373.751 349.718 373.854 349.692C373.969 349.663 374.103 349.695 374.255 349.786L376.139 350.918C376.291 351.009 376.377 351.11 376.398 351.221C376.432 351.328 376.403 351.458 376.311 351.61L374.408 354.778C374.292 354.97 374.186 355.129 374.088 355.255C374.003 355.379 373.909 355.491 373.805 355.591C373.7 355.692 373.584 355.796 373.454 355.903C373.329 356.002 373.178 356.118 373 356.251L370.057 358.485C369.91 358.603 369.767 358.659 369.63 358.652C369.5 358.651 369.359 358.604 369.207 358.513ZM381.544 362.839C381.323 363.207 381.065 363.509 380.77 363.746C380.488 363.979 380.143 364.12 379.733 364.168C379.336 364.212 378.857 364.148 378.297 363.975C377.745 363.806 377.097 363.498 376.353 363.051C375.609 362.604 375.029 362.174 374.613 361.761C374.197 361.348 373.912 360.953 373.757 360.577C373.614 360.197 373.576 359.826 373.642 359.463C373.721 359.096 373.871 358.729 374.092 358.361L376.551 354.269C376.772 353.901 377.023 353.6 377.305 353.366C377.6 353.13 377.948 352.985 378.35 352.932C378.76 352.885 379.244 352.947 379.805 353.121C380.365 353.294 381.017 353.604 381.761 354.051C382.505 354.498 383.081 354.926 383.489 355.334C383.905 355.748 384.184 356.144 384.326 356.523C384.476 356.908 384.512 357.283 384.433 357.649C384.367 358.013 384.224 358.378 384.003 358.746L381.544 362.839ZM377.075 359.566C376.979 359.726 376.958 359.898 377.01 360.082C377.068 360.258 377.313 360.476 377.745 360.735C378.177 360.995 378.484 361.109 378.666 361.077C378.854 361.037 378.995 360.937 379.091 360.777L381.031 357.549C381.122 357.397 381.139 357.233 381.082 357.057C381.029 356.873 380.787 356.651 380.355 356.391C379.923 356.132 379.613 356.022 379.426 356.062C379.243 356.094 379.106 356.185 379.015 356.337L377.075 359.566ZM381.949 366.169C381.797 366.077 381.704 365.978 381.671 365.871C381.65 365.76 381.685 365.629 381.776 365.477L382.634 364.049C382.726 363.897 382.823 363.808 382.925 363.783C383.04 363.754 383.174 363.785 383.326 363.877L384.514 364.591L386.937 360.558L385.749 359.845C385.597 359.753 385.504 359.654 385.47 359.547C385.45 359.436 385.485 359.305 385.576 359.153L386.449 357.701C386.54 357.549 386.637 357.46 386.74 357.435C386.855 357.406 386.988 357.437 387.14 357.528L392.253 360.6C392.405 360.692 392.491 360.792 392.512 360.903C392.545 361.01 392.516 361.14 392.425 361.292L391.553 362.744C391.461 362.896 391.358 362.986 391.243 363.015C391.14 363.04 391.013 363.008 390.861 362.916L389.697 362.217L387.274 366.249L388.438 366.948C388.59 367.04 388.677 367.141 388.697 367.251C388.731 367.358 388.702 367.488 388.611 367.64L387.753 369.068C387.661 369.22 387.558 369.31 387.443 369.339C387.34 369.365 387.213 369.332 387.061 369.24L381.949 366.169ZM395.58 365.54L394.658 367.076L395.558 367.617C395.766 367.741 395.937 367.774 396.071 367.713C396.211 367.644 396.328 367.53 396.424 367.37L396.67 366.962C396.766 366.802 396.809 366.648 396.8 366.501C396.795 366.346 396.688 366.205 396.48 366.08L395.58 365.54ZM391.255 371.76L389.407 370.65C389.255 370.559 389.162 370.459 389.128 370.352C389.108 370.242 389.143 370.11 389.234 369.958L393.907 362.182C393.998 362.03 394.095 361.941 394.197 361.916C394.313 361.887 394.446 361.918 394.598 362.01L398.594 364.411C399.49 364.949 399.993 365.507 400.104 366.085C400.226 366.66 400.11 367.243 399.754 367.835L399.423 368.387C399.221 368.723 398.996 368.98 398.747 369.158C398.512 369.332 398.239 369.397 397.929 369.352C398.332 369.659 398.574 370.044 398.655 370.507C398.745 370.974 398.638 371.46 398.335 371.964L396.806 374.508C396.715 374.66 396.612 374.75 396.497 374.779C396.394 374.805 396.267 374.772 396.115 374.681L394.255 373.563C394.103 373.472 394.01 373.372 393.977 373.265C393.956 373.155 393.991 373.023 394.082 372.871L395.186 371.035C395.291 370.859 395.332 370.71 395.308 370.586C395.297 370.46 395.208 370.346 395.04 370.245L393.36 369.236L391.946 371.588C391.855 371.74 391.752 371.83 391.636 371.859C391.534 371.885 391.407 371.852 391.255 371.76Z" fill="#370303"/>
<defs>
<filter id="filter0_d_178_646" x="36.2281" y="37.0751" width="329.077" height="433.412" filterUnits="userSpaceOnUse" color-interpolation-filters="sRGB">
<feFlood flood-opacity="0" result="BackgroundImageFix"/>
<feColorMatrix in="SourceAlpha" type="matrix" values="0 0 0 0 0 0 0 0 0 0 0 0 0 0 0 0 0 0 127 0" result="hardAlpha"/>
<feOffset dy="4"/>
<feGaussianBlur stdDeviation="33.8"/>
<feComposite in2="hardAlpha" operator="out"/>
<feColorMatrix type="matrix" values="0 0 0 0 1 0 0 0 0 0 0 0 0 0 0 0 0 0 1 0"/>
<feBlend mode="normal" in2="BackgroundImageFix" result="effect1_dropShadow_178_646"/>
<feBlend mode="normal" in="SourceGraphic" in2="effect1_dropShadow_178_646" result="shape"/>
</filter>
<filter id="filter1_d_178_646" x="0" y="0" width="415" height="406" filterUnits="userSpaceOnUse" color-interpolation-filters="sRGB">
<feFlood flood-opacity="0" result="BackgroundImageFix"/>
<feColorMatrix in="SourceAlpha" type="matrix" values="0 0 0 0 0 0 0 0 0 0 0 0 0 0 0 0 0 0 127 0" result="hardAlpha"/>
<feOffset dy="2"/>
<feGaussianBlur stdDeviation="2"/>
<feComposite in2="hardAlpha" operator="out"/>
<feColorMatrix type="matrix" values="0 0 0 0 0 0 0 0 0 0 0 0 0 0 0 0 0 0 0.25 0"/>
<feBlend mode="normal" in2="BackgroundImageFix" result="effect1_dropShadow_178_646"/>
<feBlend mode="normal" in="SourceGraphic" in2="effect1_dropShadow_178_646" result="shape"/>
</filter>
</defs>
</svg>
