<svg width="659" height="586" viewBox="0 0 659 586" fill="none" xmlns="http://www.w3.org/2000/svg">
<path d="M182.569 109.731C193.465 108.939 203.677 104.122 211.217 96.2168L284.271 19.634C295.753 7.59707 313.042 3.06484 328.953 7.92082L606.149 92.5222C633.036 100.728 645.437 131.699 631.645 156.194L576.076 254.882C570.271 265.19 568.863 277.402 572.168 288.762L631.622 493.116C642.149 529.297 605.292 561.108 571.038 545.406L442.743 486.592C430.867 481.148 417.187 481.263 405.404 486.905L221.34 575.042C207.742 581.554 191.756 580.649 178.979 572.645L83.5722 512.881C73.0216 506.272 65.7646 495.503 63.6002 483.243L8.47442 171.001C3.94092 145.322 22.6077 121.357 48.6147 119.467L182.569 109.731Z" fill="#A00000" fill-opacity="0.19"/>
<path d="M201.217 119.892C211.772 119.165 221.712 114.658 229.214 107.199L288.486 48.2667C299.824 36.9934 316.385 32.758 331.743 37.2037L558.863 102.948C586.516 110.953 599.159 142.92 584.463 167.675L544.517 234.96C538.185 245.625 536.649 258.467 540.287 270.325L585.476 417.643C596.495 453.565 560.324 485.88 525.867 470.898L429.162 428.851C417.744 423.887 404.759 423.992 393.423 429.14L238.5 499.5C225.394 505.452 210.206 504.618 197.831 497.265L120.427 451.278C109.536 444.807 101.963 433.957 99.6445 421.503L54.5375 179.178C49.7238 153.318 68.5261 129.04 94.7685 127.23L201.217 119.892Z" fill="black"/>
</svg>
