<svg width="196" height="289" viewBox="0 0 196 289" fill="none" xmlns="http://www.w3.org/2000/svg">
<path d="M66.0328 288.009C40.4704 283.331 14.8268 256.339 4.67224 223.42C0.208362 208.949 -1.51644 167.276 1.54004 147.741C6.34845 117.01 17.6258 84.2028 32.5468 57.5388C39.2301 45.5957 45.5385 36.7988 45.6662 39.2442C45.701 39.9148 42.6594 46.0532 38.9066 52.8852C31.5663 66.2483 27.3636 77.5051 32.1738 70.919C33.5724 69.004 39.9606 60.1986 46.3698 51.3514C61.427 30.5663 79.9474 13.9614 96.6741 6.24981C128.588 -8.46393 162.336 3.41537 179.579 35.4327C194.531 63.1952 199.958 108.121 193.004 146.554C181.875 208.054 145.542 263.916 105.173 281.595C88.997 288.679 78.8145 290.348 66.0328 288.009ZM101.267 270.623L106.802 267.235L94.7882 266.152C74.2897 264.304 61.9634 255.786 51.5545 236.273C44.1665 222.424 43.6554 214.689 50.8935 226.27C62.3471 244.595 79.6768 255.018 95.4893 253.092C107.973 251.571 118.015 246.3 130.831 234.543C150.978 216.061 166.098 184.473 172.99 146.465C176.982 124.449 176.121 79.9105 171.439 66.2163C168.732 58.2979 168.633 58.8599 168.423 83.4948C168.303 97.4995 167.361 111.413 166.329 114.414C164.923 118.508 164.449 114.646 164.434 98.9545C164.404 66.8006 157.109 44.3122 142.374 30.9281C132.524 21.9808 122.675 19.734 109.062 23.3285C87.2177 29.0965 70.2503 45.5641 52.6915 78.0384C21.8555 135.068 15.9797 208.001 39.1109 246.604C53.1012 269.952 83.2988 281.621 101.267 270.623Z" fill="#3A86FF"/>
</svg>
