<svg width="181" height="267" viewBox="0 0 181 267" fill="none" xmlns="http://www.w3.org/2000/svg">
<path d="M28.8145 66.9906C28.8142 66.991 28.8137 66.986 28.8138 66.975C28.8148 66.9847 28.8147 66.9902 28.8145 66.9906ZM39.1966 40.3054C39.3126 40.1435 39.4262 39.9868 39.5371 39.8353C39.5135 39.8831 39.4897 39.9311 39.4657 39.9796C38.342 42.2484 36.7802 45.2314 35.0525 48.378C31.6509 54.5734 28.9613 60.3066 27.6757 63.7517C27.3543 64.6128 27.1112 65.3559 26.9681 65.94C26.8971 66.23 26.8437 66.5084 26.8233 66.7571C26.8068 66.9573 26.7914 67.3248 26.96 67.6646C27.061 67.8683 27.2483 68.0996 27.5575 68.2254C27.8547 68.3464 28.1327 68.3158 28.3192 68.2647C28.6503 68.174 28.9187 67.9583 29.0925 67.8027C29.4812 67.4546 29.9577 66.8792 30.5192 66.11L29.7622 65.5573L30.5192 66.11C31.8122 64.3388 37.7129 56.2018 43.631 48.0288C57.4729 28.913 74.453 13.712 89.6944 6.68211C118.66 -6.67796 149.268 4.06829 164.956 33.2094C178.632 58.6153 183.641 99.8809 177.249 135.22C172.134 163.499 161.225 190.481 146.966 212.415C132.699 234.361 115.125 251.18 96.7227 259.243C81.9035 265.736 72.7076 267.215 61.1593 265.101C49.6229 262.989 37.9806 255.816 28.0364 245.344C18.0995 234.88 9.91365 221.177 5.27028 206.118C3.25098 199.569 1.82385 186.717 1.26326 173.166C0.703535 159.637 1.014 145.576 2.41017 136.649C6.8326 108.372 17.2086 78.1756 30.9287 53.6469C34.0034 48.1499 36.9827 43.3939 39.1966 40.3054ZM99.151 247.745L101.727 246.167L98.7186 245.896L87.6238 244.895C78.282 244.053 70.8821 241.698 64.6462 237.387C58.4046 233.071 53.25 226.741 48.4914 217.817C46.8006 214.646 45.5093 211.836 44.6269 209.577C43.9671 207.888 43.5558 206.556 43.3622 205.628C44.0275 206.387 44.9537 207.659 46.1505 209.575C56.8468 226.696 73.1754 236.662 88.3025 234.818C100.104 233.379 109.563 228.376 121.495 217.426C140.315 200.153 154.347 170.736 160.735 135.494C162.595 125.229 163.317 109.781 163.038 95.343C162.899 88.1162 162.508 81.1218 161.88 75.1326C161.253 69.1637 160.384 64.1267 159.265 60.8522C158.657 59.0748 158.147 57.613 157.72 56.8803C157.614 56.6973 157.457 56.4578 157.236 56.2775C157.119 56.182 156.935 56.0624 156.687 56.0131C156.415 55.9588 156.138 56.0052 155.901 56.1381C155.506 56.3592 155.342 56.7476 155.275 56.9239C155.188 57.1536 155.126 57.4235 155.076 57.7071C154.881 58.825 154.774 60.8742 154.699 63.9902C154.624 67.1344 154.582 71.4426 154.533 77.1302C154.478 83.582 154.233 90.0105 153.885 95.1664C153.71 97.745 153.51 99.9973 153.296 101.771C153.222 102.38 153.148 102.923 153.074 103.398C152.923 100.901 152.855 96.9872 152.849 91.4207C152.822 61.6014 146.065 40.4777 132.151 27.8336C127.507 23.6142 122.81 20.9271 117.622 19.7431C112.439 18.5601 106.852 18.8972 100.46 20.5858C79.8923 26.0192 64.0454 41.5256 47.7792 71.6223C33.4731 98.0924 24.9594 128.245 22.7027 156.268C20.4477 184.269 24.4317 210.266 35.2599 228.345C41.84 239.331 52.2217 247.561 63.0792 251.759C73.9195 255.95 85.3896 256.172 94.0392 250.875L99.151 247.745ZM157.159 57.6034C157.159 57.604 157.156 57.6127 157.148 57.6272C157.155 57.61 157.158 57.6029 157.159 57.6034Z" fill="#FFF500" stroke="black" stroke-width="2"/>
</svg>
