<svg width="238" height="231" viewBox="0 0 238 231" fill="none" xmlns="http://www.w3.org/2000/svg">
<path d="M92.4123 230.411C77.4643 227.63 62.4688 211.584 56.5308 192.015C53.9204 183.413 52.9118 158.64 54.6991 147.027C57.5109 128.759 64.1056 109.256 72.8308 93.4055C76.739 86.3058 80.428 81.0764 80.5026 82.5301C80.523 82.9287 78.7444 86.5777 76.5499 90.6391C72.2575 98.5829 69.7999 105.275 72.6128 101.359C73.4306 100.221 77.1662 94.9866 80.9141 89.7273C89.7191 77.3714 100.549 67.5004 110.33 62.9162C128.993 54.1695 148.727 61.2312 158.811 80.2643C167.554 96.768 170.728 123.475 166.661 146.322C160.153 182.88 138.907 216.089 115.3 226.598C105.841 230.809 99.8866 231.801 92.4123 230.411ZM113.016 220.076L116.253 218.061L109.228 217.418C97.2407 216.319 90.0327 211.255 83.9459 199.656C79.6257 191.423 79.3268 186.825 83.5594 193.709C90.2571 204.603 100.391 210.799 109.638 209.654C116.937 208.75 122.81 205.617 130.304 198.628C142.085 187.641 150.927 168.863 154.957 146.269C157.292 133.181 156.788 106.705 154.05 98.5639C152.467 93.8567 152.41 94.1908 152.286 108.835C152.216 117.16 151.666 125.432 151.062 127.216C150.24 129.649 149.963 127.354 149.954 118.025C149.936 98.9112 145.671 85.5428 137.054 77.5864C131.294 72.2677 125.535 70.932 117.574 73.0688C104.801 76.4977 94.8786 86.287 84.6108 105.592C66.579 139.493 63.143 182.849 76.6693 205.797C84.8504 219.677 102.509 226.614 113.016 220.076Z" fill="#3A86FF"/>
<path d="M7 173.21H51.4767C55.2046 173.21 58.2267 176.232 58.2267 179.96V201.036C58.2267 203.191 57.1979 205.216 55.4578 206.487L46.5706 212.978C44.2232 214.692 43.1267 217.643 43.785 220.474L44.2493 222.471C45.2334 226.704 42.0201 230.75 37.6747 230.75H7.00001C3.27209 230.75 0.25 227.728 0.25 224V179.96C0.25 176.232 3.27208 173.21 7 173.21Z" fill="#E2E2E2" stroke="#A4A4A4" stroke-width="0.5"/>
<path d="M18.1106 115.75H62.5873C66.3152 115.75 69.3373 118.772 69.3373 122.5V129.991C69.3373 132.272 68.1853 134.399 66.2748 135.645L57.0449 141.665C52.9221 144.354 52.6202 150.282 56.4484 153.376L66.9498 161.863C68.4598 163.084 69.3373 164.921 69.3373 166.862C69.3373 170.412 66.4594 173.29 62.9095 173.29H18.1106C14.3827 173.29 11.3606 170.268 11.3606 166.54V122.5C11.3606 118.772 14.3827 115.75 18.1106 115.75Z" fill="#E2E2E2" stroke="#A4A4A4" stroke-width="0.5"/>
<path d="M157.285 115.17H201.762C205.49 115.17 208.512 118.192 208.512 121.92V165.96C208.512 169.688 205.49 172.71 201.762 172.71H177.365C173.067 172.71 169.864 168.747 170.765 164.545L172.35 157.15C173.498 151.796 168.524 147.151 163.261 148.662L159.147 149.842C154.833 151.08 150.535 147.842 150.535 143.354V121.92C150.535 118.192 153.557 115.17 157.285 115.17Z" fill="#E2E2E2" stroke="#A4A4A4" stroke-width="0.5"/>
<path d="M146.174 57.7097H190.651C194.379 57.7097 197.401 60.7318 197.401 64.4597V108.5C197.401 112.228 194.379 115.25 190.651 115.25H161.989C157.654 115.25 154.443 111.222 155.408 106.996L158.774 92.2658C159.463 89.2532 158.166 86.1354 155.544 84.4997L142.602 76.425C140.625 75.1921 139.424 73.0274 139.424 70.6982V64.4597C139.424 60.7318 142.447 57.7097 146.174 57.7097Z" fill="#E2E2E2" stroke="#A4A4A4" stroke-width="0.5"/>
<path d="M39.1621 58.2903H83.6388C87.3667 58.2903 90.3888 61.3124 90.3888 65.0403V76.0199C90.3888 77.8189 89.6706 79.5434 88.3938 80.8107L80.348 88.7965C78.7437 90.3888 77.9739 92.6382 78.2661 94.8796L80.0039 108.208C80.5307 112.248 77.385 115.83 73.3106 115.83H39.1621C35.4342 115.83 32.4121 112.808 32.4121 109.08V65.0403C32.4121 61.3124 35.4342 58.2903 39.1621 58.2903Z" fill="#E2E2E2" stroke="#A4A4A4" stroke-width="0.5"/>
<path d="M73.0786 0.25H117.555C121.283 0.25 124.305 3.27208 124.305 7V43.6796C124.305 44.3264 124.212 44.9699 124.029 45.5902L119.309 61.5824C117.83 66.5956 111.459 68.0973 107.896 64.2725L104.008 60.0987C102.637 58.6264 100.715 57.7902 98.7034 57.7902H73.0786C69.3507 57.7902 66.3286 54.7681 66.3286 51.0402V7C66.3286 3.27208 69.3507 0.25 73.0786 0.25Z" fill="#E2E2E2" stroke="#A4A4A4" stroke-width="0.5"/>
<path d="M131.555 0.25H176.032C179.76 0.25 182.782 3.27208 182.782 7V51.0402C182.782 54.7681 179.76 57.7902 176.032 57.7902H145.528C142.917 57.7902 141.298 54.9482 142.629 52.7016C143.99 50.4047 142.672 47.452 140.053 46.9321L130.241 44.9843C127.081 44.3571 124.805 41.5848 124.805 38.3635V6.99999C124.805 3.27207 127.827 0.25 131.555 0.25Z" fill="#E2E2E2" stroke="#A4A4A4" stroke-width="0.5"/>
<path d="M186.523 173.21H218.523C220.263 173.21 221.935 173.881 223.192 175.085L235.669 187.034C236.998 188.308 237.75 190.068 237.75 191.909V224C237.75 227.728 234.728 230.75 231 230.75H179.523H174.437C168.942 230.75 165.75 224.535 168.95 220.069L178.417 206.855C179.299 205.624 179.773 204.148 179.773 202.633V179.96C179.773 176.232 182.795 173.21 186.523 173.21Z" fill="#E2E2E2" stroke="#A4A4A4" stroke-width="0.5"/>
</svg>
