<svg width="415" height="406" viewBox="0 0 415 406" fill="none" xmlns="http://www.w3.org/2000/svg">
<path d="M233.967 398.985C259.53 394.194 285.173 366.548 295.328 332.832C299.792 318.01 301.516 275.328 298.46 255.32C293.652 223.844 282.374 190.242 267.453 162.933C260.77 150.7 254.462 141.69 254.334 144.195C254.299 144.882 257.341 151.169 261.093 158.166C268.434 171.853 272.636 183.382 267.826 176.637C266.428 174.675 260.039 165.657 253.63 156.595C238.573 135.307 220.053 118.3 203.326 110.401C171.412 95.3311 137.664 107.498 120.421 140.291C105.469 168.726 100.042 214.74 106.996 254.104C118.125 317.093 154.458 374.309 194.827 392.416C211.003 399.671 221.186 401.38 233.967 398.985ZM198.733 381.178L193.198 377.708L205.212 376.599C225.71 374.706 238.037 365.981 248.446 345.996C255.833 331.811 256.345 323.889 249.106 335.751C237.653 354.52 220.323 365.195 204.511 363.222C192.027 361.664 181.985 356.266 169.169 344.224C149.022 325.295 133.902 292.941 127.01 254.013C123.018 231.463 123.879 185.846 128.561 171.82C131.268 163.71 131.367 164.286 131.577 189.517C131.697 203.861 132.639 218.112 133.671 221.186C135.077 225.378 135.551 221.423 135.566 205.351C135.596 172.419 142.891 149.385 157.626 135.677C167.476 126.513 177.325 124.212 190.938 127.894C212.782 133.801 229.75 150.668 247.309 183.929C278.144 242.339 284.02 317.039 260.889 356.577C246.899 380.491 216.701 392.443 198.733 381.178Z" fill="#FF0000"/>
<g filter="url(#filter0_d_202_1971)">
<path d="M11 300.25H97C100.728 300.25 103.75 303.272 103.75 307V350.96C103.75 353.106 102.729 355.125 101.001 356.397L81.0587 371.071C78.7284 372.786 77.6407 375.722 78.2913 378.541L81.2778 391.482C82.2539 395.712 79.0415 399.75 74.7006 399.75H11C7.27208 399.75 4.25 396.728 4.25 393V307C4.25 303.272 7.27208 300.25 11 300.25Z" fill="#0F1215" stroke="#0D1117" stroke-width="0.5"/>
<path d="M30 201.25H116C119.728 201.25 122.75 204.272 122.75 208V228.724C122.75 230.997 121.606 233.117 119.707 234.365L95.846 250.045C91.7505 252.736 91.4495 258.631 95.2497 261.726L120.262 282.093C121.836 283.375 122.75 285.297 122.75 287.327V294C122.75 297.728 119.728 300.75 116 300.75H30C26.2721 300.75 23.25 297.728 23.25 294V208C23.25 204.272 26.2721 201.25 30 201.25Z" fill="#0F1215" stroke="#0D1117" stroke-width="0.5"/>
<path d="M268 200.25H354C357.728 200.25 360.75 203.272 360.75 207V293C360.75 296.728 357.728 299.75 354 299.75H301.146C296.853 299.75 293.65 295.795 294.544 291.595L300.313 264.478C301.453 259.121 296.47 254.483 291.208 256.005L269.875 262.173C265.558 263.422 261.25 260.183 261.25 255.689V207C261.25 203.272 264.272 200.25 268 200.25Z" fill="#0F1215" stroke="#0D1117" stroke-width="0.5"/>
<path d="M249 101.25H335C338.728 101.25 341.75 104.272 341.75 108V194C341.75 197.728 338.728 200.75 335 200.75H274.765C270.435 200.75 267.225 196.73 268.183 192.507L276.147 157.391C276.828 154.39 275.54 151.287 272.935 149.649L245.408 132.347C243.443 131.112 242.25 128.953 242.25 126.632V108C242.25 104.272 245.272 101.25 249 101.25Z" fill="#0F1215" stroke="#0D1117" stroke-width="0.5"/>
<path d="M66 102.25H152C155.728 102.25 158.75 105.272 158.75 109V135.101C158.75 136.891 158.039 138.608 156.773 139.873L139.757 156.889C138.168 158.479 137.405 160.716 137.694 162.946L141.73 194.134C142.253 198.172 139.108 201.75 135.036 201.75H66C62.2721 201.75 59.25 198.728 59.25 195V109C59.25 105.272 62.2721 102.25 66 102.25Z" fill="#0F1215" stroke="#0D1117" stroke-width="0.5"/>
<path d="M124 2.25H210C213.728 2.25 216.75 5.27208 216.75 9V77.9958C216.75 78.6381 216.658 79.277 216.478 79.8934L205.732 116.576C204.258 121.609 197.858 123.111 194.298 119.261L180.262 104.078C178.89 102.594 176.96 101.75 174.938 101.75H124C120.272 101.75 117.25 98.7279 117.25 95V9C117.25 5.27208 120.272 2.25 124 2.25Z" fill="#0F1215" stroke="#0D1117" stroke-width="0.5"/>
<path d="M224 2.25H310C313.728 2.25 316.75 5.27208 316.75 9V95C316.75 98.7279 313.728 101.75 310 101.75H252.932C248.29 101.75 245.404 96.7055 247.758 92.704C250.026 88.8487 247.815 83.908 243.429 83.0308L222.676 78.8803C219.521 78.2493 217.25 75.479 217.25 72.2614V9C217.25 5.27208 220.272 2.25 224 2.25Z" fill="#0F1215" stroke="#0D1117" stroke-width="0.5"/>
<path d="M318 300.25H379.673C381.422 300.25 383.102 300.928 384.36 302.143L408.687 325.616C410.005 326.888 410.75 328.641 410.75 330.473V393C410.75 396.728 407.728 399.75 404 399.75H311H292.567C287.083 399.75 283.888 393.557 287.066 389.088L309.908 356.966C310.781 355.739 311.25 354.271 311.25 352.765V307C311.25 303.272 314.272 300.25 318 300.25Z" fill="#0F1215" stroke="#0D1117" stroke-width="0.5"/>
</g>
<defs>
<filter id="filter0_d_202_1971" x="0" y="0" width="415" height="406" filterUnits="userSpaceOnUse" color-interpolation-filters="sRGB">
<feFlood flood-opacity="0" result="BackgroundImageFix"/>
<feColorMatrix in="SourceAlpha" type="matrix" values="0 0 0 0 0 0 0 0 0 0 0 0 0 0 0 0 0 0 127 0" result="hardAlpha"/>
<feOffset dy="2"/>
<feGaussianBlur stdDeviation="2"/>
<feComposite in2="hardAlpha" operator="out"/>
<feColorMatrix type="matrix" values="0 0 0 0 0 0 0 0 0 0 0 0 0 0 0 0 0 0 0.25 0"/>
<feBlend mode="normal" in2="BackgroundImageFix" result="effect1_dropShadow_202_1971"/>
<feBlend mode="normal" in="SourceGraphic" in2="effect1_dropShadow_202_1971" result="shape"/>
</filter>
</defs>
</svg>
