<svg width="423" height="424" viewBox="0 0 423 424" fill="none" xmlns="http://www.w3.org/2000/svg">
<rect x="82" y="87" width="265" height="323" fill="url(#paint0_radial_202_2012)" fill-opacity="0.83"/>
<path d="M161.665 153.144L161.665 153.144C161.653 152.915 161.603 152.548 161.352 152.234C161.032 151.833 160.569 151.732 160.187 151.791C159.871 151.84 159.605 151.992 159.419 152.118C159.216 152.256 159.012 152.431 158.811 152.623C158.02 153.38 156.963 154.725 155.746 156.464C153.289 159.972 150.022 165.317 146.669 171.453C131.691 198.867 120.377 232.581 115.552 264.169C114.009 274.267 113.679 290.015 114.287 305.061C114.894 320.087 116.443 334.576 118.715 342.12C123.836 359.122 132.861 374.597 143.841 386.435C154.814 398.264 167.795 406.521 180.849 408.968C193.892 411.412 204.286 409.638 220.582 402.328C241.006 393.167 260.314 374.166 275.897 349.627C291.489 325.073 303.402 294.899 308.988 263.278C315.972 223.75 310.542 177.501 295.464 148.826C286.74 132.234 273.81 120.808 258.968 115.457C244.121 110.104 227.43 110.855 211.247 118.497C194.314 126.493 175.672 143.643 160.553 165.018C154.881 173.038 149.226 181.022 147.032 184.111C148.418 180.389 151.226 174.281 154.788 167.639C156.669 164.131 158.374 160.797 159.607 158.249C160.222 156.977 160.724 155.892 161.072 155.076C161.246 154.669 161.386 154.316 161.484 154.033C161.533 153.892 161.576 153.755 161.608 153.63C161.633 153.529 161.675 153.344 161.665 153.144ZM160.6 153.738C160.6 153.738 160.599 153.739 160.597 153.74C160.599 153.738 160.6 153.738 160.6 153.738ZM159.674 153.115C159.674 153.114 159.674 153.117 159.672 153.125C159.673 153.119 159.673 153.116 159.674 153.115ZM218.765 387.432L215.736 389.331C207.11 394.739 195.426 394.636 184.065 390.14C172.721 385.65 161.852 376.829 154.974 365.072C143.551 345.547 139.237 317.218 141.66 286.408C144.082 255.621 153.224 222.476 168.576 193.395C186.087 160.225 202.879 143.658 224.323 137.859C231.02 136.048 236.712 135.729 241.901 136.942C247.087 138.154 251.862 140.915 256.693 145.409C271.127 158.838 278.404 181.527 278.434 214.352C278.441 222.371 278.562 227.442 278.867 229.986C278.943 230.622 279.036 231.155 279.161 231.554C279.222 231.749 279.308 231.971 279.441 232.168C279.565 232.352 279.838 232.669 280.31 232.732C280.793 232.796 281.144 232.549 281.314 232.391C281.49 232.227 281.62 232.028 281.716 231.859C281.911 231.513 282.096 231.043 282.277 230.504C282.573 229.624 282.834 228.059 283.068 226.075C283.306 224.06 283.525 221.523 283.716 218.644C284.096 212.883 284.362 205.715 284.422 198.525C284.475 192.215 284.521 187.457 284.602 183.99C284.651 181.876 284.713 180.27 284.795 179.097C284.999 179.674 285.229 180.355 285.49 181.137C286.624 184.534 287.548 189.923 288.223 196.511C288.896 203.078 289.317 210.772 289.467 218.739C289.768 234.688 288.985 251.656 287.005 262.838C280.135 301.643 265.081 333.765 245.146 352.496C232.425 364.448 222.57 369.707 210.366 371.23C195.092 373.135 178.087 362.813 166.747 344.23C164.943 341.273 163.541 339.405 162.54 338.581C162.284 338.37 161.988 338.171 161.664 338.064C161.323 337.952 160.842 337.914 160.404 338.218C160.007 338.493 159.856 338.908 159.793 339.197C159.726 339.503 159.72 339.84 159.741 340.17C159.825 341.468 160.405 343.538 161.382 346.1C162.372 348.694 163.806 351.884 165.668 355.458C170.918 365.538 176.694 372.861 183.81 377.898C190.933 382.94 199.32 385.636 209.696 386.594L218.765 387.432Z" fill="white" stroke="black" stroke-width="2"/>
<g filter="url(#filter0_d_202_2012)">
<rect x="342" y="341" width="74" height="69" rx="5" fill="#170B0B"/>
<rect x="342.25" y="341.25" width="73.5" height="68.5" rx="4.75" stroke="#A4A4A4" stroke-width="0.5"/>
</g>
<g filter="url(#filter1_d_202_2012)">
<rect width="74" height="69" rx="5" transform="matrix(-1 0 0 1 83 342)" fill="#170B0B"/>
<rect x="-0.25" y="0.25" width="73.5" height="68.5" rx="4.75" transform="matrix(-1 0 0 1 82.5 342)" stroke="#A4A4A4" stroke-width="0.5"/>
</g>
<g filter="url(#filter2_d_202_2012)">
<rect x="337" y="277.162" width="74" height="69" rx="5" transform="rotate(-4 337 277.162)" fill="#686262"/>
<rect x="337.267" y="277.394" width="73.5" height="68.5" rx="4.75" transform="rotate(-4 337.267 277.394)" stroke="#A4A4A4" stroke-width="0.5"/>
</g>
<g filter="url(#filter3_d_202_2012)">
<rect width="74" height="69" rx="5" transform="matrix(-0.997564 -0.0697565 -0.0697565 0.997564 88 278.162)" fill="#686262"/>
<rect x="-0.26683" y="0.231952" width="73.5" height="68.5" rx="4.75" transform="matrix(-0.997564 -0.0697565 -0.0697565 0.997564 87.4832 278.144)" stroke="#A4A4A4" stroke-width="0.5"/>
</g>
<g filter="url(#filter4_d_202_2012)">
<rect x="329" y="213.018" width="74" height="69" rx="5" transform="rotate(-7 329 213.018)" fill="#686262"/>
<rect x="329.279" y="213.236" width="73.5" height="68.5" rx="4.75" transform="rotate(-7 329.279 213.236)" stroke="#A4A4A4" stroke-width="0.5"/>
</g>
<g filter="url(#filter5_d_202_2012)">
<rect width="74" height="69" rx="5" transform="matrix(-0.992546 -0.121869 -0.121869 0.992546 96 214.018)" fill="#686262"/>
<rect x="-0.278604" y="0.217669" width="73.5" height="68.5" rx="4.75" transform="matrix(-0.992546 -0.121869 -0.121869 0.992546 95.4714 213.986)" stroke="#A4A4A4" stroke-width="0.5"/>
</g>
<g filter="url(#filter6_d_202_2012)">
<rect x="316" y="150.12" width="74" height="69" rx="5" transform="rotate(-11 316 150.12)" fill="#686262"/>
<rect x="316.293" y="150.318" width="73.5" height="68.5" rx="4.75" transform="rotate(-11 316.293 150.318)" stroke="#A4A4A4" stroke-width="0.5"/>
</g>
<g filter="url(#filter7_d_202_2012)">
<rect width="74" height="69" rx="5" transform="matrix(-0.981627 -0.190809 -0.190809 0.981627 109 151.12)" fill="#686262"/>
<rect x="-0.293109" y="0.197705" width="73.5" height="68.5" rx="4.75" transform="matrix(-0.981627 -0.190809 -0.190809 0.981627 108.457 151.068)" stroke="#A4A4A4" stroke-width="0.5"/>
</g>
<g filter="url(#filter8_d_202_2012)">
<rect x="297" y="91.6355" width="74" height="69" rx="5" transform="rotate(-17 297 91.6355)" fill="#170B0B"/>
<rect x="297.312" y="91.8015" width="73.5" height="68.5" rx="4.75" transform="rotate(-17 297.312 91.8015)" stroke="#A4A4A4" stroke-width="0.5"/>
</g>
<g filter="url(#filter9_d_202_2012)">
<rect width="74" height="69" rx="5" transform="matrix(-0.956305 -0.292372 -0.292372 0.956305 128 92.6355)" fill="#170B0B"/>
<rect x="-0.312169" y="0.165983" width="73.5" height="68.5" rx="4.75" transform="matrix(-0.956305 -0.292372 -0.292372 0.956305 127.438 92.5515)" stroke="#A4A4A4" stroke-width="0.5"/>
</g>
<g filter="url(#filter10_d_202_2012)">
<path d="M26 26.62C26 23.628 28.6102 21.3058 31.5819 21.654L198.445 41.2047C205.79 42.0653 213.21 42.0653 220.555 41.2047L387.418 21.654C390.39 21.3058 393 23.628 393 26.62V85C393 87.7614 390.761 90 388 90H209.5H31C28.2386 90 26 87.7614 26 85V26.62Z" fill="#686262"/>
<path d="M392.75 26.62V85C392.75 87.6234 390.623 89.75 388 89.75H209.5H31C28.3766 89.75 26.25 87.6234 26.25 85V26.62C26.25 23.7776 28.7297 21.5715 31.5528 21.9023L198.416 41.453C205.78 42.3159 213.22 42.3159 220.584 41.453L387.447 21.9023C390.27 21.5715 392.75 23.7776 392.75 26.62Z" stroke="#A4A4A4" stroke-width="0.5"/>
</g>
<defs>
<filter id="filter0_d_202_2012" x="325.2" y="329.2" width="97.6" height="92.6" filterUnits="userSpaceOnUse" color-interpolation-filters="sRGB">
<feFlood flood-opacity="0" result="BackgroundImageFix"/>
<feColorMatrix in="SourceAlpha" type="matrix" values="0 0 0 0 0 0 0 0 0 0 0 0 0 0 0 0 0 0 127 0" result="hardAlpha"/>
<feOffset dx="-5"/>
<feGaussianBlur stdDeviation="5.9"/>
<feComposite in2="hardAlpha" operator="out"/>
<feColorMatrix type="matrix" values="0 0 0 0 0 0 0 0 0 0 0 0 0 0 0 0 0 0 0.25 0"/>
<feBlend mode="normal" in2="BackgroundImageFix" result="effect1_dropShadow_202_2012"/>
<feBlend mode="normal" in="SourceGraphic" in2="effect1_dropShadow_202_2012" result="shape"/>
</filter>
<filter id="filter1_d_202_2012" x="0.9" y="329.9" width="98.2" height="93.2" filterUnits="userSpaceOnUse" color-interpolation-filters="sRGB">
<feFlood flood-opacity="0" result="BackgroundImageFix"/>
<feColorMatrix in="SourceAlpha" type="matrix" values="0 0 0 0 0 0 0 0 0 0 0 0 0 0 0 0 0 0 127 0" result="hardAlpha"/>
<feOffset dx="4"/>
<feGaussianBlur stdDeviation="6.05"/>
<feComposite in2="hardAlpha" operator="out"/>
<feColorMatrix type="matrix" values="0 0 0 0 0 0 0 0 0 0 0 0 0 0 0 0 0 0 0.25 0"/>
<feBlend mode="normal" in2="BackgroundImageFix" result="effect1_dropShadow_202_2012"/>
<feBlend mode="normal" in="SourceGraphic" in2="effect1_dropShadow_202_2012" result="shape"/>
</filter>
<filter id="filter2_d_202_2012" x="320.536" y="260.536" width="101.561" height="96.9213" filterUnits="userSpaceOnUse" color-interpolation-filters="sRGB">
<feFlood flood-opacity="0" result="BackgroundImageFix"/>
<feColorMatrix in="SourceAlpha" type="matrix" values="0 0 0 0 0 0 0 0 0 0 0 0 0 0 0 0 0 0 127 0" result="hardAlpha"/>
<feOffset dx="-5"/>
<feGaussianBlur stdDeviation="5.9"/>
<feComposite in2="hardAlpha" operator="out"/>
<feColorMatrix type="matrix" values="0 0 0 0 0 0 0 0 0 0 0 0 0 0 0 0 0 0 0.25 0"/>
<feBlend mode="normal" in2="BackgroundImageFix" result="effect1_dropShadow_202_2012"/>
<feBlend mode="normal" in="SourceGraphic" in2="effect1_dropShadow_202_2012" result="shape"/>
</filter>
<filter id="filter3_d_202_2012" x="1.60312" y="261.236" width="102.161" height="97.5213" filterUnits="userSpaceOnUse" color-interpolation-filters="sRGB">
<feFlood flood-opacity="0" result="BackgroundImageFix"/>
<feColorMatrix in="SourceAlpha" type="matrix" values="0 0 0 0 0 0 0 0 0 0 0 0 0 0 0 0 0 0 127 0" result="hardAlpha"/>
<feOffset dx="4"/>
<feGaussianBlur stdDeviation="6.05"/>
<feComposite in2="hardAlpha" operator="out"/>
<feColorMatrix type="matrix" values="0 0 0 0 0 0 0 0 0 0 0 0 0 0 0 0 0 0 0.25 0"/>
<feBlend mode="normal" in2="BackgroundImageFix" result="effect1_dropShadow_202_2012"/>
<feBlend mode="normal" in="SourceGraphic" in2="effect1_dropShadow_202_2012" result="shape"/>
</filter>
<filter id="filter4_d_202_2012" x="312.771" y="192.772" width="104.315" height="99.9608" filterUnits="userSpaceOnUse" color-interpolation-filters="sRGB">
<feFlood flood-opacity="0" result="BackgroundImageFix"/>
<feColorMatrix in="SourceAlpha" type="matrix" values="0 0 0 0 0 0 0 0 0 0 0 0 0 0 0 0 0 0 127 0" result="hardAlpha"/>
<feOffset dx="-5"/>
<feGaussianBlur stdDeviation="5.9"/>
<feComposite in2="hardAlpha" operator="out"/>
<feColorMatrix type="matrix" values="0 0 0 0 0 0 0 0 0 0 0 0 0 0 0 0 0 0 0.25 0"/>
<feBlend mode="normal" in2="BackgroundImageFix" result="effect1_dropShadow_202_2012"/>
<feBlend mode="normal" in="SourceGraphic" in2="effect1_dropShadow_202_2012" result="shape"/>
</filter>
<filter id="filter5_d_202_2012" x="6.61387" y="193.472" width="104.915" height="100.561" filterUnits="userSpaceOnUse" color-interpolation-filters="sRGB">
<feFlood flood-opacity="0" result="BackgroundImageFix"/>
<feColorMatrix in="SourceAlpha" type="matrix" values="0 0 0 0 0 0 0 0 0 0 0 0 0 0 0 0 0 0 127 0" result="hardAlpha"/>
<feOffset dx="4"/>
<feGaussianBlur stdDeviation="6.05"/>
<feComposite in2="hardAlpha" operator="out"/>
<feColorMatrix type="matrix" values="0 0 0 0 0 0 0 0 0 0 0 0 0 0 0 0 0 0 0.25 0"/>
<feBlend mode="normal" in2="BackgroundImageFix" result="effect1_dropShadow_202_2012"/>
<feBlend mode="normal" in="SourceGraphic" in2="effect1_dropShadow_202_2012" result="shape"/>
</filter>
<filter id="filter6_d_202_2012" x="300.061" y="125.061" width="107.684" height="103.73" filterUnits="userSpaceOnUse" color-interpolation-filters="sRGB">
<feFlood flood-opacity="0" result="BackgroundImageFix"/>
<feColorMatrix in="SourceAlpha" type="matrix" values="0 0 0 0 0 0 0 0 0 0 0 0 0 0 0 0 0 0 127 0" result="hardAlpha"/>
<feOffset dx="-5"/>
<feGaussianBlur stdDeviation="5.9"/>
<feComposite in2="hardAlpha" operator="out"/>
<feColorMatrix type="matrix" values="0 0 0 0 0 0 0 0 0 0 0 0 0 0 0 0 0 0 0.25 0"/>
<feBlend mode="normal" in2="BackgroundImageFix" result="effect1_dropShadow_202_2012"/>
<feBlend mode="normal" in="SourceGraphic" in2="effect1_dropShadow_202_2012" result="shape"/>
</filter>
<filter id="filter7_d_202_2012" x="15.9547" y="125.761" width="108.284" height="104.33" filterUnits="userSpaceOnUse" color-interpolation-filters="sRGB">
<feFlood flood-opacity="0" result="BackgroundImageFix"/>
<feColorMatrix in="SourceAlpha" type="matrix" values="0 0 0 0 0 0 0 0 0 0 0 0 0 0 0 0 0 0 127 0" result="hardAlpha"/>
<feOffset dx="4"/>
<feGaussianBlur stdDeviation="6.05"/>
<feComposite in2="hardAlpha" operator="out"/>
<feColorMatrix type="matrix" values="0 0 0 0 0 0 0 0 0 0 0 0 0 0 0 0 0 0 0.25 0"/>
<feBlend mode="normal" in2="BackgroundImageFix" result="effect1_dropShadow_202_2012"/>
<feBlend mode="normal" in="SourceGraphic" in2="effect1_dropShadow_202_2012" result="shape"/>
</filter>
<filter id="filter8_d_202_2012" x="281.442" y="59.4419" width="112.056" height="108.736" filterUnits="userSpaceOnUse" color-interpolation-filters="sRGB">
<feFlood flood-opacity="0" result="BackgroundImageFix"/>
<feColorMatrix in="SourceAlpha" type="matrix" values="0 0 0 0 0 0 0 0 0 0 0 0 0 0 0 0 0 0 127 0" result="hardAlpha"/>
<feOffset dx="-5"/>
<feGaussianBlur stdDeviation="5.9"/>
<feComposite in2="hardAlpha" operator="out"/>
<feColorMatrix type="matrix" values="0 0 0 0 0 0 0 0 0 0 0 0 0 0 0 0 0 0 0.25 0"/>
<feBlend mode="normal" in2="BackgroundImageFix" result="effect1_dropShadow_202_2012"/>
<feBlend mode="normal" in="SourceGraphic" in2="effect1_dropShadow_202_2012" result="shape"/>
</filter>
<filter id="filter9_d_202_2012" x="30.2018" y="60.1419" width="112.656" height="109.336" filterUnits="userSpaceOnUse" color-interpolation-filters="sRGB">
<feFlood flood-opacity="0" result="BackgroundImageFix"/>
<feColorMatrix in="SourceAlpha" type="matrix" values="0 0 0 0 0 0 0 0 0 0 0 0 0 0 0 0 0 0 127 0" result="hardAlpha"/>
<feOffset dx="4"/>
<feGaussianBlur stdDeviation="6.05"/>
<feComposite in2="hardAlpha" operator="out"/>
<feColorMatrix type="matrix" values="0 0 0 0 0 0 0 0 0 0 0 0 0 0 0 0 0 0 0.25 0"/>
<feBlend mode="normal" in2="BackgroundImageFix" result="effect1_dropShadow_202_2012"/>
<feBlend mode="normal" in="SourceGraphic" in2="effect1_dropShadow_202_2012" result="shape"/>
</filter>
<filter id="filter10_d_202_2012" x="3.2" y="0.819386" width="412.6" height="113.981" filterUnits="userSpaceOnUse" color-interpolation-filters="sRGB">
<feFlood flood-opacity="0" result="BackgroundImageFix"/>
<feColorMatrix in="SourceAlpha" type="matrix" values="0 0 0 0 0 0 0 0 0 0 0 0 0 0 0 0 0 0 127 0" result="hardAlpha"/>
<feOffset dy="2"/>
<feGaussianBlur stdDeviation="11.4"/>
<feComposite in2="hardAlpha" operator="out"/>
<feColorMatrix type="matrix" values="0 0 0 0 0 0 0 0 0 0 0 0 0 0 0 0 0 0 0.25 0"/>
<feBlend mode="normal" in2="BackgroundImageFix" result="effect1_dropShadow_202_2012"/>
<feBlend mode="normal" in="SourceGraphic" in2="effect1_dropShadow_202_2012" result="shape"/>
</filter>
<radialGradient id="paint0_radial_202_2012" cx="0" cy="0" r="1" gradientUnits="userSpaceOnUse" gradientTransform="translate(215 263) rotate(90.1949) scale(147.001 120.604)">
<stop offset="0.355" stop-color="white"/>
<stop offset="1" stop-color="#737373"/>
</radialGradient>
</defs>
</svg>
